<mxfile host="Electron" modified="2023-05-27T11:48:36.935Z" agent="Mozilla/5.0 (Macintosh; Intel Mac OS X 10_15_7) AppleWebKit/537.36 (KHTML, like Gecko) draw.io/21.2.8 Chrome/112.0.5615.165 Electron/24.2.0 Safari/537.36" etag="pA8BgAsq61AEmPtSflRG" version="21.2.8" type="device">
  <diagram name="Pagina-1" id="LW1gkWnN6hph4QdYP_hu">
    <mxGraphModel dx="1754" dy="980" grid="1" gridSize="10" guides="1" tooltips="1" connect="1" arrows="1" fold="1" page="1" pageScale="1" pageWidth="1654" pageHeight="1169" math="0" shadow="0">
      <root>
        <mxCell id="0" />
        <mxCell id="1" parent="0" />
        <mxCell id="q03R0o6lwWfZ4Cbfy0_G-1" value="" style="shape=image;verticalLabelPosition=bottom;labelBackgroundColor=default;verticalAlign=top;aspect=fixed;imageAspect=0;image=data:image/svg+xml,PHN2ZyB4bWxuczp4bGluaz0iaHR0cDovL3d3dy53My5vcmcvMTk5OS94bGluayIgeG1sbnM9Imh0dHA6Ly93d3cudzMub3JnLzIwMDAvc3ZnIiB6b29tQW5kUGFuPSJtYWduaWZ5IiB3aWR0aD0iNTI1MCIgdmlld0JveD0iMTYgNiA1MjUwIDE2NTYiIHZlcnNpb249IjEuMSIgc3R5bGU9IndpZHRoOjUyODNweDtoZWlnaHQ6MTY3MXB4O2JhY2tncm91bmQ6I0ZGRkZGRjsiIHByZXNlcnZlQXNwZWN0UmF0aW89Im5vbmUiIGhlaWdodD0iMTY1NiI+PGRlZnM+PGZpbHRlciB5PSItMSIgeD0iLTEiIHdpZHRoPSIzMDAlIiBpZD0iZjV1b3Q4ZHl2ZGpybCIgaGVpZ2h0PSIzMDAlIj48ZmVHYXVzc2lhbkJsdXIgc3RkRGV2aWF0aW9uPSIyLjAiIHJlc3VsdD0iYmx1ck91dCIvPjxmZUNvbG9yTWF0cml4IHZhbHVlcz0iMCAwIDAgMCAwIDAgMCAwIDAgMCAwIDAgMCAwIDAgMCAwIDAgLjQgMCIgdHlwZT0ibWF0cml4IiByZXN1bHQ9ImJsdXJPdXQyIiBpbj0iYmx1ck91dCIvPjxmZU9mZnNldCByZXN1bHQ9ImJsdXJPdXQzIiBpbj0iYmx1ck91dDIiIGR5PSI0LjAiIGR4PSI0LjAiLz48ZmVCbGVuZCBtb2RlPSJub3JtYWwiIGluMj0iYmx1ck91dDMiIGluPSJTb3VyY2VHcmFwaGljIi8+PC9maWx0ZXI+PC9kZWZzPjxnPjxnIGlkPSJjbHVzdGVyX2l0Ij48cG9seWdvbiBzdHlsZT0ic3Ryb2tlOiMwMDAwMDA7c3Ryb2tlLXdpZHRoOjEuNTsiIHBvaW50cz0iMTYsNiwzNSw2LDQyLDI4LjI5NjksNDkyMiwyOC4yOTY5LDQ5MjIsMTY2MiwxNiwxNjYyLDE2LDYiIGZpbHRlcj0idXJsKCNmNXVvdDhkeXZkanJsKSIgZmlsbD0ibm9uZSIvPjxsaW5lIHkyPSIyOC4yOTY5IiB5MT0iMjguMjk2OSIgeDI9IjQyIiB4MT0iMTYiIHN0eWxlPSJzdHJva2U6IzAwMDAwMDtzdHJva2Utd2lkdGg6MS41OyIvPjx0ZXh0IHk9IjIwLjk5NTEiIHg9IjIwIiB0ZXh0TGVuZ3RoPSIxMyIgbGVuZ3RoQWRqdXN0PSJzcGFjaW5nIiBmb250LXdlaWdodD0iYm9sZCIgZm9udC1zaXplPSIxNCIgZm9udC1mYW1pbHk9InNhbnMtc2VyaWYiIGZpbGw9IiMwMDAwMDAiPml0PC90ZXh0PjwvZz48ZyBpZD0iY2x1c3Rlcl9wb2xpbWkiPjxwb2x5Z29uIHN0eWxlPSJzdHJva2U6IzAwMDAwMDtzdHJva2Utd2lkdGg6MS41OyIgcG9pbnRzPSI0MCw0OSw5Niw0OSwxMDMsNzEuMjk2OSw0ODk4LDcxLjI5NjksNDg5OCwxNjM4LDQwLDE2MzgsNDAsNDkiIGZpbHRlcj0idXJsKCNmNXVvdDhkeXZkanJsKSIgZmlsbD0ibm9uZSIvPjxsaW5lIHkyPSI3MS4yOTY5IiB5MT0iNzEuMjk2OSIgeDI9IjEwMyIgeDE9IjQwIiBzdHlsZT0ic3Ryb2tlOiMwMDAwMDA7c3Ryb2tlLXdpZHRoOjEuNTsiLz48dGV4dCB5PSI2My45OTUxIiB4PSI0NCIgdGV4dExlbmd0aD0iNTAiIGxlbmd0aEFkanVzdD0ic3BhY2luZyIgZm9udC13ZWlnaHQ9ImJvbGQiIGZvbnQtc2l6ZT0iMTQiIGZvbnQtZmFtaWx5PSJzYW5zLXNlcmlmIiBmaWxsPSIjMDAwMDAwIj5wb2xpbWk8L3RleHQ+PC9nPjxnIGlkPSJjbHVzdGVyX2luZ3N3Ij48cG9seWdvbiBzdHlsZT0ic3Ryb2tlOiMwMDAwMDA7c3Ryb2tlLXdpZHRoOjEuNTsiIHBvaW50cz0iNjQsOTIsMTE3LDkyLDEyNCwxMTQuMjk2OSw0ODc0LDExNC4yOTY5LDQ4NzQsMTYxNCw2NCwxNjE0LDY0LDkyIiBmaWx0ZXI9InVybCgjZjV1b3Q4ZHl2ZGpybCkiIGZpbGw9Im5vbmUiLz48bGluZSB5Mj0iMTE0LjI5NjkiIHkxPSIxMTQuMjk2OSIgeDI9IjEyNCIgeDE9IjY0IiBzdHlsZT0ic3Ryb2tlOiMwMDAwMDA7c3Ryb2tlLXdpZHRoOjEuNTsiLz48dGV4dCB5PSIxMDYuOTk1MSIgeD0iNjgiIHRleHRMZW5ndGg9IjQ3IiBsZW5ndGhBZGp1c3Q9InNwYWNpbmciIGZvbnQtd2VpZ2h0PSJib2xkIiBmb250LXNpemU9IjE0IiBmb250LWZhbWlseT0ic2Fucy1zZXJpZiIgZmlsbD0iIzAwMDAwMCI+aW5nc3c8L3RleHQ+PC9nPjxnIGlkPSJjbHVzdGVyX1NlcnZlciI+PHBvbHlnb24gc3R5bGU9InN0cm9rZTojMDAwMDAwO3N0cm9rZS13aWR0aDoxLjU7IiBwb2ludHM9Ijg4LDMwNiwxNDUsMzA2LDE1MiwzMjguMjk2OSw0ODUwLDMyOC4yOTY5LDQ4NTAsMTU5MCw4OCwxNTkwLDg4LDMwNiIgZmlsdGVyPSJ1cmwoI2Y1dW90OGR5dmRqcmwpIiBmaWxsPSJub25lIi8+PGxpbmUgeTI9IjMyOC4yOTY5IiB5MT0iMzI4LjI5NjkiIHgyPSIxNTIiIHgxPSI4OCIgc3R5bGU9InN0cm9rZTojMDAwMDAwO3N0cm9rZS13aWR0aDoxLjU7Ii8+PHRleHQgeT0iMzIwLjk5NTEiIHg9IjkyIiB0ZXh0TGVuZ3RoPSI1MSIgbGVuZ3RoQWRqdXN0PSJzcGFjaW5nIiBmb250LXdlaWdodD0iYm9sZCIgZm9udC1zaXplPSIxNCIgZm9udC1mYW1pbHk9InNhbnMtc2VyaWYiIGZpbGw9IiMwMDAwMDAiPlNlcnZlcjwvdGV4dD48L2c+PGcgaWQ9ImNsdXN0ZXJfTW9kZWwiPjxwb2x5Z29uIHN0eWxlPSJzdHJva2U6IzAwMDAwMDtzdHJva2Utd2lkdGg6MS41OyIgcG9pbnRzPSIxMTA5LDM3My41LDExNjMsMzczLjUsMTE3MCwzOTUuNzk2OSw0ODI2LDM5NS43OTY5LDQ4MjYsMTU2NiwxMTA5LDE1NjYsMTEwOSwzNzMuNSIgZmlsdGVyPSJ1cmwoI2Y1dW90OGR5dmRqcmwpIiBmaWxsPSJub25lIi8+PGxpbmUgeTI9IjM5NS43OTY5IiB5MT0iMzk1Ljc5NjkiIHgyPSIxMTcwIiB4MT0iMTEwOSIgc3R5bGU9InN0cm9rZTojMDAwMDAwO3N0cm9rZS13aWR0aDoxLjU7Ii8+PHRleHQgeT0iMzg4LjQ5NTEiIHg9IjExMTMiIHRleHRMZW5ndGg9IjQ4IiBsZW5ndGhBZGp1c3Q9InNwYWNpbmciIGZvbnQtd2VpZ2h0PSJib2xkIiBmb250LXNpemU9IjE0IiBmb250LWZhbWlseT0ic2Fucy1zZXJpZiIgZmlsbD0iIzAwMDAwMCI+TW9kZWw8L3RleHQ+PC9nPjxnIGlkPSJjbHVzdGVyX0NvbnRyb2xsZXIiPjxwb2x5Z29uIHN0eWxlPSJzdHJva2U6IzAwMDAwMDtzdHJva2Utd2lkdGg6MS41OyIgcG9pbnRzPSIxMTIsMzQ5LDE5OSwzNDksMjA2LDM3MS4yOTY5LDEwODUsMzcxLjI5NjksMTA4NSw5MzcsMTEyLDkzNywxMTIsMzQ5IiBmaWx0ZXI9InVybCgjZjV1b3Q4ZHl2ZGpybCkiIGZpbGw9Im5vbmUiLz48bGluZSB5Mj0iMzcxLjI5NjkiIHkxPSIzNzEuMjk2OSIgeDI9IjIwNiIgeDE9IjExMiIgc3R5bGU9InN0cm9rZTojMDAwMDAwO3N0cm9rZS13aWR0aDoxLjU7Ii8+PHRleHQgeT0iMzYzLjk5NTEiIHg9IjExNiIgdGV4dExlbmd0aD0iODEiIGxlbmd0aEFkanVzdD0ic3BhY2luZyIgZm9udC13ZWlnaHQ9ImJvbGQiIGZvbnQtc2l6ZT0iMTQiIGZvbnQtZmFtaWx5PSJzYW5zLXNlcmlmIiBmaWxsPSIjMDAwMDAwIj5Db250cm9sbGVyPC90ZXh0PjwvZz48ZyBpZD0iY2x1c3Rlcl9Db21tb24iPjxwb2x5Z29uIHN0eWxlPSJzdHJva2U6IzAwMDAwMDtzdHJva2Utd2lkdGg6MS41OyIgcG9pbnRzPSIxODYwLDEzNSwxOTM2LDEzNSwxOTQzLDE1Ny4yOTY5LDMzNjQsMTU3LjI5NjksMzM2NCwyMzQsMTg2MCwyMzQsMTg2MCwxMzUiIGZpbHRlcj0idXJsKCNmNXVvdDhkeXZkanJsKSIgZmlsbD0ibm9uZSIvPjxsaW5lIHkyPSIxNTcuMjk2OSIgeTE9IjE1Ny4yOTY5IiB4Mj0iMTk0MyIgeDE9IjE4NjAiIHN0eWxlPSJzdHJva2U6IzAwMDAwMDtzdHJva2Utd2lkdGg6MS41OyIvPjx0ZXh0IHk9IjE0OS45OTUxIiB4PSIxODY0IiB0ZXh0TGVuZ3RoPSI3MCIgbGVuZ3RoQWRqdXN0PSJzcGFjaW5nIiBmb250LXdlaWdodD0iYm9sZCIgZm9udC1zaXplPSIxNCIgZm9udC1mYW1pbHk9InNhbnMtc2VyaWYiIGZpbGw9IiMwMDAwMDAiPkNvbW1vbjwvdGV4dD48L2c+PGcgaWQ9ImNsdXN0ZXJfamF2YSI+PHBvbHlnb24gc3R5bGU9InN0cm9rZTojMDAwMDAwO3N0cm9rZS13aWR0aDoxLjU7IiBwb2ludHM9IjQ5NDYsNDksNDk4Niw0OSw0OTkzLDcxLjI5NjksNTI2Niw3MS4yOTY5LDUyNjYsMjgyLDQ5NDYsMjgyLDQ5NDYsNDkiIGZpbHRlcj0idXJsKCNmNXVvdDhkeXZkanJsKSIgZmlsbD0ibm9uZSIvPjxsaW5lIHkyPSI3MS4yOTY5IiB5MT0iNzEuMjk2OSIgeDI9IjQ5OTMiIHgxPSI0OTQ2IiBzdHlsZT0ic3Ryb2tlOiMwMDAwMDA7c3Ryb2tlLXdpZHRoOjEuNTsiLz48dGV4dCB5PSI2My45OTUxIiB4PSI0OTUwIiB0ZXh0TGVuZ3RoPSIzNCIgbGVuZ3RoQWRqdXN0PSJzcGFjaW5nIiBmb250LXdlaWdodD0iYm9sZCIgZm9udC1zaXplPSIxNCIgZm9udC1mYW1pbHk9InNhbnMtc2VyaWYiIGZpbGw9IiMwMDAwMDAiPmphdmE8L3RleHQ+PC9nPjxnIGlkPSJjbHVzdGVyX3JtaSI+PHBvbHlnb24gc3R5bGU9InN0cm9rZTojMDAwMDAwO3N0cm9rZS13aWR0aDoxLjU7IiBwb2ludHM9IjQ5NzAsOTIsNTAwMyw5Miw1MDEwLDExNC4yOTY5LDUyNDIsMTE0LjI5NjksNTI0MiwyNTgsNDk3MCwyNTgsNDk3MCw5MiIgZmlsdGVyPSJ1cmwoI2Y1dW90OGR5dmRqcmwpIiBmaWxsPSJub25lIi8+PGxpbmUgeTI9IjExNC4yOTY5IiB5MT0iMTE0LjI5NjkiIHgyPSI1MDEwIiB4MT0iNDk3MCIgc3R5bGU9InN0cm9rZTojMDAwMDAwO3N0cm9rZS13aWR0aDoxLjU7Ii8+PHRleHQgeT0iMTA2Ljk5NTEiIHg9IjQ5NzQiIHRleHRMZW5ndGg9IjI3IiBsZW5ndGhBZGp1c3Q9InNwYWNpbmciIGZvbnQtd2VpZ2h0PSJib2xkIiBmb250LXNpemU9IjE0IiBmb250LWZhbWlseT0ic2Fucy1zZXJpZiIgZmlsbD0iIzAwMDAwMCI+cm1pPC90ZXh0PjwvZz48ZyBpZD0iY2x1c3Rlcl9zZXJ2ZXIiPjxwb2x5Z29uIHN0eWxlPSJzdHJva2U6IzAwMDAwMDtzdHJva2Utd2lkdGg6MS41OyIgcG9pbnRzPSI0OTk0LDEzNSw1MDUwLDEzNSw1MDU3LDE1Ny4yOTY5LDUyMTgsMTU3LjI5NjksNTIxOCwyMzQsNDk5NCwyMzQsNDk5NCwxMzUiIGZpbHRlcj0idXJsKCNmNXVvdDhkeXZkanJsKSIgZmlsbD0ibm9uZSIvPjxsaW5lIHkyPSIxNTcuMjk2OSIgeTE9IjE1Ny4yOTY5IiB4Mj0iNTA1NyIgeDE9IjQ5OTQiIHN0eWxlPSJzdHJva2U6IzAwMDAwMDtzdHJva2Utd2lkdGg6MS41OyIvPjx0ZXh0IHk9IjE0OS45OTUxIiB4PSI0OTk4IiB0ZXh0TGVuZ3RoPSI1MCIgbGVuZ3RoQWRqdXN0PSJzcGFjaW5nIiBmb250LXdlaWdodD0iYm9sZCIgZm9udC1zaXplPSIxNCIgZm9udC1mYW1pbHk9InNhbnMtc2VyaWYiIGZpbGw9IiMwMDAwMDAiPnNlcnZlcjwvdGV4dD48L2c+PGcgaWQ9ImVsZW1fUGVyc29uYWxHb2FsQ2FyZCI+PHJlY3QgeT0iNTM5IiB4PSIzMjE3LjUiIHdpZHRoPSI0NzciIHN0eWxlPSJzdHJva2U6I0E4MDAzNjtzdHJva2Utd2lkdGg6MS4wOyIgaWQ9IlBlcnNvbmFsR29hbENhcmQiIGhlaWdodD0iMjI3LjI2NTYiIGZpbHRlcj0idXJsKCNmNXVvdDhkeXZkanJsKSIgZmlsbD0iI0ZFRkVDRSIvPjxlbGxpcHNlIHN0eWxlPSJzdHJva2U6I0E4MDAzNjtzdHJva2Utd2lkdGg6MS4wOyIgcnk9IjExIiByeD0iMTEiIGZpbGw9IiNBREQxQjIiIGN5PSI1NTUiIGN4PSIzMzg4Ljc1Ii8+PHBhdGggZmlsbD0iIzAwMDAwMCIgZD0iTTMzOTEuMDkzOCw1NTAuNjcxOSBDMzM5MC4xNTYzLDU1MC4yMzQ0IDMzODkuNTYyNSw1NTAuMDkzOCAzMzg4LjY4NzUsNTUwLjA5MzggQzMzODYuMDYyNSw1NTAuMDkzOCAzMzg0LjA2MjUsNTUyLjE3MTkgMzM4NC4wNjI1LDU1NC44OTA2IEwzMzg0LjA2MjUsNTU2LjAxNTYgQzMzODQuMDYyNSw1NTguNTkzOCAzMzg2LjE3MTksNTYwLjQ4NDQgMzM4OS4wNjI1LDU2MC40ODQ0IEMzMzkwLjI4MTMsNTYwLjQ4NDQgMzM5MS40Mzc1LDU2MC4xODc1IDMzOTIuMTg3NSw1NTkuNjQwNiBDMzM5Mi43NjU2LDU1OS4yMzQ0IDMzOTMuMDkzOCw1NTguNzgxMyAzMzkzLjA5MzgsNTU4LjM5MDYgQzMzOTMuMDkzOCw1NTcuOTM3NSAzMzkyLjcwMzEsNTU3LjU0NjkgMzM5Mi4yMzQ0LDU1Ny41NDY5IEMzMzkyLjAxNTYsNTU3LjU0NjkgMzM5MS44MTI1LDU1Ny42MjUgMzM5MS42MjUsNTU3LjgxMjUgQzMzOTEuMTcxOSw1NTguMjk2OSAzMzkxLjE3MTksNTU4LjI5NjkgMzM5MC45ODQ0LDU1OC4zOTA2IEMzMzkwLjU2MjUsNTU4LjY1NjMgMzM4OS44NzUsNTU4Ljc4MTMgMzM4OS4xMDk0LDU1OC43ODEzIEMzMzg3LjA2MjUsNTU4Ljc4MTMgMzM4NS43NjU2LDU1Ny42ODc1IDMzODUuNzY1Niw1NTUuOTg0NCBMMzM4NS43NjU2LDU1NC44OTA2IEMzMzg1Ljc2NTYsNTUzLjEwOTQgMzM4Ny4wMTU2LDU1MS43OTY5IDMzODguNzUsNTUxLjc5NjkgQzMzODkuMzI4MSw1NTEuNzk2OSAzMzg5LjkzNzUsNTUxLjk1MzEgMzM5MC40MDYzLDU1Mi4yMDMxIEMzMzkwLjg5MDYsNTUyLjQ4NDQgMzM5MS4wNjI1LDU1Mi43MDMxIDMzOTEuMTU2Myw1NTMuMTA5NCBDMzM5MS4yMTg4LDU1My41MTU2IDMzOTEuMjUsNTUzLjY0MDYgMzM5MS4zOTA2LDU1My43NjU2IEMzMzkxLjUzMTMsNTUzLjkwNjMgMzM5MS43NjU2LDU1NC4wMTU2IDMzOTEuOTg0NCw1NTQuMDE1NiBDMzM5Mi4yNSw1NTQuMDE1NiAzMzkyLjUxNTYsNTUzLjg3NSAzMzkyLjY4NzUsNTUzLjY1NjMgQzMzOTIuNzk2OSw1NTMuNSAzMzkyLjgyODEsNTUzLjMxMjUgMzM5Mi44MjgxLDU1Mi44OTA2IEwzMzkyLjgyODEsNTUxLjQ2ODggQzMzOTIuODI4MSw1NTEuMDMxMyAzMzkyLjgxMjUsNTUwLjkwNjMgMzM5Mi43MTg4LDU1MC43NSBDMzM5Mi41NjI1LDU1MC40ODQ0IDMzOTIuMjgxMyw1NTAuMzQzOCAzMzkxLjk4NDQsNTUwLjM0MzggQzMzOTEuNjg3NSw1NTAuMzQzOCAzMzkxLjQ4NDQsNTUwLjQzNzUgMzM5MS4yNjU2LDU1MC43NSBMMzM5MS4wOTM4LDU1MC42NzE5IFoiLz48dGV4dCB5PSI1NTkuODQ2NyIgeD0iMzQwOS4yNSIgdGV4dExlbmd0aD0iMTI2IiBsZW5ndGhBZGp1c3Q9InNwYWNpbmciIGZvbnQtc2l6ZT0iMTQiIGZvbnQtZmFtaWx5PSJzYW5zLXNlcmlmIiBmaWxsPSIjMDAwMDAwIj5QZXJzb25hbEdvYWxDYXJkPC90ZXh0PjxsaW5lIHkyPSI1NzEiIHkxPSI1NzEiIHgyPSIzNjkzLjUiIHgxPSIzMjE4LjUiIHN0eWxlPSJzdHJva2U6I0E4MDAzNjtzdHJva2Utd2lkdGg6MS4wOyIvPjxlbGxpcHNlIHN0eWxlPSJzdHJva2U6IzAzODA0ODtzdHJva2Utd2lkdGg6MS4wOyIgcnk9IjMiIHJ4PSIzIiBmaWxsPSJub25lIiBjeT0iNTg0LjY0ODQiIGN4PSIzMjI4LjUiLz48dGV4dCB5PSI1ODcuOTk1MSIgeD0iMzIzNy41IiB0ZXh0TGVuZ3RoPSI2MSIgdGV4dC1kZWNvcmF0aW9uPSJ1bmRlcmxpbmUiIGxlbmd0aEFkanVzdD0ic3BhY2luZyIgZm9udC1zaXplPSIxNCIgZm9udC1mYW1pbHk9InNhbnMtc2VyaWYiIGZpbGw9IiMwMDAwMDAiPmludCBMSU1JVDwvdGV4dD48cmVjdCB5PSI1OTcuOTQ1MyIgeD0iMzIyNS41IiB3aWR0aD0iNiIgc3R5bGU9InN0cm9rZTojQzgyOTMwO3N0cm9rZS13aWR0aDoxLjA7IiBoZWlnaHQ9IjYiIGZpbGw9Im5vbmUiLz48dGV4dCB5PSI2MDQuMjkyIiB4PSIzMjM3LjUiIHRleHRMZW5ndGg9IjU4IiBsZW5ndGhBZGp1c3Q9InNwYWNpbmciIGZvbnQtc2l6ZT0iMTQiIGZvbnQtZmFtaWx5PSJzYW5zLXNlcmlmIiBmaWxsPSIjMDAwMDAwIj5pbnQgdHlwZTwvdGV4dD48cmVjdCB5PSI2MTQuMjQyMiIgeD0iMzIyNS41IiB3aWR0aD0iNiIgc3R5bGU9InN0cm9rZTojQzgyOTMwO3N0cm9rZS13aWR0aDoxLjA7IiBoZWlnaHQ9IjYiIGZpbGw9Im5vbmUiLz48dGV4dCB5PSI2MjAuNTg4OSIgeD0iMzIzNy41IiB0ZXh0TGVuZ3RoPSIyODIiIGxlbmd0aEFkanVzdD0ic3BhY2luZyIgZm9udC1zaXplPSIxNCIgZm9udC1mYW1pbHk9InNhbnMtc2VyaWYiIGZpbGw9IiMwMDAwMDAiPk9wdGlvbmFsJmx0O09iamVjdENhcmRUeXBlJmd0O1tdW10gcGF0dGVybjwvdGV4dD48bGluZSB5Mj0iNjI3Ljg5MDYiIHkxPSI2MjcuODkwNiIgeDI9IjM2OTMuNSIgeDE9IjMyMTguNSIgc3R5bGU9InN0cm9rZTojQTgwMDM2O3N0cm9rZS13aWR0aDoxLjA7Ii8+PGVsbGlwc2Ugc3R5bGU9InN0cm9rZTojMDM4MDQ4O3N0cm9rZS13aWR0aDoxLjA7IiByeT0iMyIgcng9IjMiIGZpbGw9IiM4NEJFODQiIGN5PSI2NDEuNTM5MSIgY3g9IjMyMjguNSIvPjx0ZXh0IHk9IjY0NC44ODU3IiB4PSIzMjM3LjUiIHRleHRMZW5ndGg9IjIyNSIgbGVuZ3RoQWRqdXN0PSJzcGFjaW5nIiBmb250LXNpemU9IjE0IiBmb250LWZhbWlseT0ic2Fucy1zZXJpZiIgZmlsbD0iIzAwMDAwMCI+wqtDcmVhdGXCuyBQZXJzb25hbEdvYWxDYXJkKGludCk8L3RleHQ+PHJlY3QgeT0iNjU0LjgzNTkiIHg9IjMyMjUuNSIgd2lkdGg9IjYiIHN0eWxlPSJzdHJva2U6I0M4MjkzMDtzdHJva2Utd2lkdGg6MS4wOyIgaGVpZ2h0PSI2IiBmaWxsPSIjRjI0RDVDIi8+PHRleHQgeT0iNjYxLjE4MjYiIHg9IjMyMzcuNSIgdGV4dExlbmd0aD0iNDUxIiBsZW5ndGhBZGp1c3Q9InNwYWNpbmciIGZvbnQtc2l6ZT0iMTQiIGZvbnQtZmFtaWx5PSJzYW5zLXNlcmlmIiBmaWxsPSIjMDAwMDAwIj7Cq0NyZWF0ZcK7IFBlcnNvbmFsR29hbENhcmQoaW50LE9wdGlvbmFsJmx0O09iamVjdENhcmRUeXBlJmd0O1tdW10pPC90ZXh0PjxyZWN0IHk9IjY3MS4xMzI4IiB4PSIzMjI1LjUiIHdpZHRoPSI2IiBzdHlsZT0ic3Ryb2tlOiNDODI5MzA7c3Ryb2tlLXdpZHRoOjEuMDsiIGhlaWdodD0iNiIgZmlsbD0iI0YyNEQ1QyIvPjx0ZXh0IHk9IjY3Ny40Nzk1IiB4PSIzMjM3LjUiIHRleHRMZW5ndGg9IjE3MiIgbGVuZ3RoQWRqdXN0PSJzcGFjaW5nIiBmb250LXNpemU9IjE0IiBmb250LWZhbWlseT0ic2Fucy1zZXJpZiIgZmlsbD0iIzAwMDAwMCI+dm9pZCBkZWNsYXJlUGF0dGVybihpbnQpPC90ZXh0PjxlbGxpcHNlIHN0eWxlPSJzdHJva2U6IzAzODA0ODtzdHJva2Utd2lkdGg6MS4wOyIgcnk9IjMiIHJ4PSIzIiBmaWxsPSIjODRCRTg0IiBjeT0iNjkwLjQyOTciIGN4PSIzMjI4LjUiLz48dGV4dCB5PSI2OTMuNzc2NCIgeD0iMzIzNy41IiB0ZXh0TGVuZ3RoPSI5NSIgbGVuZ3RoQWRqdXN0PSJzcGFjaW5nIiBmb250LXNpemU9IjE0IiBmb250LWZhbWlseT0ic2Fucy1zZXJpZiIgZmlsbD0iIzAwMDAwMCI+aW50IGdldFR5cGUoKTwvdGV4dD48ZWxsaXBzZSBzdHlsZT0ic3Ryb2tlOiMwMzgwNDg7c3Ryb2tlLXdpZHRoOjEuMDsiIHJ5PSIzIiByeD0iMyIgZmlsbD0iIzg0QkU4NCIgY3k9IjcwNi43MjY2IiBjeD0iMzIyOC41Ii8+PHRleHQgeT0iNzEwLjA3MzIiIHg9IjMyMzcuNSIgdGV4dExlbmd0aD0iMzE2IiBsZW5ndGhBZGp1c3Q9InNwYWNpbmciIGZvbnQtc2l6ZT0iMTQiIGZvbnQtZmFtaWx5PSJzYW5zLXNlcmlmIiBmaWxsPSIjMDAwMDAwIj5PcHRpb25hbCZsdDtPYmplY3RDYXJkVHlwZSZndDtbXVtdIGdldFBhdHRlcm4oKTwvdGV4dD48ZWxsaXBzZSBzdHlsZT0ic3Ryb2tlOiMwMzgwNDg7c3Ryb2tlLXdpZHRoOjEuMDsiIHJ5PSIzIiByeD0iMyIgZmlsbD0iIzg0QkU4NCIgY3k9IjcyMy4wMjM0IiBjeD0iMzIyOC41Ii8+PHRleHQgeT0iNzI2LjM3MDEiIHg9IjMyMzcuNSIgdGV4dExlbmd0aD0iMjcxIiBsZW5ndGhBZGp1c3Q9InNwYWNpbmciIGZvbnQtc2l6ZT0iMTQiIGZvbnQtZmFtaWx5PSJzYW5zLXNlcmlmIiBmaWxsPSIjMDAwMDAwIj5PYmplY3RDYXJkVHlwZSBnZXRQbGFpblR5cGUoaW50LGludCk8L3RleHQ+PGVsbGlwc2Ugc3R5bGU9InN0cm9rZTojMDM4MDQ4O3N0cm9rZS13aWR0aDoxLjA7IiByeT0iMyIgcng9IjMiIGZpbGw9IiM4NEJFODQiIGN5PSI3MzkuMzIwMyIgY3g9IjMyMjguNSIvPjx0ZXh0IHk9Ijc0Mi42NjciIHg9IjMyMzcuNSIgdGV4dExlbmd0aD0iMTU0IiBsZW5ndGhBZGp1c3Q9InNwYWNpbmciIGZvbnQtc2l6ZT0iMTQiIGZvbnQtZmFtaWx5PSJzYW5zLXNlcmlmIiBmaWxsPSIjMDAwMDAwIj5pbnQgZ2V0T3JkaW5hbChpbnQsaW50KTwvdGV4dD48ZWxsaXBzZSBzdHlsZT0ic3Ryb2tlOiMwMzgwNDg7c3Ryb2tlLXdpZHRoOjEuMDsiIHJ5PSIzIiByeD0iMyIgZmlsbD0iIzg0QkU4NCIgY3k9Ijc1NS42MTcyIiBjeD0iMzIyOC41Ii8+PHRleHQgeT0iNzU4Ljk2MzkiIHg9IjMyMzcuNSIgdGV4dExlbmd0aD0iMjAyIiBsZW5ndGhBZGp1c3Q9InNwYWNpbmciIGZvbnQtc2l6ZT0iMTQiIGZvbnQtZmFtaWx5PSJzYW5zLXNlcmlmIiBmaWxsPSIjMDAwMDAwIj5QZXJzb25hbEdvYWxDYXJkIGdldENvcHkoKTwvdGV4dD48L2c+PGcgaWQ9ImVsZW1fT2JqZWN0Q2FyZCI+PHJlY3QgeT0iNTU1IiB4PSIxMTI1LjUiIHdpZHRoPSIzMTciIHN0eWxlPSJzdHJva2U6I0E4MDAzNjtzdHJva2Utd2lkdGg6MS4wOyIgaWQ9Ik9iamVjdENhcmQiIGhlaWdodD0iMTk0LjY3MTkiIGZpbHRlcj0idXJsKCNmNXVvdDhkeXZkanJsKSIgZmlsbD0iI0ZFRkVDRSIvPjxlbGxpcHNlIHN0eWxlPSJzdHJva2U6I0E4MDAzNjtzdHJva2Utd2lkdGg6MS4wOyIgcnk9IjExIiByeD0iMTEiIGZpbGw9IiNBREQxQjIiIGN5PSI1NzEiIGN4PSIxMjM4Ljc1Ii8+PHBhdGggZmlsbD0iIzAwMDAwMCIgZD0iTTEyNDEuMDkzOCw1NjYuNjcxOSBDMTI0MC4xNTYzLDU2Ni4yMzQ0IDEyMzkuNTYyNSw1NjYuMDkzOCAxMjM4LjY4NzUsNTY2LjA5MzggQzEyMzYuMDYyNSw1NjYuMDkzOCAxMjM0LjA2MjUsNTY4LjE3MTkgMTIzNC4wNjI1LDU3MC44OTA2IEwxMjM0LjA2MjUsNTcyLjAxNTYgQzEyMzQuMDYyNSw1NzQuNTkzOCAxMjM2LjE3MTksNTc2LjQ4NDQgMTIzOS4wNjI1LDU3Ni40ODQ0IEMxMjQwLjI4MTMsNTc2LjQ4NDQgMTI0MS40Mzc1LDU3Ni4xODc1IDEyNDIuMTg3NSw1NzUuNjQwNiBDMTI0Mi43NjU2LDU3NS4yMzQ0IDEyNDMuMDkzOCw1NzQuNzgxMyAxMjQzLjA5MzgsNTc0LjM5MDYgQzEyNDMuMDkzOCw1NzMuOTM3NSAxMjQyLjcwMzEsNTczLjU0NjkgMTI0Mi4yMzQ0LDU3My41NDY5IEMxMjQyLjAxNTYsNTczLjU0NjkgMTI0MS44MTI1LDU3My42MjUgMTI0MS42MjUsNTczLjgxMjUgQzEyNDEuMTcxOSw1NzQuMjk2OSAxMjQxLjE3MTksNTc0LjI5NjkgMTI0MC45ODQ0LDU3NC4zOTA2IEMxMjQwLjU2MjUsNTc0LjY1NjMgMTIzOS44NzUsNTc0Ljc4MTMgMTIzOS4xMDk0LDU3NC43ODEzIEMxMjM3LjA2MjUsNTc0Ljc4MTMgMTIzNS43NjU2LDU3My42ODc1IDEyMzUuNzY1Niw1NzEuOTg0NCBMMTIzNS43NjU2LDU3MC44OTA2IEMxMjM1Ljc2NTYsNTY5LjEwOTQgMTIzNy4wMTU2LDU2Ny43OTY5IDEyMzguNzUsNTY3Ljc5NjkgQzEyMzkuMzI4MSw1NjcuNzk2OSAxMjM5LjkzNzUsNTY3Ljk1MzEgMTI0MC40MDYzLDU2OC4yMDMxIEMxMjQwLjg5MDYsNTY4LjQ4NDQgMTI0MS4wNjI1LDU2OC43MDMxIDEyNDEuMTU2Myw1NjkuMTA5NCBDMTI0MS4yMTg4LDU2OS41MTU2IDEyNDEuMjUsNTY5LjY0MDYgMTI0MS4zOTA2LDU2OS43NjU2IEMxMjQxLjUzMTMsNTY5LjkwNjMgMTI0MS43NjU2LDU3MC4wMTU2IDEyNDEuOTg0NCw1NzAuMDE1NiBDMTI0Mi4yNSw1NzAuMDE1NiAxMjQyLjUxNTYsNTY5Ljg3NSAxMjQyLjY4NzUsNTY5LjY1NjMgQzEyNDIuNzk2OSw1NjkuNSAxMjQyLjgyODEsNTY5LjMxMjUgMTI0Mi44MjgxLDU2OC44OTA2IEwxMjQyLjgyODEsNTY3LjQ2ODggQzEyNDIuODI4MSw1NjcuMDMxMyAxMjQyLjgxMjUsNTY2LjkwNjMgMTI0Mi43MTg4LDU2Ni43NSBDMTI0Mi41NjI1LDU2Ni40ODQ0IDEyNDIuMjgxMyw1NjYuMzQzOCAxMjQxLjk4NDQsNTY2LjM0MzggQzEyNDEuNjg3NSw1NjYuMzQzOCAxMjQxLjQ4NDQsNTY2LjQzNzUgMTI0MS4yNjU2LDU2Ni43NSBMMTI0MS4wOTM4LDU2Ni42NzE5IFoiLz48dGV4dCB5PSI1NzUuODQ2NyIgeD0iMTI1OS4yNSIgdGV4dExlbmd0aD0iODIiIGxlbmd0aEFkanVzdD0ic3BhY2luZyIgZm9udC1zaXplPSIxNCIgZm9udC1mYW1pbHk9InNhbnMtc2VyaWYiIGZpbGw9IiMwMDAwMDAiPk9iamVjdENhcmQ8L3RleHQ+PGxpbmUgeTI9IjU4NyIgeTE9IjU4NyIgeDI9IjE0NDEuNSIgeDE9IjExMjYuNSIgc3R5bGU9InN0cm9rZTojQTgwMDM2O3N0cm9rZS13aWR0aDoxLjA7Ii8+PGVsbGlwc2Ugc3R5bGU9InN0cm9rZTojMDM4MDQ4O3N0cm9rZS13aWR0aDoxLjA7IiByeT0iMyIgcng9IjMiIGZpbGw9Im5vbmUiIGN5PSI2MDAuNjQ4NCIgY3g9IjExMzYuNSIvPjx0ZXh0IHk9IjYwMy45OTUxIiB4PSIxMTQ1LjUiIHRleHRMZW5ndGg9IjYxIiB0ZXh0LWRlY29yYXRpb249InVuZGVybGluZSIgbGVuZ3RoQWRqdXN0PSJzcGFjaW5nIiBmb250LXNpemU9IjE0IiBmb250LWZhbWlseT0ic2Fucy1zZXJpZiIgZmlsbD0iIzAwMDAwMCI+aW50IExJTUlUPC90ZXh0PjxyZWN0IHk9IjYxMy45NDUzIiB4PSIxMTMzLjUiIHdpZHRoPSI2IiBzdHlsZT0ic3Ryb2tlOiNDODI5MzA7c3Ryb2tlLXdpZHRoOjEuMDsiIGhlaWdodD0iNiIgZmlsbD0ibm9uZSIvPjx0ZXh0IHk9IjYyMC4yOTIiIHg9IjExNDUuNSIgdGV4dExlbmd0aD0iMTA2IiB0ZXh0LWRlY29yYXRpb249InVuZGVybGluZSIgbGVuZ3RoQWRqdXN0PSJzcGFjaW5nIiBmb250LXNpemU9IjE0IiBmb250LWZhbWlseT0ic2Fucy1zZXJpZiIgZmlsbD0iIzAwMDAwMCI+aW50IFRZUEVTTElNSVQ8L3RleHQ+PHJlY3QgeT0iNjMwLjI0MjIiIHg9IjExMzMuNSIgd2lkdGg9IjYiIHN0eWxlPSJzdHJva2U6I0M4MjkzMDtzdHJva2Utd2lkdGg6MS4wOyIgaGVpZ2h0PSI2IiBmaWxsPSJub25lIi8+PHRleHQgeT0iNjM2LjU4ODkiIHg9IjExNDUuNSIgdGV4dExlbmd0aD0iMTE2IiB0ZXh0LWRlY29yYXRpb249InVuZGVybGluZSIgbGVuZ3RoQWRqdXN0PSJzcGFjaW5nIiBmb250LXNpemU9IjE0IiBmb250LWZhbWlseT0ic2Fucy1zZXJpZiIgZmlsbD0iIzAwMDAwMCI+aW50IElNQUdFU0xJTUlUPC90ZXh0PjxyZWN0IHk9IjY0Ni41MzkxIiB4PSIxMTMzLjUiIHdpZHRoPSI2IiBzdHlsZT0ic3Ryb2tlOiNDODI5MzA7c3Ryb2tlLXdpZHRoOjEuMDsiIGhlaWdodD0iNiIgZmlsbD0ibm9uZSIvPjx0ZXh0IHk9IjY1Mi44ODU3IiB4PSIxMTQ1LjUiIHRleHRMZW5ndGg9IjE1NiIgbGVuZ3RoQWRqdXN0PSJzcGFjaW5nIiBmb250LXNpemU9IjE0IiBmb250LWZhbWlseT0ic2Fucy1zZXJpZiIgZmlsbD0iIzAwMDAwMCI+T2JqZWN0Q2FyZFR5cGUgdHlwZTwvdGV4dD48cmVjdCB5PSI2NjIuODM1OSIgeD0iMTEzMy41IiB3aWR0aD0iNiIgc3R5bGU9InN0cm9rZTojQzgyOTMwO3N0cm9rZS13aWR0aDoxLjA7IiBoZWlnaHQ9IjYiIGZpbGw9Im5vbmUiLz48dGV4dCB5PSI2NjkuMTgyNiIgeD0iMTE0NS41IiB0ZXh0TGVuZ3RoPSI2OCIgbGVuZ3RoQWRqdXN0PSJzcGFjaW5nIiBmb250LXNpemU9IjE0IiBmb250LWZhbWlseT0ic2Fucy1zZXJpZiIgZmlsbD0iIzAwMDAwMCI+aW50IGltYWdlPC90ZXh0PjxsaW5lIHkyPSI2NzYuNDg0NCIgeTE9IjY3Ni40ODQ0IiB4Mj0iMTQ0MS41IiB4MT0iMTEyNi41IiBzdHlsZT0ic3Ryb2tlOiNBODAwMzY7c3Ryb2tlLXdpZHRoOjEuMDsiLz48cG9seWdvbiBzdHlsZT0ic3Ryb2tlOiMxOTYzQTA7c3Ryb2tlLXdpZHRoOjEuMDsiIHBvaW50cz0iMTEzNi41LDY4Ni4xMzI4LDExMzIuNSw2OTIuMTMyOCwxMTQwLjUsNjkyLjEzMjgiIGZpbGw9IiM0MTc3QUYiLz48dGV4dCB5PSI2OTMuNDc5NSIgeD0iMTE0NS41IiB0ZXh0TGVuZ3RoPSIyOTEiIGxlbmd0aEFkanVzdD0ic3BhY2luZyIgZm9udC1zaXplPSIxNCIgZm9udC1mYW1pbHk9InNhbnMtc2VyaWYiIGZpbGw9IiMwMDAwMDAiPsKrQ3JlYXRlwrsgT2JqZWN0Q2FyZChMaXN0Jmx0O09iamVjdENhcmQmZ3Q7KTwvdGV4dD48cG9seWdvbiBzdHlsZT0ic3Ryb2tlOiMxOTYzQTA7c3Ryb2tlLXdpZHRoOjEuMDsiIHBvaW50cz0iMTEzNi41LDcwMi40Mjk3LDExMzIuNSw3MDguNDI5NywxMTQwLjUsNzA4LjQyOTciIGZpbGw9IiM0MTc3QUYiLz48dGV4dCB5PSI3MDkuNzc2NCIgeD0iMTE0NS41IiB0ZXh0TGVuZ3RoPSIyNzkiIGxlbmd0aEFkanVzdD0ic3BhY2luZyIgZm9udC1zaXplPSIxNCIgZm9udC1mYW1pbHk9InNhbnMtc2VyaWYiIGZpbGw9IiMwMDAwMDAiPsKrQ3JlYXRlwrsgT2JqZWN0Q2FyZChPYmplY3RDYXJkVHlwZSk8L3RleHQ+PGVsbGlwc2Ugc3R5bGU9InN0cm9rZTojMDM4MDQ4O3N0cm9rZS13aWR0aDoxLjA7IiByeT0iMyIgcng9IjMiIGZpbGw9IiM4NEJFODQiIGN5PSI3MjIuNzI2NiIgY3g9IjExMzYuNSIvPjx0ZXh0IHk9IjcyNi4wNzMyIiB4PSIxMTQ1LjUiIHRleHRMZW5ndGg9IjE5MyIgbGVuZ3RoQWRqdXN0PSJzcGFjaW5nIiBmb250LXNpemU9IjE0IiBmb250LWZhbWlseT0ic2Fucy1zZXJpZiIgZmlsbD0iIzAwMDAwMCI+T2JqZWN0Q2FyZFR5cGUgZ2V0VHlwZSgpPC90ZXh0PjxlbGxpcHNlIHN0eWxlPSJzdHJva2U6IzAzODA0ODtzdHJva2Utd2lkdGg6MS4wOyIgcnk9IjMiIHJ4PSIzIiBmaWxsPSIjODRCRTg0IiBjeT0iNzM5LjAyMzQiIGN4PSIxMTM2LjUiLz48dGV4dCB5PSI3NDIuMzcwMSIgeD0iMTE0NS41IiB0ZXh0TGVuZ3RoPSIxMDMiIGxlbmd0aEFkanVzdD0ic3BhY2luZyIgZm9udC1zaXplPSIxNCIgZm9udC1mYW1pbHk9InNhbnMtc2VyaWYiIGZpbGw9IiMwMDAwMDAiPmludCBnZXRJbWFnZSgpPC90ZXh0PjwvZz48ZyBpZD0iZWxlbV9TY29yZUNhcmQiPjxyZWN0IHk9IjU5NiIgeD0iMjk4My41IiB3aWR0aD0iMTk5IiBzdHlsZT0ic3Ryb2tlOiNBODAwMzY7c3Ryb2tlLXdpZHRoOjEuMDsiIGlkPSJTY29yZUNhcmQiIGhlaWdodD0iMTEzLjE4NzUiIGZpbHRlcj0idXJsKCNmNXVvdDhkeXZkanJsKSIgZmlsbD0iI0ZFRkVDRSIvPjxlbGxpcHNlIHN0eWxlPSJzdHJva2U6I0E4MDAzNjtzdHJva2Utd2lkdGg6MS4wOyIgcnk9IjExIiByeD0iMTEiIGZpbGw9IiNBREQxQjIiIGN5PSI2MTIiIGN4PSIzMDQxLjc1Ii8+PHBhdGggZmlsbD0iIzAwMDAwMCIgZD0iTTMwNDQuMDkzOCw2MDcuNjcxOSBDMzA0My4xNTYzLDYwNy4yMzQ0IDMwNDIuNTYyNSw2MDcuMDkzOCAzMDQxLjY4NzUsNjA3LjA5MzggQzMwMzkuMDYyNSw2MDcuMDkzOCAzMDM3LjA2MjUsNjA5LjE3MTkgMzAzNy4wNjI1LDYxMS44OTA2IEwzMDM3LjA2MjUsNjEzLjAxNTYgQzMwMzcuMDYyNSw2MTUuNTkzOCAzMDM5LjE3MTksNjE3LjQ4NDQgMzA0Mi4wNjI1LDYxNy40ODQ0IEMzMDQzLjI4MTMsNjE3LjQ4NDQgMzA0NC40Mzc1LDYxNy4xODc1IDMwNDUuMTg3NSw2MTYuNjQwNiBDMzA0NS43NjU2LDYxNi4yMzQ0IDMwNDYuMDkzOCw2MTUuNzgxMyAzMDQ2LjA5MzgsNjE1LjM5MDYgQzMwNDYuMDkzOCw2MTQuOTM3NSAzMDQ1LjcwMzEsNjE0LjU0NjkgMzA0NS4yMzQ0LDYxNC41NDY5IEMzMDQ1LjAxNTYsNjE0LjU0NjkgMzA0NC44MTI1LDYxNC42MjUgMzA0NC42MjUsNjE0LjgxMjUgQzMwNDQuMTcxOSw2MTUuMjk2OSAzMDQ0LjE3MTksNjE1LjI5NjkgMzA0My45ODQ0LDYxNS4zOTA2IEMzMDQzLjU2MjUsNjE1LjY1NjMgMzA0Mi44NzUsNjE1Ljc4MTMgMzA0Mi4xMDk0LDYxNS43ODEzIEMzMDQwLjA2MjUsNjE1Ljc4MTMgMzAzOC43NjU2LDYxNC42ODc1IDMwMzguNzY1Niw2MTIuOTg0NCBMMzAzOC43NjU2LDYxMS44OTA2IEMzMDM4Ljc2NTYsNjEwLjEwOTQgMzA0MC4wMTU2LDYwOC43OTY5IDMwNDEuNzUsNjA4Ljc5NjkgQzMwNDIuMzI4MSw2MDguNzk2OSAzMDQyLjkzNzUsNjA4Ljk1MzEgMzA0My40MDYzLDYwOS4yMDMxIEMzMDQzLjg5MDYsNjA5LjQ4NDQgMzA0NC4wNjI1LDYwOS43MDMxIDMwNDQuMTU2Myw2MTAuMTA5NCBDMzA0NC4yMTg4LDYxMC41MTU2IDMwNDQuMjUsNjEwLjY0MDYgMzA0NC4zOTA2LDYxMC43NjU2IEMzMDQ0LjUzMTMsNjEwLjkwNjMgMzA0NC43NjU2LDYxMS4wMTU2IDMwNDQuOTg0NCw2MTEuMDE1NiBDMzA0NS4yNSw2MTEuMDE1NiAzMDQ1LjUxNTYsNjEwLjg3NSAzMDQ1LjY4NzUsNjEwLjY1NjMgQzMwNDUuNzk2OSw2MTAuNSAzMDQ1LjgyODEsNjEwLjMxMjUgMzA0NS44MjgxLDYwOS44OTA2IEwzMDQ1LjgyODEsNjA4LjQ2ODggQzMwNDUuODI4MSw2MDguMDMxMyAzMDQ1LjgxMjUsNjA3LjkwNjMgMzA0NS43MTg4LDYwNy43NSBDMzA0NS41NjI1LDYwNy40ODQ0IDMwNDUuMjgxMyw2MDcuMzQzOCAzMDQ0Ljk4NDQsNjA3LjM0MzggQzMwNDQuNjg3NSw2MDcuMzQzOCAzMDQ0LjQ4NDQsNjA3LjQzNzUgMzA0NC4yNjU2LDYwNy43NSBMMzA0NC4wOTM4LDYwNy42NzE5IFoiLz48dGV4dCB5PSI2MTYuODQ2NyIgeD0iMzA2Mi4yNSIgdGV4dExlbmd0aD0iNzQiIGxlbmd0aEFkanVzdD0ic3BhY2luZyIgZm9udC1zaXplPSIxNCIgZm9udC1mYW1pbHk9InNhbnMtc2VyaWYiIGZpbGw9IiMwMDAwMDAiPlNjb3JlQ2FyZDwvdGV4dD48bGluZSB5Mj0iNjI4IiB5MT0iNjI4IiB4Mj0iMzE4MS41IiB4MT0iMjk4NC41IiBzdHlsZT0ic3Ryb2tlOiNBODAwMzY7c3Ryb2tlLXdpZHRoOjEuMDsiLz48cG9seWdvbiBzdHlsZT0ic3Ryb2tlOiMxOTYzQTA7c3Ryb2tlLXdpZHRoOjEuMDsiIHBvaW50cz0iMjk5NC41LDYzNy42NDg0LDI5OTAuNSw2NDMuNjQ4NCwyOTk4LjUsNjQzLjY0ODQiIGZpbGw9Im5vbmUiLz48dGV4dCB5PSI2NDQuOTk1MSIgeD0iMzAwMy41IiB0ZXh0TGVuZ3RoPSI2MSIgbGVuZ3RoQWRqdXN0PSJzcGFjaW5nIiBmb250LXNpemU9IjE0IiBmb250LWZhbWlseT0ic2Fucy1zZXJpZiIgZmlsbD0iIzAwMDAwMCI+aW50IHZhbHVlPC90ZXh0PjxsaW5lIHkyPSI2NTIuMjk2OSIgeTE9IjY1Mi4yOTY5IiB4Mj0iMzE4MS41IiB4MT0iMjk4NC41IiBzdHlsZT0ic3Ryb2tlOiNBODAwMzY7c3Ryb2tlLXdpZHRoOjEuMDsiLz48ZWxsaXBzZSBzdHlsZT0ic3Ryb2tlOiMwMzgwNDg7c3Ryb2tlLXdpZHRoOjEuMDsiIHJ5PSIzIiByeD0iMyIgZmlsbD0iIzg0QkU4NCIgY3k9IjY2NS45NDUzIiBjeD0iMjk5NC41Ii8+PHRleHQgeT0iNjY5LjI5MiIgeD0iMzAwMy41IiB0ZXh0TGVuZ3RoPSIxNzMiIGxlbmd0aEFkanVzdD0ic3BhY2luZyIgZm9udC1zaXplPSIxNCIgZm9udC1mYW1pbHk9InNhbnMtc2VyaWYiIGZpbGw9IiMwMDAwMDAiPsKrQ3JlYXRlwrsgU2NvcmVDYXJkKGludCk8L3RleHQ+PGVsbGlwc2Ugc3R5bGU9InN0cm9rZTojMDM4MDQ4O3N0cm9rZS13aWR0aDoxLjA7IiByeT0iMyIgcng9IjMiIGZpbGw9IiM4NEJFODQiIGN5PSI2ODIuMjQyMiIgY3g9IjI5OTQuNSIvPjx0ZXh0IHk9IjY4NS41ODg5IiB4PSIzMDAzLjUiIHRleHRMZW5ndGg9Ijk4IiBsZW5ndGhBZGp1c3Q9InNwYWNpbmciIGZvbnQtc2l6ZT0iMTQiIGZvbnQtZmFtaWx5PSJzYW5zLXNlcmlmIiBmaWxsPSIjMDAwMDAwIj5pbnQgZ2V0VmFsdWUoKTwvdGV4dD48ZWxsaXBzZSBzdHlsZT0ic3Ryb2tlOiMwMzgwNDg7c3Ryb2tlLXdpZHRoOjEuMDsiIHJ5PSIzIiByeD0iMyIgZmlsbD0iIzg0QkU4NCIgY3k9IjY5OC41MzkxIiBjeD0iMjk5NC41Ii8+PHRleHQgeT0iNzAxLjg4NTciIHg9IjMwMDMuNSIgdGV4dExlbmd0aD0iMTUwIiBsZW5ndGhBZGp1c3Q9InNwYWNpbmciIGZvbnQtc2l6ZT0iMTQiIGZvbnQtZmFtaWx5PSJzYW5zLXNlcmlmIiBmaWxsPSIjMDAwMDAwIj5TY29yZUNhcmQgZ2V0Q29weSgpPC90ZXh0PjwvZz48ZyBpZD0iZWxlbV9Cb2FyZCI+PHJlY3QgeT0iNDA4LjUiIHg9IjIzMzMuNSIgd2lkdGg9IjYxNSIgc3R5bGU9InN0cm9rZTojQTgwMDM2O3N0cm9rZS13aWR0aDoxLjA7IiBpZD0iQm9hcmQiIGhlaWdodD0iNDg4LjAxNTYiIGZpbHRlcj0idXJsKCNmNXVvdDhkeXZkanJsKSIgZmlsbD0iI0ZFRkVDRSIvPjxlbGxpcHNlIHN0eWxlPSJzdHJva2U6I0E4MDAzNjtzdHJva2Utd2lkdGg6MS4wOyIgcnk9IjExIiByeD0iMTEiIGZpbGw9IiNBREQxQjIiIGN5PSI0MjQuNSIgY3g9IjI2MTUuNzUiLz48cGF0aCBmaWxsPSIjMDAwMDAwIiBkPSJNMjYxOC4wOTM4LDQyMC4xNzE5IEMyNjE3LjE1NjMsNDE5LjczNDQgMjYxNi41NjI1LDQxOS41OTM4IDI2MTUuNjg3NSw0MTkuNTkzOCBDMjYxMy4wNjI1LDQxOS41OTM4IDI2MTEuMDYyNSw0MjEuNjcxOSAyNjExLjA2MjUsNDI0LjM5MDYgTDI2MTEuMDYyNSw0MjUuNTE1NiBDMjYxMS4wNjI1LDQyOC4wOTM4IDI2MTMuMTcxOSw0MjkuOTg0NCAyNjE2LjA2MjUsNDI5Ljk4NDQgQzI2MTcuMjgxMyw0MjkuOTg0NCAyNjE4LjQzNzUsNDI5LjY4NzUgMjYxOS4xODc1LDQyOS4xNDA2IEMyNjE5Ljc2NTYsNDI4LjczNDQgMjYyMC4wOTM4LDQyOC4yODEzIDI2MjAuMDkzOCw0MjcuODkwNiBDMjYyMC4wOTM4LDQyNy40Mzc1IDI2MTkuNzAzMSw0MjcuMDQ2OSAyNjE5LjIzNDQsNDI3LjA0NjkgQzI2MTkuMDE1Niw0MjcuMDQ2OSAyNjE4LjgxMjUsNDI3LjEyNSAyNjE4LjYyNSw0MjcuMzEyNSBDMjYxOC4xNzE5LDQyNy43OTY5IDI2MTguMTcxOSw0MjcuNzk2OSAyNjE3Ljk4NDQsNDI3Ljg5MDYgQzI2MTcuNTYyNSw0MjguMTU2MyAyNjE2Ljg3NSw0MjguMjgxMyAyNjE2LjEwOTQsNDI4LjI4MTMgQzI2MTQuMDYyNSw0MjguMjgxMyAyNjEyLjc2NTYsNDI3LjE4NzUgMjYxMi43NjU2LDQyNS40ODQ0IEwyNjEyLjc2NTYsNDI0LjM5MDYgQzI2MTIuNzY1Niw0MjIuNjA5NCAyNjE0LjAxNTYsNDIxLjI5NjkgMjYxNS43NSw0MjEuMjk2OSBDMjYxNi4zMjgxLDQyMS4yOTY5IDI2MTYuOTM3NSw0MjEuNDUzMSAyNjE3LjQwNjMsNDIxLjcwMzEgQzI2MTcuODkwNiw0MjEuOTg0NCAyNjE4LjA2MjUsNDIyLjIwMzEgMjYxOC4xNTYzLDQyMi42MDk0IEMyNjE4LjIxODgsNDIzLjAxNTYgMjYxOC4yNSw0MjMuMTQwNiAyNjE4LjM5MDYsNDIzLjI2NTYgQzI2MTguNTMxMyw0MjMuNDA2MyAyNjE4Ljc2NTYsNDIzLjUxNTYgMjYxOC45ODQ0LDQyMy41MTU2IEMyNjE5LjI1LDQyMy41MTU2IDI2MTkuNTE1Niw0MjMuMzc1IDI2MTkuNjg3NSw0MjMuMTU2MyBDMjYxOS43OTY5LDQyMyAyNjE5LjgyODEsNDIyLjgxMjUgMjYxOS44MjgxLDQyMi4zOTA2IEwyNjE5LjgyODEsNDIwLjk2ODggQzI2MTkuODI4MSw0MjAuNTMxMyAyNjE5LjgxMjUsNDIwLjQwNjMgMjYxOS43MTg4LDQyMC4yNSBDMjYxOS41NjI1LDQxOS45ODQ0IDI2MTkuMjgxMyw0MTkuODQzOCAyNjE4Ljk4NDQsNDE5Ljg0MzggQzI2MTguNjg3NSw0MTkuODQzOCAyNjE4LjQ4NDQsNDE5LjkzNzUgMjYxOC4yNjU2LDQyMC4yNSBMMjYxOC4wOTM4LDQyMC4xNzE5IFoiLz48dGV4dCB5PSI0MjkuMzQ2NyIgeD0iMjYzNi4yNSIgdGV4dExlbmd0aD0iNDIiIGxlbmd0aEFkanVzdD0ic3BhY2luZyIgZm9udC1zaXplPSIxNCIgZm9udC1mYW1pbHk9InNhbnMtc2VyaWYiIGZpbGw9IiMwMDAwMDAiPkJvYXJkPC90ZXh0PjxsaW5lIHkyPSI0NDAuNSIgeTE9IjQ0MC41IiB4Mj0iMjk0Ny41IiB4MT0iMjMzNC41IiBzdHlsZT0ic3Ryb2tlOiNBODAwMzY7c3Ryb2tlLXdpZHRoOjEuMDsiLz48ZWxsaXBzZSBzdHlsZT0ic3Ryb2tlOiMwMzgwNDg7c3Ryb2tlLXdpZHRoOjEuMDsiIHJ5PSIzIiByeD0iMyIgZmlsbD0ibm9uZSIgY3k9IjQ1NC4xNDg0IiBjeD0iMjM0NC41Ii8+PHRleHQgeT0iNDU3LjQ5NTEiIHg9IjIzNTMuNSIgdGV4dExlbmd0aD0iMTI3IiB0ZXh0LWRlY29yYXRpb249InVuZGVybGluZSIgbGVuZ3RoQWRqdXN0PSJzcGFjaW5nIiBmb250LXNpemU9IjE0IiBmb250LWZhbWlseT0ic2Fucy1zZXJpZiIgZmlsbD0iIzAwMDAwMCI+aW50IEJPQVJEX0RJTV9YPC90ZXh0PjxlbGxpcHNlIHN0eWxlPSJzdHJva2U6IzAzODA0ODtzdHJva2Utd2lkdGg6MS4wOyIgcnk9IjMiIHJ4PSIzIiBmaWxsPSJub25lIiBjeT0iNDcwLjQ0NTMiIGN4PSIyMzQ0LjUiLz48dGV4dCB5PSI0NzMuNzkyIiB4PSIyMzUzLjUiIHRleHRMZW5ndGg9IjEyNiIgdGV4dC1kZWNvcmF0aW9uPSJ1bmRlcmxpbmUiIGxlbmd0aEFkanVzdD0ic3BhY2luZyIgZm9udC1zaXplPSIxNCIgZm9udC1mYW1pbHk9InNhbnMtc2VyaWYiIGZpbGw9IiMwMDAwMDAiPmludCBCT0FSRF9ESU1fWTwvdGV4dD48cmVjdCB5PSI0ODMuNzQyMiIgeD0iMjM0MS41IiB3aWR0aD0iNiIgc3R5bGU9InN0cm9rZTojQzgyOTMwO3N0cm9rZS13aWR0aDoxLjA7IiBoZWlnaHQ9IjYiIGZpbGw9Im5vbmUiLz48dGV4dCB5PSI0OTAuMDg4OSIgeD0iMjM1My41IiB0ZXh0TGVuZ3RoPSIxMTQiIGxlbmd0aEFkanVzdD0ic3BhY2luZyIgZm9udC1zaXplPSIxNCIgZm9udC1mYW1pbHk9InNhbnMtc2VyaWYiIGZpbGw9IiMwMDAwMDAiPmludCBNSU5QTEFZRVJTPC90ZXh0PjxyZWN0IHk9IjUwMC4wMzkxIiB4PSIyMzQxLjUiIHdpZHRoPSI2IiBzdHlsZT0ic3Ryb2tlOiNDODI5MzA7c3Ryb2tlLXdpZHRoOjEuMDsiIGhlaWdodD0iNiIgZmlsbD0ibm9uZSIvPjx0ZXh0IHk9IjUwNi4zODU3IiB4PSIyMzUzLjUiIHRleHRMZW5ndGg9IjEyMCIgbGVuZ3RoQWRqdXN0PSJzcGFjaW5nIiBmb250LXNpemU9IjE0IiBmb250LWZhbWlseT0ic2Fucy1zZXJpZiIgZmlsbD0iIzAwMDAwMCI+aW50IE1BWFBMQVlFUlM8L3RleHQ+PHJlY3QgeT0iNTE2LjMzNTkiIHg9IjIzNDEuNSIgd2lkdGg9IjYiIHN0eWxlPSJzdHJva2U6I0M4MjkzMDtzdHJva2Utd2lkdGg6MS4wOyIgaGVpZ2h0PSI2IiBmaWxsPSJub25lIi8+PHRleHQgeT0iNTIyLjY4MjYiIHg9IjIzNTMuNSIgdGV4dExlbmd0aD0iMTU5IiBsZW5ndGhBZGp1c3Q9InNwYWNpbmciIGZvbnQtc2l6ZT0iMTQiIGZvbnQtZmFtaWx5PSJzYW5zLXNlcmlmIiBmaWxsPSIjMDAwMDAwIj5Cb2FyZFNwYWNlW11bXSBzcGFjZXM8L3RleHQ+PHJlY3QgeT0iNTMyLjYzMjgiIHg9IjIzNDEuNSIgd2lkdGg9IjYiIHN0eWxlPSJzdHJva2U6I0M4MjkzMDtzdHJva2Utd2lkdGg6MS4wOyIgaGVpZ2h0PSI2IiBmaWxsPSJub25lIi8+PHRleHQgeT0iNTM4Ljk3OTUiIHg9IjIzNTMuNSIgdGV4dExlbmd0aD0iMjIxIiBsZW5ndGhBZGp1c3Q9InNwYWNpbmciIGZvbnQtc2l6ZT0iMTQiIGZvbnQtZmFtaWx5PSJzYW5zLXNlcmlmIiBmaWxsPSIjMDAwMDAwIj5MaXN0Jmx0O09iamVjdENhcmQmZ3Q7IG9iamVjdENhcmRzPC90ZXh0PjxyZWN0IHk9IjU0OC45Mjk3IiB4PSIyMzQxLjUiIHdpZHRoPSI2IiBzdHlsZT0ic3Ryb2tlOiNDODI5MzA7c3Ryb2tlLXdpZHRoOjEuMDsiIGhlaWdodD0iNiIgZmlsbD0ibm9uZSIvPjx0ZXh0IHk9IjU1NS4yNzY0IiB4PSIyMzUzLjUiIHRleHRMZW5ndGg9IjI5OCIgbGVuZ3RoQWRqdXN0PSJzcGFjaW5nIiBmb250LXNpemU9IjE0IiBmb250LWZhbWlseT0ic2Fucy1zZXJpZiIgZmlsbD0iIzAwMDAwMCI+TWFwJmx0O09iamVjdENhcmQsQm9hcmRTcGFjZSZndDsgbGFzdFRha2VuPC90ZXh0PjxsaW5lIHkyPSI1NjIuNTc4MSIgeTE9IjU2Mi41NzgxIiB4Mj0iMjk0Ny41IiB4MT0iMjMzNC41IiBzdHlsZT0ic3Ryb2tlOiNBODAwMzY7c3Ryb2tlLXdpZHRoOjEuMDsiLz48ZWxsaXBzZSBzdHlsZT0ic3Ryb2tlOiMwMzgwNDg7c3Ryb2tlLXdpZHRoOjEuMDsiIHJ5PSIzIiByeD0iMyIgZmlsbD0iIzg0QkU4NCIgY3k9IjU3Ni4yMjY2IiBjeD0iMjM0NC41Ii8+PHRleHQgeT0iNTc5LjU3MzIiIHg9IjIzNTMuNSIgdGV4dExlbmd0aD0iMjc1IiBsZW5ndGhBZGp1c3Q9InNwYWNpbmciIGZvbnQtc2l6ZT0iMTQiIGZvbnQtZmFtaWx5PSJzYW5zLXNlcmlmIiBmaWxsPSIjMDAwMDAwIj7Cq0NyZWF0ZcK7IEJvYXJkKGludCxMaXN0Jmx0O09iamVjdENhcmQmZ3Q7KTwvdGV4dD48cmVjdCB5PSI1ODkuNTIzNCIgeD0iMjM0MS41IiB3aWR0aD0iNiIgc3R5bGU9InN0cm9rZTojQzgyOTMwO3N0cm9rZS13aWR0aDoxLjA7IiBoZWlnaHQ9IjYiIGZpbGw9IiNGMjRENUMiLz48dGV4dCB5PSI1OTUuODcwMSIgeD0iMjM1My41IiB0ZXh0TGVuZ3RoPSI1ODkiIGxlbmd0aEFkanVzdD0ic3BhY2luZyIgZm9udC1zaXplPSIxNCIgZm9udC1mYW1pbHk9InNhbnMtc2VyaWYiIGZpbGw9IiMwMDAwMDAiPsKrQ3JlYXRlwrsgQm9hcmQoQm9hcmRTcGFjZVtdW10sTGlzdCZsdDtPYmplY3RDYXJkJmd0OyxNYXAmbHQ7T2JqZWN0Q2FyZCxCb2FyZFNwYWNlJmd0Oyk8L3RleHQ+PHJlY3QgeT0iNjA1LjgyMDMiIHg9IjIzNDEuNSIgd2lkdGg9IjYiIHN0eWxlPSJzdHJva2U6I0M4MjkzMDtzdHJva2Utd2lkdGg6MS4wOyIgaGVpZ2h0PSI2IiBmaWxsPSIjRjI0RDVDIi8+PHRleHQgeT0iNjEyLjE2NyIgeD0iMjM1My41IiB0ZXh0TGVuZ3RoPSIxOTYiIGxlbmd0aEFkanVzdD0ic3BhY2luZyIgZm9udC1zaXplPSIxNCIgZm9udC1mYW1pbHk9InNhbnMtc2VyaWYiIGZpbGw9IiMwMDAwMDAiPnZvaWQgc3BhY2VzRGVjbGFyYXRpb24oaW50KTwvdGV4dD48ZWxsaXBzZSBzdHlsZT0ic3Ryb2tlOiMwMzgwNDg7c3Ryb2tlLXdpZHRoOjEuMDsiIHJ5PSIzIiByeD0iMyIgZmlsbD0iIzg0QkU4NCIgY3k9IjYyNS4xMTcyIiBjeD0iMjM0NC41Ii8+PHRleHQgeT0iNjI4LjQ2MzkiIHg9IjIzNTMuNSIgdGV4dExlbmd0aD0iMTk2IiBsZW5ndGhBZGp1c3Q9InNwYWNpbmciIGZvbnQtc2l6ZT0iMTQiIGZvbnQtZmFtaWx5PSJzYW5zLXNlcmlmIiBmaWxsPSIjMDAwMDAwIj5Cb2FyZFNwYWNlW11bXSBnZXRTcGFjZXMoKTwvdGV4dD48ZWxsaXBzZSBzdHlsZT0ic3Ryb2tlOiMwMzgwNDg7c3Ryb2tlLXdpZHRoOjEuMDsiIHJ5PSIzIiByeD0iMyIgZmlsbD0iIzg0QkU4NCIgY3k9IjY0MS40MTQxIiBjeD0iMjM0NC41Ii8+PHRleHQgeT0iNjQ0Ljc2MDciIHg9IjIzNTMuNSIgdGV4dExlbmd0aD0iMjE4IiBsZW5ndGhBZGp1c3Q9InNwYWNpbmciIGZvbnQtc2l6ZT0iMTQiIGZvbnQtZmFtaWx5PSJzYW5zLXNlcmlmIiBmaWxsPSIjMDAwMDAwIj5ib29sZWFuIGlzU3BhY2VVc2FibGUoaW50LGludCk8L3RleHQ+PGVsbGlwc2Ugc3R5bGU9InN0cm9rZTojMDM4MDQ4O3N0cm9rZS13aWR0aDoxLjA7IiByeT0iMyIgcng9IjMiIGZpbGw9IiM4NEJFODQiIGN5PSI2NTcuNzEwOSIgY3g9IjIzNDQuNSIvPjx0ZXh0IHk9IjY2MS4wNTc2IiB4PSIyMzUzLjUiIHRleHRMZW5ndGg9IjMxMyIgbGVuZ3RoQWRqdXN0PSJzcGFjaW5nIiBmb250LXNpemU9IjE0IiBmb250LWZhbWlseT0ic2Fucy1zZXJpZiIgZmlsbD0iIzAwMDAwMCI+T2JqZWN0Q2FyZCBnZXRQbGFpbkNhcmRGcm9tU3BhY2UoaW50LGludCk8L3RleHQ+PGVsbGlwc2Ugc3R5bGU9InN0cm9rZTojMDM4MDQ4O3N0cm9rZS13aWR0aDoxLjA7IiByeT0iMyIgcng9IjMiIGZpbGw9IiM4NEJFODQiIGN5PSI2NzQuMDA3OCIgY3g9IjIzNDQuNSIvPjx0ZXh0IHk9IjY3Ny4zNTQ1IiB4PSIyMzUzLjUiIHRleHRMZW5ndGg9IjI2OCIgbGVuZ3RoQWRqdXN0PSJzcGFjaW5nIiBmb250LXNpemU9IjE0IiBmb250LWZhbWlseT0ic2Fucy1zZXJpZiIgZmlsbD0iIzAwMDAwMCI+aW50IGdldENhcmRPcmRpbmFsRnJvbVNwYWNlKGludCxpbnQpPC90ZXh0PjxlbGxpcHNlIHN0eWxlPSJzdHJva2U6IzAzODA0ODtzdHJva2Utd2lkdGg6MS4wOyIgcnk9IjMiIHJ4PSIzIiBmaWxsPSIjODRCRTg0IiBjeT0iNjkwLjMwNDciIGN4PSIyMzQ0LjUiLz48dGV4dCB5PSI2OTMuNjUxNCIgeD0iMjM1My41IiB0ZXh0TGVuZ3RoPSIyODUiIGxlbmd0aEFkanVzdD0ic3BhY2luZyIgZm9udC1zaXplPSIxNCIgZm9udC1mYW1pbHk9InNhbnMtc2VyaWYiIGZpbGw9IiMwMDAwMDAiPlN0cmluZyBnZXRDYXJkSW1hZ2VGcm9tU3BhY2UoaW50LGludCk8L3RleHQ+PGVsbGlwc2Ugc3R5bGU9InN0cm9rZTojMDM4MDQ4O3N0cm9rZS13aWR0aDoxLjA7IiByeT0iMyIgcng9IjMiIGZpbGw9IiM4NEJFODQiIGN5PSI3MDYuNjAxNiIgY3g9IjIzNDQuNSIvPjx0ZXh0IHk9IjcwOS45NDgyIiB4PSIyMzUzLjUiIHRleHRMZW5ndGg9IjIyNiIgbGVuZ3RoQWRqdXN0PSJzcGFjaW5nIiBmb250LXNpemU9IjE0IiBmb250LWZhbWlseT0ic2Fucy1zZXJpZiIgZmlsbD0iIzAwMDAwMCI+TGlzdCZsdDtPYmplY3RDYXJkJmd0OyBib2FyZENhcmRzKCk8L3RleHQ+PHBvbHlnb24gc3R5bGU9InN0cm9rZTojMTk2M0EwO3N0cm9rZS13aWR0aDoxLjA7IiBwb2ludHM9IjIzNDQuNSw3MTguODk4NCwyMzQwLjUsNzI0Ljg5ODQsMjM0OC41LDcyNC44OTg0IiBmaWxsPSIjNDE3N0FGIi8+PHRleHQgeT0iNzI2LjI0NTEiIHg9IjIzNTMuNSIgdGV4dExlbmd0aD0iMTY1IiBsZW5ndGhBZGp1c3Q9InNwYWNpbmciIGZvbnQtc2l6ZT0iMTQiIGZvbnQtZmFtaWx5PSJzYW5zLXNlcmlmIiBmaWxsPSIjMDAwMDAwIj5ib29sZWFuIHJlc2V0TmVlZGVkKCk8L3RleHQ+PHJlY3QgeT0iNzM2LjE5NTMiIHg9IjIzNDEuNSIgd2lkdGg9IjYiIHN0eWxlPSJzdHJva2U6I0M4MjkzMDtzdHJva2Utd2lkdGg6MS4wOyIgaGVpZ2h0PSI2IiBmaWxsPSIjRjI0RDVDIi8+PHRleHQgeT0iNzQyLjU0MiIgeD0iMjM1My41IiB0ZXh0TGVuZ3RoPSIxNjgiIGxlbmd0aEFkanVzdD0ic3BhY2luZyIgZm9udC1zaXplPSIxNCIgZm9udC1mYW1pbHk9InNhbnMtc2VyaWYiIGZpbGw9IiMwMDAwMDAiPmJvb2xlYW4gcmVzZXRFbmFibGVkKCk8L3RleHQ+PHJlY3QgeT0iNzUyLjQ5MjIiIHg9IjIzNDEuNSIgd2lkdGg9IjYiIHN0eWxlPSJzdHJva2U6I0M4MjkzMDtzdHJva2Utd2lkdGg6MS4wOyIgaGVpZ2h0PSI2IiBmaWxsPSIjRjI0RDVDIi8+PHRleHQgeT0iNzU4LjgzODkiIHg9IjIzNTMuNSIgdGV4dExlbmd0aD0iODIiIGxlbmd0aEFkanVzdD0ic3BhY2luZyIgZm9udC1zaXplPSIxNCIgZm9udC1mYW1pbHk9InNhbnMtc2VyaWYiIGZpbGw9IiMwMDAwMDAiPnZvaWQgcmVzZXQoKTwvdGV4dD48ZWxsaXBzZSBzdHlsZT0ic3Ryb2tlOiMwMzgwNDg7c3Ryb2tlLXdpZHRoOjEuMDsiIHJ5PSIzIiByeD0iMyIgZmlsbD0iIzg0QkU4NCIgY3k9Ijc3MS43ODkxIiBjeD0iMjM0NC41Ii8+PHRleHQgeT0iNzc1LjEzNTciIHg9IjIzNTMuNSIgdGV4dExlbmd0aD0iMjM1IiBsZW5ndGhBZGp1c3Q9InNwYWNpbmciIGZvbnQtc2l6ZT0iMTQiIGZvbnQtZmFtaWx5PSJzYW5zLXNlcmlmIiBmaWxsPSIjMDAwMDAwIj5ib29sZWFuIHZhbGlkKExpc3QmbHQ7T2JqZWN0Q2FyZCZndDspPC90ZXh0PjxlbGxpcHNlIHN0eWxlPSJzdHJva2U6IzAzODA0ODtzdHJva2Utd2lkdGg6MS4wOyIgcnk9IjMiIHJ4PSIzIiBmaWxsPSIjODRCRTg0IiBjeT0iNzg4LjA4NTkiIGN4PSIyMzQ0LjUiLz48dGV4dCB5PSI3OTEuNDMyNiIgeD0iMjM1My41IiB0ZXh0TGVuZ3RoPSI0MjgiIGxlbmd0aEFkanVzdD0ic3BhY2luZyIgZm9udC1zaXplPSIxNCIgZm9udC1mYW1pbHk9InNhbnMtc2VyaWYiIGZpbGw9IiMwMDAwMDAiPmJvb2xlYW4gdmFsaWRGcm9tQ29vcmRpbmF0ZShMaXN0Jmx0O0ludGVnZXImZ3Q7LExpc3QmbHQ7SW50ZWdlciZndDspPC90ZXh0PjxlbGxpcHNlIHN0eWxlPSJzdHJva2U6IzAzODA0ODtzdHJva2Utd2lkdGg6MS4wOyIgcnk9IjMiIHJ4PSIzIiBmaWxsPSIjODRCRTg0IiBjeT0iODA0LjM4MjgiIGN4PSIyMzQ0LjUiLz48dGV4dCB5PSI4MDcuNzI5NSIgeD0iMjM1My41IiB0ZXh0TGVuZ3RoPSI1MzIiIGxlbmd0aEFkanVzdD0ic3BhY2luZyIgZm9udC1zaXplPSIxNCIgZm9udC1mYW1pbHk9InNhbnMtc2VyaWYiIGZpbGw9IiMwMDAwMDAiPkxpc3QmbHQ7T2JqZWN0Q2FyZCZndDsgZ2V0Q2FyZHNGcm9tQ29vcmRpbmF0ZShMaXN0Jmx0O0ludGVnZXImZ3Q7LExpc3QmbHQ7SW50ZWdlciZndDspPC90ZXh0PjxlbGxpcHNlIHN0eWxlPSJzdHJva2U6IzAzODA0ODtzdHJva2Utd2lkdGg6MS4wOyIgcnk9IjMiIHJ4PSIzIiBmaWxsPSIjODRCRTg0IiBjeT0iODIwLjY3OTciIGN4PSIyMzQ0LjUiLz48dGV4dCB5PSI4MjQuMDI2NCIgeD0iMjM1My41IiB0ZXh0TGVuZ3RoPSIyODYiIGxlbmd0aEFkanVzdD0ic3BhY2luZyIgZm9udC1zaXplPSIxNCIgZm9udC1mYW1pbHk9InNhbnMtc2VyaWYiIGZpbGw9IiMwMDAwMDAiPnZvaWQgdGFrZUZyb21Cb2FyZChMaXN0Jmx0O09iamVjdENhcmQmZ3Q7KTwvdGV4dD48ZWxsaXBzZSBzdHlsZT0ic3Ryb2tlOiMwMzgwNDg7c3Ryb2tlLXdpZHRoOjEuMDsiIHJ5PSIzIiByeD0iMyIgZmlsbD0iIzg0QkU4NCIgY3k9IjgzNi45NzY2IiBjeD0iMjM0NC41Ii8+PHRleHQgeT0iODQwLjMyMzIiIHg9IjIzNTMuNSIgdGV4dExlbmd0aD0iNTc5IiBsZW5ndGhBZGp1c3Q9InNwYWNpbmciIGZvbnQtc2l6ZT0iMTQiIGZvbnQtZmFtaWx5PSJzYW5zLXNlcmlmIiBmaWxsPSIjMDAwMDAwIj5MaXN0Jmx0O09iamVjdENhcmQmZ3Q7IHRha2VGcm9tQm9hcmRGcm9tQ29vcmRpbmF0ZShMaXN0Jmx0O0ludGVnZXImZ3Q7LExpc3QmbHQ7SW50ZWdlciZndDspPC90ZXh0PjxlbGxpcHNlIHN0eWxlPSJzdHJva2U6IzAzODA0ODtzdHJva2Utd2lkdGg6MS4wOyIgcnk9IjMiIHJ4PSIzIiBmaWxsPSIjODRCRTg0IiBjeT0iODUzLjI3MzQiIGN4PSIyMzQ0LjUiLz48dGV4dCB5PSI4NTYuNjIwMSIgeD0iMjM1My41IiB0ZXh0TGVuZ3RoPSIxNzEiIGxlbmd0aEFkanVzdD0ic3BhY2luZyIgZm9udC1zaXplPSIxNCIgZm9udC1mYW1pbHk9InNhbnMtc2VyaWYiIGZpbGw9IiMwMDAwMDAiPnZvaWQgcmVzdG9yZUxhc3RUYWtlbigpPC90ZXh0PjxlbGxpcHNlIHN0eWxlPSJzdHJva2U6IzAzODA0ODtzdHJva2Utd2lkdGg6MS4wOyIgcnk9IjMiIHJ4PSIzIiBmaWxsPSIjODRCRTg0IiBjeT0iODY5LjU3MDMiIGN4PSIyMzQ0LjUiLz48dGV4dCB5PSI4NzIuOTE3IiB4PSIyMzUzLjUiIHRleHRMZW5ndGg9IjExOCIgbGVuZ3RoQWRqdXN0PSJzcGFjaW5nIiBmb250LXNpemU9IjE0IiBmb250LWZhbWlseT0ic2Fucy1zZXJpZiIgZmlsbD0iIzAwMDAwMCI+Qm9hcmQgZ2V0Q29weSgpPC90ZXh0PjxlbGxpcHNlIHN0eWxlPSJzdHJva2U6IzAzODA0ODtzdHJva2Utd2lkdGg6MS4wOyIgcnk9IjMiIHJ4PSIzIiBmaWxsPSIjODRCRTg0IiBjeT0iODg1Ljg2NzIiIGN4PSIyMzQ0LjUiLz48dGV4dCB5PSI4ODkuMjEzOSIgeD0iMjM1My41IiB0ZXh0TGVuZ3RoPSIyNTgiIGxlbmd0aEFkanVzdD0ic3BhY2luZyIgZm9udC1zaXplPSIxNCIgZm9udC1mYW1pbHk9InNhbnMtc2VyaWYiIGZpbGw9IiMwMDAwMDAiPkxpc3QmbHQ7T2JqZWN0Q2FyZCZndDsgZ2V0T2JqZWN0Q2FyZHMoKTwvdGV4dD48L2c+PGcgaWQ9ImVsZW1fQm9hcmRTcGFjZSI+PHJlY3QgeT0iNTE0LjUiIHg9IjQwOTMiIHdpZHRoPSI0MzgiIHN0eWxlPSJzdHJva2U6I0E4MDAzNjtzdHJva2Utd2lkdGg6MS4wOyIgaWQ9IkJvYXJkU3BhY2UiIGhlaWdodD0iMjc2LjE1NjMiIGZpbHRlcj0idXJsKCNmNXVvdDhkeXZkanJsKSIgZmlsbD0iI0ZFRkVDRSIvPjxlbGxpcHNlIHN0eWxlPSJzdHJva2U6I0E4MDAzNjtzdHJva2Utd2lkdGg6MS4wOyIgcnk9IjExIiByeD0iMTEiIGZpbGw9IiNBREQxQjIiIGN5PSI1MzAuNSIgY3g9IjQyNjQuNzUiLz48cGF0aCBmaWxsPSIjMDAwMDAwIiBkPSJNNDI2Ny4wOTM4LDUyNi4xNzE5IEM0MjY2LjE1NjMsNTI1LjczNDQgNDI2NS41NjI1LDUyNS41OTM4IDQyNjQuNjg3NSw1MjUuNTkzOCBDNDI2Mi4wNjI1LDUyNS41OTM4IDQyNjAuMDYyNSw1MjcuNjcxOSA0MjYwLjA2MjUsNTMwLjM5MDYgTDQyNjAuMDYyNSw1MzEuNTE1NiBDNDI2MC4wNjI1LDUzNC4wOTM4IDQyNjIuMTcxOSw1MzUuOTg0NCA0MjY1LjA2MjUsNTM1Ljk4NDQgQzQyNjYuMjgxMyw1MzUuOTg0NCA0MjY3LjQzNzUsNTM1LjY4NzUgNDI2OC4xODc1LDUzNS4xNDA2IEM0MjY4Ljc2NTYsNTM0LjczNDQgNDI2OS4wOTM4LDUzNC4yODEzIDQyNjkuMDkzOCw1MzMuODkwNiBDNDI2OS4wOTM4LDUzMy40Mzc1IDQyNjguNzAzMSw1MzMuMDQ2OSA0MjY4LjIzNDQsNTMzLjA0NjkgQzQyNjguMDE1Niw1MzMuMDQ2OSA0MjY3LjgxMjUsNTMzLjEyNSA0MjY3LjYyNSw1MzMuMzEyNSBDNDI2Ny4xNzE5LDUzMy43OTY5IDQyNjcuMTcxOSw1MzMuNzk2OSA0MjY2Ljk4NDQsNTMzLjg5MDYgQzQyNjYuNTYyNSw1MzQuMTU2MyA0MjY1Ljg3NSw1MzQuMjgxMyA0MjY1LjEwOTQsNTM0LjI4MTMgQzQyNjMuMDYyNSw1MzQuMjgxMyA0MjYxLjc2NTYsNTMzLjE4NzUgNDI2MS43NjU2LDUzMS40ODQ0IEw0MjYxLjc2NTYsNTMwLjM5MDYgQzQyNjEuNzY1Niw1MjguNjA5NCA0MjYzLjAxNTYsNTI3LjI5NjkgNDI2NC43NSw1MjcuMjk2OSBDNDI2NS4zMjgxLDUyNy4yOTY5IDQyNjUuOTM3NSw1MjcuNDUzMSA0MjY2LjQwNjMsNTI3LjcwMzEgQzQyNjYuODkwNiw1MjcuOTg0NCA0MjY3LjA2MjUsNTI4LjIwMzEgNDI2Ny4xNTYzLDUyOC42MDk0IEM0MjY3LjIxODgsNTI5LjAxNTYgNDI2Ny4yNSw1MjkuMTQwNiA0MjY3LjM5MDYsNTI5LjI2NTYgQzQyNjcuNTMxMyw1MjkuNDA2MyA0MjY3Ljc2NTYsNTI5LjUxNTYgNDI2Ny45ODQ0LDUyOS41MTU2IEM0MjY4LjI1LDUyOS41MTU2IDQyNjguNTE1Niw1MjkuMzc1IDQyNjguNjg3NSw1MjkuMTU2MyBDNDI2OC43OTY5LDUyOSA0MjY4LjgyODEsNTI4LjgxMjUgNDI2OC44MjgxLDUyOC4zOTA2IEw0MjY4LjgyODEsNTI2Ljk2ODggQzQyNjguODI4MSw1MjYuNTMxMyA0MjY4LjgxMjUsNTI2LjQwNjMgNDI2OC43MTg4LDUyNi4yNSBDNDI2OC41NjI1LDUyNS45ODQ0IDQyNjguMjgxMyw1MjUuODQzOCA0MjY3Ljk4NDQsNTI1Ljg0MzggQzQyNjcuNjg3NSw1MjUuODQzOCA0MjY3LjQ4NDQsNTI1LjkzNzUgNDI2Ny4yNjU2LDUyNi4yNSBMNDI2Ny4wOTM4LDUyNi4xNzE5IFoiLz48dGV4dCB5PSI1MzUuMzQ2NyIgeD0iNDI4NS4yNSIgdGV4dExlbmd0aD0iODYiIGxlbmd0aEFkanVzdD0ic3BhY2luZyIgZm9udC1zaXplPSIxNCIgZm9udC1mYW1pbHk9InNhbnMtc2VyaWYiIGZpbGw9IiMwMDAwMDAiPkJvYXJkU3BhY2U8L3RleHQ+PGxpbmUgeTI9IjU0Ni41IiB5MT0iNTQ2LjUiIHgyPSI0NTMwIiB4MT0iNDA5NCIgc3R5bGU9InN0cm9rZTojQTgwMDM2O3N0cm9rZS13aWR0aDoxLjA7Ii8+PHJlY3QgeT0iNTU3LjE0ODQiIHg9IjQxMDEiIHdpZHRoPSI2IiBzdHlsZT0ic3Ryb2tlOiNDODI5MzA7c3Ryb2tlLXdpZHRoOjEuMDsiIGhlaWdodD0iNiIgZmlsbD0ibm9uZSIvPjx0ZXh0IHk9IjU2My40OTUxIiB4PSI0MTEzIiB0ZXh0TGVuZ3RoPSIzMiIgbGVuZ3RoQWRqdXN0PSJzcGFjaW5nIiBmb250LXNpemU9IjE0IiBmb250LWZhbWlseT0ic2Fucy1zZXJpZiIgZmlsbD0iIzAwMDAwMCI+aW50IHg8L3RleHQ+PHJlY3QgeT0iNTczLjQ0NTMiIHg9IjQxMDEiIHdpZHRoPSI2IiBzdHlsZT0ic3Ryb2tlOiNDODI5MzA7c3Ryb2tlLXdpZHRoOjEuMDsiIGhlaWdodD0iNiIgZmlsbD0ibm9uZSIvPjx0ZXh0IHk9IjU3OS43OTIiIHg9IjQxMTMiIHRleHRMZW5ndGg9IjMyIiBsZW5ndGhBZGp1c3Q9InNwYWNpbmciIGZvbnQtc2l6ZT0iMTQiIGZvbnQtZmFtaWx5PSJzYW5zLXNlcmlmIiBmaWxsPSIjMDAwMDAwIj5pbnQgeTwvdGV4dD48cmVjdCB5PSI1ODkuNzQyMiIgeD0iNDEwMSIgd2lkdGg9IjYiIHN0eWxlPSJzdHJva2U6I0M4MjkzMDtzdHJva2Utd2lkdGg6MS4wOyIgaGVpZ2h0PSI2IiBmaWxsPSJub25lIi8+PHRleHQgeT0iNTk2LjA4ODkiIHg9IjQxMTMiIHRleHRMZW5ndGg9IjEwOCIgbGVuZ3RoQWRqdXN0PSJzcGFjaW5nIiBmb250LXNpemU9IjE0IiBmb250LWZhbWlseT0ic2Fucy1zZXJpZiIgZmlsbD0iIzAwMDAwMCI+Ym9vbGVhbiB1c2FibGU8L3RleHQ+PHJlY3QgeT0iNjA2LjAzOTEiIHg9IjQxMDEiIHdpZHRoPSI2IiBzdHlsZT0ic3Ryb2tlOiNDODI5MzA7c3Ryb2tlLXdpZHRoOjEuMDsiIGhlaWdodD0iNiIgZmlsbD0ibm9uZSIvPjx0ZXh0IHk9IjYxMi4zODU3IiB4PSI0MTEzIiB0ZXh0TGVuZ3RoPSIxNzMiIGxlbmd0aEFkanVzdD0ic3BhY2luZyIgZm9udC1zaXplPSIxNCIgZm9udC1mYW1pbHk9InNhbnMtc2VyaWYiIGZpbGw9IiMwMDAwMDAiPk9wdGlvbmFsJmx0O0ludGVnZXImZ3Q7IGRvdHM8L3RleHQ+PHJlY3QgeT0iNjIyLjMzNTkiIHg9IjQxMDEiIHdpZHRoPSI2IiBzdHlsZT0ic3Ryb2tlOiNDODI5MzA7c3Ryb2tlLXdpZHRoOjEuMDsiIGhlaWdodD0iNiIgZmlsbD0ibm9uZSIvPjx0ZXh0IHk9IjYyOC42ODI2IiB4PSI0MTEzIiB0ZXh0TGVuZ3RoPSIyMDEiIGxlbmd0aEFkanVzdD0ic3BhY2luZyIgZm9udC1zaXplPSIxNCIgZm9udC1mYW1pbHk9InNhbnMtc2VyaWYiIGZpbGw9IiMwMDAwMDAiPk9wdGlvbmFsJmx0O09iamVjdENhcmQmZ3Q7IGNhcmQ8L3RleHQ+PGxpbmUgeTI9IjYzNS45ODQ0IiB5MT0iNjM1Ljk4NDQiIHgyPSI0NTMwIiB4MT0iNDA5NCIgc3R5bGU9InN0cm9rZTojQTgwMDM2O3N0cm9rZS13aWR0aDoxLjA7Ii8+PGVsbGlwc2Ugc3R5bGU9InN0cm9rZTojMDM4MDQ4O3N0cm9rZS13aWR0aDoxLjA7IiByeT0iMyIgcng9IjMiIGZpbGw9IiM4NEJFODQiIGN5PSI2NDkuNjMyOCIgY3g9IjQxMDQiLz48dGV4dCB5PSI2NTIuOTc5NSIgeD0iNDExMyIgdGV4dExlbmd0aD0iNDEyIiBsZW5ndGhBZGp1c3Q9InNwYWNpbmciIGZvbnQtc2l6ZT0iMTQiIGZvbnQtZmFtaWx5PSJzYW5zLXNlcmlmIiBmaWxsPSIjMDAwMDAwIj7Cq0NyZWF0ZcK7IEJvYXJkU3BhY2UoaW50LGludCxib29sZWFuLE9wdGlvbmFsJmx0O0ludGVnZXImZ3Q7KTwvdGV4dD48ZWxsaXBzZSBzdHlsZT0ic3Ryb2tlOiMwMzgwNDg7c3Ryb2tlLXdpZHRoOjEuMDsiIHJ5PSIzIiByeD0iMyIgZmlsbD0iIzg0QkU4NCIgY3k9IjY2NS45Mjk3IiBjeD0iNDEwNCIvPjx0ZXh0IHk9IjY2OS4yNzY0IiB4PSI0MTEzIiB0ZXh0TGVuZ3RoPSI2OSIgbGVuZ3RoQWRqdXN0PSJzcGFjaW5nIiBmb250LXNpemU9IjE0IiBmb250LWZhbWlseT0ic2Fucy1zZXJpZiIgZmlsbD0iIzAwMDAwMCI+aW50IGdldFgoKTwvdGV4dD48ZWxsaXBzZSBzdHlsZT0ic3Ryb2tlOiMwMzgwNDg7c3Ryb2tlLXdpZHRoOjEuMDsiIHJ5PSIzIiByeD0iMyIgZmlsbD0iIzg0QkU4NCIgY3k9IjY4Mi4yMjY2IiBjeD0iNDEwNCIvPjx0ZXh0IHk9IjY4NS41NzMyIiB4PSI0MTEzIiB0ZXh0TGVuZ3RoPSI2OCIgbGVuZ3RoQWRqdXN0PSJzcGFjaW5nIiBmb250LXNpemU9IjE0IiBmb250LWZhbWlseT0ic2Fucy1zZXJpZiIgZmlsbD0iIzAwMDAwMCI+aW50IGdldFkoKTwvdGV4dD48ZWxsaXBzZSBzdHlsZT0ic3Ryb2tlOiMwMzgwNDg7c3Ryb2tlLXdpZHRoOjEuMDsiIHJ5PSIzIiByeD0iMyIgZmlsbD0iIzg0QkU4NCIgY3k9IjY5OC41MjM0IiBjeD0iNDEwNCIvPjx0ZXh0IHk9IjcwMS44NzAxIiB4PSI0MTEzIiB0ZXh0TGVuZ3RoPSIxMzAiIGxlbmd0aEFkanVzdD0ic3BhY2luZyIgZm9udC1zaXplPSIxNCIgZm9udC1mYW1pbHk9InNhbnMtc2VyaWYiIGZpbGw9IiMwMDAwMDAiPmJvb2xlYW4gaXNVc2FibGUoKTwvdGV4dD48ZWxsaXBzZSBzdHlsZT0ic3Ryb2tlOiMwMzgwNDg7c3Ryb2tlLXdpZHRoOjEuMDsiIHJ5PSIzIiByeD0iMyIgZmlsbD0iIzg0QkU4NCIgY3k9IjcxNC44MjAzIiBjeD0iNDEwNCIvPjx0ZXh0IHk9IjcxOC4xNjciIHg9IjQxMTMiIHRleHRMZW5ndGg9IjIzOCIgbGVuZ3RoQWRqdXN0PSJzcGFjaW5nIiBmb250LXNpemU9IjE0IiBmb250LWZhbWlseT0ic2Fucy1zZXJpZiIgZmlsbD0iIzAwMDAwMCI+T3B0aW9uYWwmbHQ7T2JqZWN0Q2FyZCZndDsgZ2V0Q2FyZCgpPC90ZXh0PjxlbGxpcHNlIHN0eWxlPSJzdHJva2U6IzAzODA0ODtzdHJva2Utd2lkdGg6MS4wOyIgcnk9IjMiIHJ4PSIzIiBmaWxsPSIjODRCRTg0IiBjeT0iNzMxLjExNzIiIGN4PSI0MTA0Ii8+PHRleHQgeT0iNzM0LjQ2MzkiIHg9IjQxMTMiIHRleHRMZW5ndGg9IjI2NiIgbGVuZ3RoQWRqdXN0PSJzcGFjaW5nIiBmb250LXNpemU9IjE0IiBmb250LWZhbWlseT0ic2Fucy1zZXJpZiIgZmlsbD0iIzAwMDAwMCI+dm9pZCBzZXRDYXJkKE9wdGlvbmFsJmx0O09iamVjdENhcmQmZ3Q7KTwvdGV4dD48ZWxsaXBzZSBzdHlsZT0ic3Ryb2tlOiMwMzgwNDg7c3Ryb2tlLXdpZHRoOjEuMDsiIHJ5PSIzIiByeD0iMyIgZmlsbD0iIzg0QkU4NCIgY3k9Ijc0Ny40MTQxIiBjeD0iNDEwNCIvPjx0ZXh0IHk9Ijc1MC43NjA3IiB4PSI0MTEzIiB0ZXh0TGVuZ3RoPSIxODgiIGxlbmd0aEFkanVzdD0ic3BhY2luZyIgZm9udC1zaXplPSIxNCIgZm9udC1mYW1pbHk9InNhbnMtc2VyaWYiIGZpbGw9IiMwMDAwMDAiPk9iamVjdENhcmQgZ2V0UGxhaW5DYXJkKCk8L3RleHQ+PGVsbGlwc2Ugc3R5bGU9InN0cm9rZTojMDM4MDQ4O3N0cm9rZS13aWR0aDoxLjA7IiByeT0iMyIgcng9IjMiIGZpbGw9IiM4NEJFODQiIGN5PSI3NjMuNzEwOSIgY3g9IjQxMDQiLz48dGV4dCB5PSI3NjcuMDU3NiIgeD0iNDExMyIgdGV4dExlbmd0aD0iMjEwIiBsZW5ndGhBZGp1c3Q9InNwYWNpbmciIGZvbnQtc2l6ZT0iMTQiIGZvbnQtZmFtaWx5PSJzYW5zLXNlcmlmIiBmaWxsPSIjMDAwMDAwIj5PcHRpb25hbCZsdDtJbnRlZ2VyJmd0OyBnZXREb3RzKCk8L3RleHQ+PGVsbGlwc2Ugc3R5bGU9InN0cm9rZTojMDM4MDQ4O3N0cm9rZS13aWR0aDoxLjA7IiByeT0iMyIgcng9IjMiIGZpbGw9IiM4NEJFODQiIGN5PSI3ODAuMDA3OCIgY3g9IjQxMDQiLz48dGV4dCB5PSI3ODMuMzU0NSIgeD0iNDExMyIgdGV4dExlbmd0aD0iMTI3IiBsZW5ndGhBZGp1c3Q9InNwYWNpbmciIGZvbnQtc2l6ZT0iMTQiIGZvbnQtZmFtaWx5PSJzYW5zLXNlcmlmIiBmaWxsPSIjMDAwMDAwIj5pbnQgZ2V0UGxhaW5Eb3RzKCk8L3RleHQ+PC9nPjxnIGlkPSJlbGVtX1Njb3JlYm9hcmQiPjxyZWN0IHk9IjYwNCIgeD0iMTk1Ny41IiB3aWR0aD0iMzQxIiBzdHlsZT0ic3Ryb2tlOiNBODAwMzY7c3Ryb2tlLXdpZHRoOjEuMDsiIGlkPSJTY29yZWJvYXJkIiBoZWlnaHQ9Ijk2Ljg5MDYiIGZpbHRlcj0idXJsKCNmNXVvdDhkeXZkanJsKSIgZmlsbD0iI0ZFRkVDRSIvPjxlbGxpcHNlIHN0eWxlPSJzdHJva2U6I0E4MDAzNjtzdHJva2Utd2lkdGg6MS4wOyIgcnk9IjExIiByeD0iMTEiIGZpbGw9IiNBREQxQjIiIGN5PSI2MjAiIGN4PSIyMDgyLjI1Ii8+PHBhdGggZmlsbD0iIzAwMDAwMCIgZD0iTTIwODQuNTkzOCw2MTUuNjcxOSBDMjA4My42NTYzLDYxNS4yMzQ0IDIwODMuMDYyNSw2MTUuMDkzOCAyMDgyLjE4NzUsNjE1LjA5MzggQzIwNzkuNTYyNSw2MTUuMDkzOCAyMDc3LjU2MjUsNjE3LjE3MTkgMjA3Ny41NjI1LDYxOS44OTA2IEwyMDc3LjU2MjUsNjIxLjAxNTYgQzIwNzcuNTYyNSw2MjMuNTkzOCAyMDc5LjY3MTksNjI1LjQ4NDQgMjA4Mi41NjI1LDYyNS40ODQ0IEMyMDgzLjc4MTMsNjI1LjQ4NDQgMjA4NC45Mzc1LDYyNS4xODc1IDIwODUuNjg3NSw2MjQuNjQwNiBDMjA4Ni4yNjU2LDYyNC4yMzQ0IDIwODYuNTkzOCw2MjMuNzgxMyAyMDg2LjU5MzgsNjIzLjM5MDYgQzIwODYuNTkzOCw2MjIuOTM3NSAyMDg2LjIwMzEsNjIyLjU0NjkgMjA4NS43MzQ0LDYyMi41NDY5IEMyMDg1LjUxNTYsNjIyLjU0NjkgMjA4NS4zMTI1LDYyMi42MjUgMjA4NS4xMjUsNjIyLjgxMjUgQzIwODQuNjcxOSw2MjMuMjk2OSAyMDg0LjY3MTksNjIzLjI5NjkgMjA4NC40ODQ0LDYyMy4zOTA2IEMyMDg0LjA2MjUsNjIzLjY1NjMgMjA4My4zNzUsNjIzLjc4MTMgMjA4Mi42MDk0LDYyMy43ODEzIEMyMDgwLjU2MjUsNjIzLjc4MTMgMjA3OS4yNjU2LDYyMi42ODc1IDIwNzkuMjY1Niw2MjAuOTg0NCBMMjA3OS4yNjU2LDYxOS44OTA2IEMyMDc5LjI2NTYsNjE4LjEwOTQgMjA4MC41MTU2LDYxNi43OTY5IDIwODIuMjUsNjE2Ljc5NjkgQzIwODIuODI4MSw2MTYuNzk2OSAyMDgzLjQzNzUsNjE2Ljk1MzEgMjA4My45MDYzLDYxNy4yMDMxIEMyMDg0LjM5MDYsNjE3LjQ4NDQgMjA4NC41NjI1LDYxNy43MDMxIDIwODQuNjU2Myw2MTguMTA5NCBDMjA4NC43MTg4LDYxOC41MTU2IDIwODQuNzUsNjE4LjY0MDYgMjA4NC44OTA2LDYxOC43NjU2IEMyMDg1LjAzMTMsNjE4LjkwNjMgMjA4NS4yNjU2LDYxOS4wMTU2IDIwODUuNDg0NCw2MTkuMDE1NiBDMjA4NS43NSw2MTkuMDE1NiAyMDg2LjAxNTYsNjE4Ljg3NSAyMDg2LjE4NzUsNjE4LjY1NjMgQzIwODYuMjk2OSw2MTguNSAyMDg2LjMyODEsNjE4LjMxMjUgMjA4Ni4zMjgxLDYxNy44OTA2IEwyMDg2LjMyODEsNjE2LjQ2ODggQzIwODYuMzI4MSw2MTYuMDMxMyAyMDg2LjMxMjUsNjE1LjkwNjMgMjA4Ni4yMTg4LDYxNS43NSBDMjA4Ni4wNjI1LDYxNS40ODQ0IDIwODUuNzgxMyw2MTUuMzQzOCAyMDg1LjQ4NDQsNjE1LjM0MzggQzIwODUuMTg3NSw2MTUuMzQzOCAyMDg0Ljk4NDQsNjE1LjQzNzUgMjA4NC43NjU2LDYxNS43NSBMMjA4NC41OTM4LDYxNS42NzE5IFoiLz48dGV4dCB5PSI2MjQuODQ2NyIgeD0iMjEwMi43NSIgdGV4dExlbmd0aD0iODMiIGxlbmd0aEFkanVzdD0ic3BhY2luZyIgZm9udC1zaXplPSIxNCIgZm9udC1mYW1pbHk9InNhbnMtc2VyaWYiIGZpbGw9IiMwMDAwMDAiPlNjb3JlYm9hcmQ8L3RleHQ+PGxpbmUgeTI9IjYzNiIgeTE9IjYzNiIgeDI9IjIyOTcuNSIgeDE9IjE5NTguNSIgc3R5bGU9InN0cm9rZTojQTgwMDM2O3N0cm9rZS13aWR0aDoxLjA7Ii8+PHJlY3QgeT0iNjQ2LjY0ODQiIHg9IjE5NjUuNSIgd2lkdGg9IjYiIHN0eWxlPSJzdHJva2U6I0M4MjkzMDtzdHJva2Utd2lkdGg6MS4wOyIgaGVpZ2h0PSI2IiBmaWxsPSJub25lIi8+PHRleHQgeT0iNjUyLjk5NTEiIHg9IjE5NzcuNSIgdGV4dExlbmd0aD0iMjM4IiBsZW5ndGhBZGp1c3Q9InNwYWNpbmciIGZvbnQtc2l6ZT0iMTQiIGZvbnQtZmFtaWx5PSJzYW5zLXNlcmlmIiBmaWxsPSIjMDAwMDAwIj5NYXAmbHQ7U3RyaW5nLEludGVnZXImZ3Q7IHNjb3JlQm9hcmQ8L3RleHQ+PGxpbmUgeTI9IjY2MC4yOTY5IiB5MT0iNjYwLjI5NjkiIHgyPSIyMjk3LjUiIHgxPSIxOTU4LjUiIHN0eWxlPSJzdHJva2U6I0E4MDAzNjtzdHJva2Utd2lkdGg6MS4wOyIvPjxlbGxpcHNlIHN0eWxlPSJzdHJva2U6IzAzODA0ODtzdHJva2Utd2lkdGg6MS4wOyIgcnk9IjMiIHJ4PSIzIiBmaWxsPSIjODRCRTg0IiBjeT0iNjczLjk0NTMiIGN4PSIxOTY4LjUiLz48dGV4dCB5PSI2NzcuMjkyIiB4PSIxOTc3LjUiIHRleHRMZW5ndGg9IjMxNSIgbGVuZ3RoQWRqdXN0PSJzcGFjaW5nIiBmb250LXNpemU9IjE0IiBmb250LWZhbWlseT0ic2Fucy1zZXJpZiIgZmlsbD0iIzAwMDAwMCI+wqtDcmVhdGXCuyBTY29yZWJvYXJkKE1hcCZsdDtTdHJpbmcsSW50ZWdlciZndDspPC90ZXh0PjxlbGxpcHNlIHN0eWxlPSJzdHJva2U6IzAzODA0ODtzdHJva2Utd2lkdGg6MS4wOyIgcnk9IjMiIHJ4PSIzIiBmaWxsPSIjODRCRTg0IiBjeT0iNjkwLjI0MjIiIGN4PSIxOTY4LjUiLz48dGV4dCB5PSI2OTMuNTg4OSIgeD0iMTk3Ny41IiB0ZXh0TGVuZ3RoPSIyNzUiIGxlbmd0aEFkanVzdD0ic3BhY2luZyIgZm9udC1zaXplPSIxNCIgZm9udC1mYW1pbHk9InNhbnMtc2VyaWYiIGZpbGw9IiMwMDAwMDAiPk1hcCZsdDtTdHJpbmcsSW50ZWdlciZndDsgZ2V0U2NvcmVCb2FyZCgpPC90ZXh0PjwvZz48ZyBpZD0iZWxlbV9Db21tb25Hb2FsQ2FyZCI+PHJlY3QgeT0iNTA2LjUiIHg9IjE0NzgiIHdpZHRoPSI0NDQiIHN0eWxlPSJzdHJva2U6I0E4MDAzNjtzdHJva2Utd2lkdGg6MS4wOyIgaWQ9IkNvbW1vbkdvYWxDYXJkIiBoZWlnaHQ9IjI5Mi40NTMxIiBmaWx0ZXI9InVybCgjZjV1b3Q4ZHl2ZGpybCkiIGZpbGw9IiNGRUZFQ0UiLz48ZWxsaXBzZSBzdHlsZT0ic3Ryb2tlOiNBODAwMzY7c3Ryb2tlLXdpZHRoOjEuMDsiIHJ5PSIxMSIgcng9IjExIiBmaWxsPSIjQUREMUIyIiBjeT0iNTIyLjUiIGN4PSIxNjMwLjc1Ii8+PHBhdGggZmlsbD0iIzAwMDAwMCIgZD0iTTE2MzMuMDkzOCw1MTguMTcxOSBDMTYzMi4xNTYzLDUxNy43MzQ0IDE2MzEuNTYyNSw1MTcuNTkzOCAxNjMwLjY4NzUsNTE3LjU5MzggQzE2MjguMDYyNSw1MTcuNTkzOCAxNjI2LjA2MjUsNTE5LjY3MTkgMTYyNi4wNjI1LDUyMi4zOTA2IEwxNjI2LjA2MjUsNTIzLjUxNTYgQzE2MjYuMDYyNSw1MjYuMDkzOCAxNjI4LjE3MTksNTI3Ljk4NDQgMTYzMS4wNjI1LDUyNy45ODQ0IEMxNjMyLjI4MTMsNTI3Ljk4NDQgMTYzMy40Mzc1LDUyNy42ODc1IDE2MzQuMTg3NSw1MjcuMTQwNiBDMTYzNC43NjU2LDUyNi43MzQ0IDE2MzUuMDkzOCw1MjYuMjgxMyAxNjM1LjA5MzgsNTI1Ljg5MDYgQzE2MzUuMDkzOCw1MjUuNDM3NSAxNjM0LjcwMzEsNTI1LjA0NjkgMTYzNC4yMzQ0LDUyNS4wNDY5IEMxNjM0LjAxNTYsNTI1LjA0NjkgMTYzMy44MTI1LDUyNS4xMjUgMTYzMy42MjUsNTI1LjMxMjUgQzE2MzMuMTcxOSw1MjUuNzk2OSAxNjMzLjE3MTksNTI1Ljc5NjkgMTYzMi45ODQ0LDUyNS44OTA2IEMxNjMyLjU2MjUsNTI2LjE1NjMgMTYzMS44NzUsNTI2LjI4MTMgMTYzMS4xMDk0LDUyNi4yODEzIEMxNjI5LjA2MjUsNTI2LjI4MTMgMTYyNy43NjU2LDUyNS4xODc1IDE2MjcuNzY1Niw1MjMuNDg0NCBMMTYyNy43NjU2LDUyMi4zOTA2IEMxNjI3Ljc2NTYsNTIwLjYwOTQgMTYyOS4wMTU2LDUxOS4yOTY5IDE2MzAuNzUsNTE5LjI5NjkgQzE2MzEuMzI4MSw1MTkuMjk2OSAxNjMxLjkzNzUsNTE5LjQ1MzEgMTYzMi40MDYzLDUxOS43MDMxIEMxNjMyLjg5MDYsNTE5Ljk4NDQgMTYzMy4wNjI1LDUyMC4yMDMxIDE2MzMuMTU2Myw1MjAuNjA5NCBDMTYzMy4yMTg4LDUyMS4wMTU2IDE2MzMuMjUsNTIxLjE0MDYgMTYzMy4zOTA2LDUyMS4yNjU2IEMxNjMzLjUzMTMsNTIxLjQwNjMgMTYzMy43NjU2LDUyMS41MTU2IDE2MzMuOTg0NCw1MjEuNTE1NiBDMTYzNC4yNSw1MjEuNTE1NiAxNjM0LjUxNTYsNTIxLjM3NSAxNjM0LjY4NzUsNTIxLjE1NjMgQzE2MzQuNzk2OSw1MjEgMTYzNC44MjgxLDUyMC44MTI1IDE2MzQuODI4MSw1MjAuMzkwNiBMMTYzNC44MjgxLDUxOC45Njg4IEMxNjM0LjgyODEsNTE4LjUzMTMgMTYzNC44MTI1LDUxOC40MDYzIDE2MzQuNzE4OCw1MTguMjUgQzE2MzQuNTYyNSw1MTcuOTg0NCAxNjM0LjI4MTMsNTE3Ljg0MzggMTYzMy45ODQ0LDUxNy44NDM4IEMxNjMzLjY4NzUsNTE3Ljg0MzggMTYzMy40ODQ0LDUxNy45Mzc1IDE2MzMuMjY1Niw1MTguMjUgTDE2MzMuMDkzOCw1MTguMTcxOSBaIi8+PHRleHQgeT0iNTI3LjM0NjciIHg9IjE2NTEuMjUiIHRleHRMZW5ndGg9IjEzMCIgbGVuZ3RoQWRqdXN0PSJzcGFjaW5nIiBmb250LXNpemU9IjE0IiBmb250LWZhbWlseT0ic2Fucy1zZXJpZiIgZmlsbD0iIzAwMDAwMCI+Q29tbW9uR29hbENhcmQ8L3RleHQ+PGxpbmUgeTI9IjUzOC41IiB5MT0iNTM4LjUiIHgyPSIxOTIxIiB4MT0iMTQ3OSIgc3R5bGU9InN0cm9rZTojQTgwMDM2O3N0cm9rZS13aWR0aDoxLjA7Ii8+PGVsbGlwc2Ugc3R5bGU9InN0cm9rZTojMDM4MDQ4O3N0cm9rZS13aWR0aDoxLjA7IiByeT0iMyIgcng9IjMiIGZpbGw9Im5vbmUiIGN5PSI1NTIuMTQ4NCIgY3g9IjE0ODkiLz48dGV4dCB5PSI1NTUuNDk1MSIgeD0iMTQ5OCIgdGV4dExlbmd0aD0iNjEiIHRleHQtZGVjb3JhdGlvbj0idW5kZXJsaW5lIiBsZW5ndGhBZGp1c3Q9InNwYWNpbmciIGZvbnQtc2l6ZT0iMTQiIGZvbnQtZmFtaWx5PSJzYW5zLXNlcmlmIiBmaWxsPSIjMDAwMDAwIj5pbnQgTElNSVQ8L3RleHQ+PHJlY3QgeT0iNTY1LjQ0NTMiIHg9IjE0ODYiIHdpZHRoPSI2IiBzdHlsZT0ic3Ryb2tlOiNDODI5MzA7c3Ryb2tlLXdpZHRoOjEuMDsiIGhlaWdodD0iNiIgZmlsbD0ibm9uZSIvPjx0ZXh0IHk9IjU3MS43OTIiIHg9IjE0OTgiIHRleHRMZW5ndGg9IjU4IiBsZW5ndGhBZGp1c3Q9InNwYWNpbmciIGZvbnQtc2l6ZT0iMTQiIGZvbnQtZmFtaWx5PSJzYW5zLXNlcmlmIiBmaWxsPSIjMDAwMDAwIj5pbnQgdHlwZTwvdGV4dD48cmVjdCB5PSI1ODEuNzQyMiIgeD0iMTQ4NiIgd2lkdGg9IjYiIHN0eWxlPSJzdHJva2U6I0M4MjkzMDtzdHJva2Utd2lkdGg6MS4wOyIgaGVpZ2h0PSI2IiBmaWxsPSJub25lIi8+PHRleHQgeT0iNTg4LjA4ODkiIHg9IjE0OTgiIHRleHRMZW5ndGg9IjEzMCIgbGVuZ3RoQWRqdXN0PSJzcGFjaW5nIiBmb250LXNpemU9IjE0IiBmb250LWZhbWlseT0ic2Fucy1zZXJpZiIgZmlsbD0iIzAwMDAwMCI+U3RyaW5nIGRlc2NyaXB0aW9uPC90ZXh0PjxyZWN0IHk9IjU5OC4wMzkxIiB4PSIxNDg2IiB3aWR0aD0iNiIgc3R5bGU9InN0cm9rZTojQzgyOTMwO3N0cm9rZS13aWR0aDoxLjA7IiBoZWlnaHQ9IjYiIGZpbGw9Im5vbmUiLz48dGV4dCB5PSI2MDQuMzg1NyIgeD0iMTQ5OCIgdGV4dExlbmd0aD0iMjIzIiBsZW5ndGhBZGp1c3Q9InNwYWNpbmciIGZvbnQtc2l6ZT0iMTQiIGZvbnQtZmFtaWx5PSJzYW5zLXNlcmlmIiBmaWxsPSIjMDAwMDAwIj5TdGFjayZsdDtTY29yZUNhcmQmZ3Q7IGluY3JlbWVudHM8L3RleHQ+PGxpbmUgeTI9IjYxMS42ODc1IiB5MT0iNjExLjY4NzUiIHgyPSIxOTIxIiB4MT0iMTQ3OSIgc3R5bGU9InN0cm9rZTojQTgwMDM2O3N0cm9rZS13aWR0aDoxLjA7Ii8+PGVsbGlwc2Ugc3R5bGU9InN0cm9rZTojMDM4MDQ4O3N0cm9rZS13aWR0aDoxLjA7IiByeT0iMyIgcng9IjMiIGZpbGw9IiM4NEJFODQiIGN5PSI2MjUuMzM1OSIgY3g9IjE0ODkiLz48dGV4dCB5PSI2MjguNjgyNiIgeD0iMTQ5OCIgdGV4dExlbmd0aD0iMjUzIiBsZW5ndGhBZGp1c3Q9InNwYWNpbmciIGZvbnQtc2l6ZT0iMTQiIGZvbnQtZmFtaWx5PSJzYW5zLXNlcmlmIiBmaWxsPSIjMDAwMDAwIj7Cq0NyZWF0ZcK7IENvbW1vbkdvYWxDYXJkKGludCxpbnQpPC90ZXh0PjxyZWN0IHk9IjYzOC42MzI4IiB4PSIxNDg2IiB3aWR0aD0iNiIgc3R5bGU9InN0cm9rZTojQzgyOTMwO3N0cm9rZS13aWR0aDoxLjA7IiBoZWlnaHQ9IjYiIGZpbGw9IiNGMjRENUMiLz48dGV4dCB5PSI2NDQuOTc5NSIgeD0iMTQ5OCIgdGV4dExlbmd0aD0iNDE4IiBsZW5ndGhBZGp1c3Q9InNwYWNpbmciIGZvbnQtc2l6ZT0iMTQiIGZvbnQtZmFtaWx5PSJzYW5zLXNlcmlmIiBmaWxsPSIjMDAwMDAwIj7Cq0NyZWF0ZcK7IENvbW1vbkdvYWxDYXJkKGludCxTdHJpbmcsU3RhY2smbHQ7U2NvcmVDYXJkJmd0Oyk8L3RleHQ+PGVsbGlwc2Ugc3R5bGU9InN0cm9rZTojMDM4MDQ4O3N0cm9rZS13aWR0aDoxLjA7IiByeT0iMyIgcng9IjMiIGZpbGw9IiM4NEJFODQiIGN5PSI2NTcuOTI5NyIgY3g9IjE0ODkiLz48dGV4dCB5PSI2NjEuMjc2NCIgeD0iMTQ5OCIgdGV4dExlbmd0aD0iMTY3IiBsZW5ndGhBZGp1c3Q9InNwYWNpbmciIGZvbnQtc2l6ZT0iMTQiIGZvbnQtZmFtaWx5PSJzYW5zLXNlcmlmIiBmaWxsPSIjMDAwMDAwIj5TdHJpbmcgZ2V0RGVzY3JpcHRpb24oKTwvdGV4dD48ZWxsaXBzZSBzdHlsZT0ic3Ryb2tlOiMwMzgwNDg7c3Ryb2tlLXdpZHRoOjEuMDsiIHJ5PSIzIiByeD0iMyIgZmlsbD0iIzg0QkU4NCIgY3k9IjY3NC4yMjY2IiBjeD0iMTQ4OSIvPjx0ZXh0IHk9IjY3Ny41NzMyIiB4PSIxNDk4IiB0ZXh0TGVuZ3RoPSIzMjQiIGxlbmd0aEFkanVzdD0ic3BhY2luZyIgZm9udC1zaXplPSIxNCIgZm9udC1mYW1pbHk9InNhbnMtc2VyaWYiIGZpbGw9IiMwMDAwMDAiPlN0YWNrJmx0O1Njb3JlQ2FyZEludGVyZmFjZSZndDsgZ2V0SW5jcmVtZW50cygpPC90ZXh0PjxlbGxpcHNlIHN0eWxlPSJzdHJva2U6IzAzODA0ODtzdHJva2Utd2lkdGg6MS4wOyIgcnk9IjMiIHJ4PSIzIiBmaWxsPSIjODRCRTg0IiBjeT0iNjkwLjUyMzQiIGN4PSIxNDg5Ii8+PHRleHQgeT0iNjkzLjg3MDEiIHg9IjE0OTgiIHRleHRMZW5ndGg9IjE5MSIgbGVuZ3RoQWRqdXN0PSJzcGFjaW5nIiBmb250LXNpemU9IjE0IiBmb250LWZhbWlseT0ic2Fucy1zZXJpZiIgZmlsbD0iIzAwMDAwMCI+U2NvcmVDYXJkIGF0dHJpYnV0ZShTaGVsZik8L3RleHQ+PHJlY3QgeT0iNzAzLjgyMDMiIHg9IjE0ODYiIHdpZHRoPSI2IiBzdHlsZT0ic3Ryb2tlOiNDODI5MzA7c3Ryb2tlLXdpZHRoOjEuMDsiIGhlaWdodD0iNiIgZmlsbD0iI0YyNEQ1QyIvPjx0ZXh0IHk9IjcxMC4xNjciIHg9IjE0OTgiIHRleHRMZW5ndGg9IjMyNiIgbGVuZ3RoQWRqdXN0PSJzcGFjaW5nIiBmb250LXNpemU9IjE0IiBmb250LWZhbWlseT0ic2Fucy1zZXJpZiIgZmlsbD0iIzAwMDAwMCI+Ym9vbGVhbiBmaW5kVHlwZXNJbkNvbHVtbnMoaW50LGludCxpbnQsU2hlbGYpPC90ZXh0PjxyZWN0IHk9IjcyMC4xMTcyIiB4PSIxNDg2IiB3aWR0aD0iNiIgc3R5bGU9InN0cm9rZTojQzgyOTMwO3N0cm9rZS13aWR0aDoxLjA7IiBoZWlnaHQ9IjYiIGZpbGw9IiNGMjRENUMiLz48dGV4dCB5PSI3MjYuNDYzOSIgeD0iMTQ5OCIgdGV4dExlbmd0aD0iMzAyIiBsZW5ndGhBZGp1c3Q9InNwYWNpbmciIGZvbnQtc2l6ZT0iMTQiIGZvbnQtZmFtaWx5PSJzYW5zLXNlcmlmIiBmaWxsPSIjMDAwMDAwIj5ib29sZWFuIGZpbmRUeXBlc0luUm93cyhpbnQsaW50LGludCxTaGVsZik8L3RleHQ+PHJlY3QgeT0iNzM2LjQxNDEiIHg9IjE0ODYiIHdpZHRoPSI2IiBzdHlsZT0ic3Ryb2tlOiNDODI5MzA7c3Ryb2tlLXdpZHRoOjEuMDsiIGhlaWdodD0iNiIgZmlsbD0iI0YyNEQ1QyIvPjx0ZXh0IHk9Ijc0Mi43NjA3IiB4PSIxNDk4IiB0ZXh0TGVuZ3RoPSIzNTIiIGxlbmd0aEFkanVzdD0ic3BhY2luZyIgZm9udC1zaXplPSIxNCIgZm9udC1mYW1pbHk9InNhbnMtc2VyaWYiIGZpbGw9IiMwMDAwMDAiPmJvb2xlYW4gc2FtZVR5cGVHcm91cEZpcnN0Q2hlY2soaW50LGludCxTaGVsZik8L3RleHQ+PHJlY3QgeT0iNzUyLjcxMDkiIHg9IjE0ODYiIHdpZHRoPSI2IiBzdHlsZT0ic3Ryb2tlOiNDODI5MzA7c3Ryb2tlLXdpZHRoOjEuMDsiIGhlaWdodD0iNiIgZmlsbD0iI0YyNEQ1QyIvPjx0ZXh0IHk9Ijc1OS4wNTc2IiB4PSIxNDk4IiB0ZXh0TGVuZ3RoPSIzNzMiIGxlbmd0aEFkanVzdD0ic3BhY2luZyIgZm9udC1zaXplPSIxNCIgZm9udC1mYW1pbHk9InNhbnMtc2VyaWYiIGZpbGw9IiMwMDAwMDAiPmJvb2xlYW4gc2FtZVR5cGVHcm91cFNlY29uZENoZWNrKGludCxpbnQsU2hlbGYpPC90ZXh0PjxlbGxpcHNlIHN0eWxlPSJzdHJva2U6IzAzODA0ODtzdHJva2Utd2lkdGg6MS4wOyIgcnk9IjMiIHJ4PSIzIiBmaWxsPSIjODRCRTg0IiBjeT0iNzcyLjAwNzgiIGN4PSIxNDg5Ii8+PHRleHQgeT0iNzc1LjM1NDUiIHg9IjE0OTgiIHRleHRMZW5ndGg9IjIwNiIgbGVuZ3RoQWRqdXN0PSJzcGFjaW5nIiBmb250LXNpemU9IjE0IiBmb250LWZhbWlseT0ic2Fucy1zZXJpZiIgZmlsbD0iIzAwMDAwMCI+Q29tbW9uR29hbENhcmQgZ2V0Q29weSgpPC90ZXh0PjxlbGxpcHNlIHN0eWxlPSJzdHJva2U6IzAzODA0ODtzdHJva2Utd2lkdGg6MS4wOyIgcnk9IjMiIHJ4PSIzIiBmaWxsPSIjODRCRTg0IiBjeT0iNzg4LjMwNDciIGN4PSIxNDg5Ii8+PHRleHQgeT0iNzkxLjY1MTQiIHg9IjE0OTgiIHRleHRMZW5ndGg9Ijk1IiBsZW5ndGhBZGp1c3Q9InNwYWNpbmciIGZvbnQtc2l6ZT0iMTQiIGZvbnQtZmFtaWx5PSJzYW5zLXNlcmlmIiBmaWxsPSIjMDAwMDAwIj5pbnQgZ2V0VHlwZSgpPC90ZXh0PjwvZz48ZyBpZD0iZWxlbV9FbmRHYW1lQ2FyZCI+PHJlY3QgeT0iMTIzMy41IiB4PSIyOTc5LjUiIHdpZHRoPSIyMDciIHN0eWxlPSJzdHJva2U6I0E4MDAzNjtzdHJva2Utd2lkdGg6MS4wOyIgaWQ9IkVuZEdhbWVDYXJkIiBoZWlnaHQ9IjY0LjI5NjkiIGZpbHRlcj0idXJsKCNmNXVvdDhkeXZkanJsKSIgZmlsbD0iI0ZFRkVDRSIvPjxlbGxpcHNlIHN0eWxlPSJzdHJva2U6I0E4MDAzNjtzdHJva2Utd2lkdGg6MS4wOyIgcnk9IjExIiByeD0iMTEiIGZpbGw9IiNBREQxQjIiIGN5PSIxMjQ5LjUiIGN4PSIzMDI3Ljc1Ii8+PHBhdGggZmlsbD0iIzAwMDAwMCIgZD0iTTMwMzAuMDkzOCwxMjQ1LjE3MTkgQzMwMjkuMTU2MywxMjQ0LjczNDQgMzAyOC41NjI1LDEyNDQuNTkzOCAzMDI3LjY4NzUsMTI0NC41OTM4IEMzMDI1LjA2MjUsMTI0NC41OTM4IDMwMjMuMDYyNSwxMjQ2LjY3MTkgMzAyMy4wNjI1LDEyNDkuMzkwNiBMMzAyMy4wNjI1LDEyNTAuNTE1NiBDMzAyMy4wNjI1LDEyNTMuMDkzOCAzMDI1LjE3MTksMTI1NC45ODQ0IDMwMjguMDYyNSwxMjU0Ljk4NDQgQzMwMjkuMjgxMywxMjU0Ljk4NDQgMzAzMC40Mzc1LDEyNTQuNjg3NSAzMDMxLjE4NzUsMTI1NC4xNDA2IEMzMDMxLjc2NTYsMTI1My43MzQ0IDMwMzIuMDkzOCwxMjUzLjI4MTMgMzAzMi4wOTM4LDEyNTIuODkwNiBDMzAzMi4wOTM4LDEyNTIuNDM3NSAzMDMxLjcwMzEsMTI1Mi4wNDY5IDMwMzEuMjM0NCwxMjUyLjA0NjkgQzMwMzEuMDE1NiwxMjUyLjA0NjkgMzAzMC44MTI1LDEyNTIuMTI1IDMwMzAuNjI1LDEyNTIuMzEyNSBDMzAzMC4xNzE5LDEyNTIuNzk2OSAzMDMwLjE3MTksMTI1Mi43OTY5IDMwMjkuOTg0NCwxMjUyLjg5MDYgQzMwMjkuNTYyNSwxMjUzLjE1NjMgMzAyOC44NzUsMTI1My4yODEzIDMwMjguMTA5NCwxMjUzLjI4MTMgQzMwMjYuMDYyNSwxMjUzLjI4MTMgMzAyNC43NjU2LDEyNTIuMTg3NSAzMDI0Ljc2NTYsMTI1MC40ODQ0IEwzMDI0Ljc2NTYsMTI0OS4zOTA2IEMzMDI0Ljc2NTYsMTI0Ny42MDk0IDMwMjYuMDE1NiwxMjQ2LjI5NjkgMzAyNy43NSwxMjQ2LjI5NjkgQzMwMjguMzI4MSwxMjQ2LjI5NjkgMzAyOC45Mzc1LDEyNDYuNDUzMSAzMDI5LjQwNjMsMTI0Ni43MDMxIEMzMDI5Ljg5MDYsMTI0Ni45ODQ0IDMwMzAuMDYyNSwxMjQ3LjIwMzEgMzAzMC4xNTYzLDEyNDcuNjA5NCBDMzAzMC4yMTg4LDEyNDguMDE1NiAzMDMwLjI1LDEyNDguMTQwNiAzMDMwLjM5MDYsMTI0OC4yNjU2IEMzMDMwLjUzMTMsMTI0OC40MDYzIDMwMzAuNzY1NiwxMjQ4LjUxNTYgMzAzMC45ODQ0LDEyNDguNTE1NiBDMzAzMS4yNSwxMjQ4LjUxNTYgMzAzMS41MTU2LDEyNDguMzc1IDMwMzEuNjg3NSwxMjQ4LjE1NjMgQzMwMzEuNzk2OSwxMjQ4IDMwMzEuODI4MSwxMjQ3LjgxMjUgMzAzMS44MjgxLDEyNDcuMzkwNiBMMzAzMS44MjgxLDEyNDUuOTY4OCBDMzAzMS44MjgxLDEyNDUuNTMxMyAzMDMxLjgxMjUsMTI0NS40MDYzIDMwMzEuNzE4OCwxMjQ1LjI1IEMzMDMxLjU2MjUsMTI0NC45ODQ0IDMwMzEuMjgxMywxMjQ0Ljg0MzggMzAzMC45ODQ0LDEyNDQuODQzOCBDMzAzMC42ODc1LDEyNDQuODQzOCAzMDMwLjQ4NDQsMTI0NC45Mzc1IDMwMzAuMjY1NiwxMjQ1LjI1IEwzMDMwLjA5MzgsMTI0NS4xNzE5IFoiLz48dGV4dCB5PSIxMjU0LjM0NjciIHg9IjMwNDguMjUiIHRleHRMZW5ndGg9IjEwMiIgbGVuZ3RoQWRqdXN0PSJzcGFjaW5nIiBmb250LXNpemU9IjE0IiBmb250LWZhbWlseT0ic2Fucy1zZXJpZiIgZmlsbD0iIzAwMDAwMCI+RW5kR2FtZUNhcmQ8L3RleHQ+PGxpbmUgeTI9IjEyNjUuNSIgeTE9IjEyNjUuNSIgeDI9IjMxODUuNSIgeDE9IjI5ODAuNSIgc3R5bGU9InN0cm9rZTojQTgwMDM2O3N0cm9rZS13aWR0aDoxLjA7Ii8+PGxpbmUgeTI9IjEyNzMuNSIgeTE9IjEyNzMuNSIgeDI9IjMxODUuNSIgeDE9IjI5ODAuNSIgc3R5bGU9InN0cm9rZTojQTgwMDM2O3N0cm9rZS13aWR0aDoxLjA7Ii8+PHBvbHlnb24gc3R5bGU9InN0cm9rZTojMTk2M0EwO3N0cm9rZS13aWR0aDoxLjA7IiBwb2ludHM9IjI5OTAuNSwxMjgzLjE0ODQsMjk4Ni41LDEyODkuMTQ4NCwyOTk0LjUsMTI4OS4xNDg0IiBmaWxsPSIjNDE3N0FGIi8+PHRleHQgeT0iMTI5MC40OTUxIiB4PSIyOTk5LjUiIHRleHRMZW5ndGg9IjE4MSIgbGVuZ3RoQWRqdXN0PSJzcGFjaW5nIiBmb250LXNpemU9IjE0IiBmb250LWZhbWlseT0ic2Fucy1zZXJpZiIgZmlsbD0iIzAwMDAwMCI+wqtDcmVhdGXCuyBFbmRHYW1lQ2FyZCgpPC90ZXh0PjwvZz48ZyBpZD0iZWxlbV9TaGVsZiI+PHJlY3QgeT0iNDkwIiB4PSIzNzMwIiB3aWR0aD0iMzI4IiBzdHlsZT0ic3Ryb2tlOiNBODAwMzY7c3Ryb2tlLXdpZHRoOjEuMDsiIGlkPSJTaGVsZiIgaGVpZ2h0PSIzMjUuMDQ2OSIgZmlsdGVyPSJ1cmwoI2Y1dW90OGR5dmRqcmwpIiBmaWxsPSIjRkVGRUNFIi8+PGVsbGlwc2Ugc3R5bGU9InN0cm9rZTojQTgwMDM2O3N0cm9rZS13aWR0aDoxLjA7IiByeT0iMTEiIHJ4PSIxMSIgZmlsbD0iI0FERDFCMiIgY3k9IjUwNiIgY3g9IjM4NzEuMjUiLz48cGF0aCBmaWxsPSIjMDAwMDAwIiBkPSJNMzg3My41OTM4LDUwMS42NzE5IEMzODcyLjY1NjMsNTAxLjIzNDQgMzg3Mi4wNjI1LDUwMS4wOTM4IDM4NzEuMTg3NSw1MDEuMDkzOCBDMzg2OC41NjI1LDUwMS4wOTM4IDM4NjYuNTYyNSw1MDMuMTcxOSAzODY2LjU2MjUsNTA1Ljg5MDYgTDM4NjYuNTYyNSw1MDcuMDE1NiBDMzg2Ni41NjI1LDUwOS41OTM4IDM4NjguNjcxOSw1MTEuNDg0NCAzODcxLjU2MjUsNTExLjQ4NDQgQzM4NzIuNzgxMyw1MTEuNDg0NCAzODczLjkzNzUsNTExLjE4NzUgMzg3NC42ODc1LDUxMC42NDA2IEMzODc1LjI2NTYsNTEwLjIzNDQgMzg3NS41OTM4LDUwOS43ODEzIDM4NzUuNTkzOCw1MDkuMzkwNiBDMzg3NS41OTM4LDUwOC45Mzc1IDM4NzUuMjAzMSw1MDguNTQ2OSAzODc0LjczNDQsNTA4LjU0NjkgQzM4NzQuNTE1Niw1MDguNTQ2OSAzODc0LjMxMjUsNTA4LjYyNSAzODc0LjEyNSw1MDguODEyNSBDMzg3My42NzE5LDUwOS4yOTY5IDM4NzMuNjcxOSw1MDkuMjk2OSAzODczLjQ4NDQsNTA5LjM5MDYgQzM4NzMuMDYyNSw1MDkuNjU2MyAzODcyLjM3NSw1MDkuNzgxMyAzODcxLjYwOTQsNTA5Ljc4MTMgQzM4NjkuNTYyNSw1MDkuNzgxMyAzODY4LjI2NTYsNTA4LjY4NzUgMzg2OC4yNjU2LDUwNi45ODQ0IEwzODY4LjI2NTYsNTA1Ljg5MDYgQzM4NjguMjY1Niw1MDQuMTA5NCAzODY5LjUxNTYsNTAyLjc5NjkgMzg3MS4yNSw1MDIuNzk2OSBDMzg3MS44MjgxLDUwMi43OTY5IDM4NzIuNDM3NSw1MDIuOTUzMSAzODcyLjkwNjMsNTAzLjIwMzEgQzM4NzMuMzkwNiw1MDMuNDg0NCAzODczLjU2MjUsNTAzLjcwMzEgMzg3My42NTYzLDUwNC4xMDk0IEMzODczLjcxODgsNTA0LjUxNTYgMzg3My43NSw1MDQuNjQwNiAzODczLjg5MDYsNTA0Ljc2NTYgQzM4NzQuMDMxMyw1MDQuOTA2MyAzODc0LjI2NTYsNTA1LjAxNTYgMzg3NC40ODQ0LDUwNS4wMTU2IEMzODc0Ljc1LDUwNS4wMTU2IDM4NzUuMDE1Niw1MDQuODc1IDM4NzUuMTg3NSw1MDQuNjU2MyBDMzg3NS4yOTY5LDUwNC41IDM4NzUuMzI4MSw1MDQuMzEyNSAzODc1LjMyODEsNTAzLjg5MDYgTDM4NzUuMzI4MSw1MDIuNDY4OCBDMzg3NS4zMjgxLDUwMi4wMzEzIDM4NzUuMzEyNSw1MDEuOTA2MyAzODc1LjIxODgsNTAxLjc1IEMzODc1LjA2MjUsNTAxLjQ4NDQgMzg3NC43ODEzLDUwMS4zNDM4IDM4NzQuNDg0NCw1MDEuMzQzOCBDMzg3NC4xODc1LDUwMS4zNDM4IDM4NzMuOTg0NCw1MDEuNDM3NSAzODczLjc2NTYsNTAxLjc1IEwzODczLjU5MzgsNTAxLjY3MTkgWiIvPjx0ZXh0IHk9IjUxMC44NDY3IiB4PSIzODkxLjc1IiB0ZXh0TGVuZ3RoPSIzNyIgbGVuZ3RoQWRqdXN0PSJzcGFjaW5nIiBmb250LXNpemU9IjE0IiBmb250LWZhbWlseT0ic2Fucy1zZXJpZiIgZmlsbD0iIzAwMDAwMCI+U2hlbGY8L3RleHQ+PGxpbmUgeTI9IjUyMiIgeTE9IjUyMiIgeDI9IjQwNTciIHgxPSIzNzMxIiBzdHlsZT0ic3Ryb2tlOiNBODAwMzY7c3Ryb2tlLXdpZHRoOjEuMDsiLz48ZWxsaXBzZSBzdHlsZT0ic3Ryb2tlOiMwMzgwNDg7c3Ryb2tlLXdpZHRoOjEuMDsiIHJ5PSIzIiByeD0iMyIgZmlsbD0ibm9uZSIgY3k9IjUzNS42NDg0IiBjeD0iMzc0MSIvPjx0ZXh0IHk9IjUzOC45OTUxIiB4PSIzNzUwIiB0ZXh0TGVuZ3RoPSIxMTkiIHRleHQtZGVjb3JhdGlvbj0idW5kZXJsaW5lIiBsZW5ndGhBZGp1c3Q9InNwYWNpbmciIGZvbnQtc2l6ZT0iMTQiIGZvbnQtZmFtaWx5PSJzYW5zLXNlcmlmIiBmaWxsPSIjMDAwMDAwIj5pbnQgU0hFTEZfRElNX1g8L3RleHQ+PGVsbGlwc2Ugc3R5bGU9InN0cm9rZTojMDM4MDQ4O3N0cm9rZS13aWR0aDoxLjA7IiByeT0iMyIgcng9IjMiIGZpbGw9Im5vbmUiIGN5PSI1NTEuOTQ1MyIgY3g9IjM3NDEiLz48dGV4dCB5PSI1NTUuMjkyIiB4PSIzNzUwIiB0ZXh0TGVuZ3RoPSIxMTgiIHRleHQtZGVjb3JhdGlvbj0idW5kZXJsaW5lIiBsZW5ndGhBZGp1c3Q9InNwYWNpbmciIGZvbnQtc2l6ZT0iMTQiIGZvbnQtZmFtaWx5PSJzYW5zLXNlcmlmIiBmaWxsPSIjMDAwMDAwIj5pbnQgU0hFTEZfRElNX1k8L3RleHQ+PHJlY3QgeT0iNTY1LjI0MjIiIHg9IjM3MzgiIHdpZHRoPSI2IiBzdHlsZT0ic3Ryb2tlOiNDODI5MzA7c3Ryb2tlLXdpZHRoOjEuMDsiIGhlaWdodD0iNiIgZmlsbD0ibm9uZSIvPjx0ZXh0IHk9IjU3MS41ODg5IiB4PSIzNzUwIiB0ZXh0TGVuZ3RoPSIyMjgiIGxlbmd0aEFkanVzdD0ic3BhY2luZyIgZm9udC1zaXplPSIxNCIgZm9udC1mYW1pbHk9InNhbnMtc2VyaWYiIGZpbGw9IiMwMDAwMDAiPk9wdGlvbmFsJmx0O09iamVjdENhcmQmZ3Q7W11bXSBjYXJkczwvdGV4dD48bGluZSB5Mj0iNTc4Ljg5MDYiIHkxPSI1NzguODkwNiIgeDI9IjQwNTciIHgxPSIzNzMxIiBzdHlsZT0ic3Ryb2tlOiNBODAwMzY7c3Ryb2tlLXdpZHRoOjEuMDsiLz48ZWxsaXBzZSBzdHlsZT0ic3Ryb2tlOiMwMzgwNDg7c3Ryb2tlLXdpZHRoOjEuMDsiIHJ5PSIzIiByeD0iMyIgZmlsbD0iIzg0QkU4NCIgY3k9IjU5Mi41MzkxIiBjeD0iMzc0MSIvPjx0ZXh0IHk9IjU5NS44ODU3IiB4PSIzNzUwIiB0ZXh0TGVuZ3RoPSIxMTYiIGxlbmd0aEFkanVzdD0ic3BhY2luZyIgZm9udC1zaXplPSIxNCIgZm9udC1mYW1pbHk9InNhbnMtc2VyaWYiIGZpbGw9IiMwMDAwMDAiPsKrQ3JlYXRlwrsgU2hlbGYoKTwvdGV4dD48cmVjdCB5PSI2MDUuODM1OSIgeD0iMzczOCIgd2lkdGg9IjYiIHN0eWxlPSJzdHJva2U6I0M4MjkzMDtzdHJva2Utd2lkdGg6MS4wOyIgaGVpZ2h0PSI2IiBmaWxsPSIjRjI0RDVDIi8+PHRleHQgeT0iNjEyLjE4MjYiIHg9IjM3NTAiIHRleHRMZW5ndGg9IjMwMiIgbGVuZ3RoQWRqdXN0PSJzcGFjaW5nIiBmb250LXNpemU9IjE0IiBmb250LWZhbWlseT0ic2Fucy1zZXJpZiIgZmlsbD0iIzAwMDAwMCI+wqtDcmVhdGXCuyBTaGVsZihPcHRpb25hbCZsdDtPYmplY3RDYXJkJmd0O1tdW10pPC90ZXh0PjxlbGxpcHNlIHN0eWxlPSJzdHJva2U6IzAzODA0ODtzdHJva2Utd2lkdGg6MS4wOyIgcnk9IjMiIHJ4PSIzIiBmaWxsPSIjODRCRTg0IiBjeT0iNjI1LjEzMjgiIGN4PSIzNzQxIi8+PHRleHQgeT0iNjI4LjQ3OTUiIHg9IjM3NTAiIHRleHRMZW5ndGg9IjIxOSIgbGVuZ3RoQWRqdXN0PSJzcGFjaW5nIiBmb250LXNpemU9IjE0IiBmb250LWZhbWlseT0ic2Fucy1zZXJpZiIgZmlsbD0iIzAwMDAwMCI+TGlzdCZsdDtPYmplY3RDYXJkJmd0OyBzaGVsZkNhcmRzKCk8L3RleHQ+PGVsbGlwc2Ugc3R5bGU9InN0cm9rZTojMDM4MDQ4O3N0cm9rZS13aWR0aDoxLjA7IiByeT0iMyIgcng9IjMiIGZpbGw9IiM4NEJFODQiIGN5PSI2NDEuNDI5NyIgY3g9IjM3NDEiLz48dGV4dCB5PSI2NDQuNzc2NCIgeD0iMzc1MCIgdGV4dExlbmd0aD0iMjgyIiBsZW5ndGhBZGp1c3Q9InNwYWNpbmciIGZvbnQtc2l6ZT0iMTQiIGZvbnQtZmFtaWx5PSJzYW5zLXNlcmlmIiBmaWxsPSIjMDAwMDAwIj5PcHRpb25hbCZsdDtPYmplY3RDYXJkJmd0OyBnZXRDYXJkKGludCxpbnQpPC90ZXh0PjxlbGxpcHNlIHN0eWxlPSJzdHJva2U6IzAzODA0ODtzdHJva2Utd2lkdGg6MS4wOyIgcnk9IjMiIHJ4PSIzIiBmaWxsPSIjODRCRTg0IiBjeT0iNjU3LjcyNjYiIGN4PSIzNzQxIi8+PHRleHQgeT0iNjYxLjA3MzIiIHg9IjM3NTAiIHRleHRMZW5ndGg9IjIzMiIgbGVuZ3RoQWRqdXN0PSJzcGFjaW5nIiBmb250LXNpemU9IjE0IiBmb250LWZhbWlseT0ic2Fucy1zZXJpZiIgZmlsbD0iIzAwMDAwMCI+T2JqZWN0Q2FyZCBnZXRQbGFpbkNhcmQoaW50LGludCk8L3RleHQ+PGVsbGlwc2Ugc3R5bGU9InN0cm9rZTojMDM4MDQ4O3N0cm9rZS13aWR0aDoxLjA7IiByeT0iMyIgcng9IjMiIGZpbGw9IiM4NEJFODQiIGN5PSI2NzQuMDIzNCIgY3g9IjM3NDEiLz48dGV4dCB5PSI2NzcuMzcwMSIgeD0iMzc1MCIgdGV4dExlbmd0aD0iMTg3IiBsZW5ndGhBZGp1c3Q9InNwYWNpbmciIGZvbnQtc2l6ZT0iMTQiIGZvbnQtZmFtaWx5PSJzYW5zLXNlcmlmIiBmaWxsPSIjMDAwMDAwIj5pbnQgZ2V0Q2FyZE9yZGluYWwoaW50LGludCk8L3RleHQ+PGVsbGlwc2Ugc3R5bGU9InN0cm9rZTojMDM4MDQ4O3N0cm9rZS13aWR0aDoxLjA7IiByeT0iMyIgcng9IjMiIGZpbGw9IiM4NEJFODQiIGN5PSI2OTAuMzIwMyIgY3g9IjM3NDEiLz48dGV4dCB5PSI2OTMuNjY3IiB4PSIzNzUwIiB0ZXh0TGVuZ3RoPSIyMDQiIGxlbmd0aEFkanVzdD0ic3BhY2luZyIgZm9udC1zaXplPSIxNCIgZm9udC1mYW1pbHk9InNhbnMtc2VyaWYiIGZpbGw9IiMwMDAwMDAiPlN0cmluZyBnZXRDYXJkSW1hZ2UoaW50LGludCk8L3RleHQ+PGVsbGlwc2Ugc3R5bGU9InN0cm9rZTojMDM4MDQ4O3N0cm9rZS13aWR0aDoxLjA7IiByeT0iMyIgcng9IjMiIGZpbGw9IiM4NEJFODQiIGN5PSI3MDYuNjE3MiIgY3g9IjM3NDEiLz48dGV4dCB5PSI3MDkuOTYzOSIgeD0iMzc1MCIgdGV4dExlbmd0aD0iMjgzIiBsZW5ndGhBZGp1c3Q9InNwYWNpbmciIGZvbnQtc2l6ZT0iMTQiIGZvbnQtZmFtaWx5PSJzYW5zLXNlcmlmIiBmaWxsPSIjMDAwMDAwIj5pbnQgZ2V0Q29vcmRpbmF0ZShPYmplY3RDYXJkLGJvb2xlYW4pPC90ZXh0PjxlbGxpcHNlIHN0eWxlPSJzdHJva2U6IzAzODA0ODtzdHJva2Utd2lkdGg6MS4wOyIgcnk9IjMiIHJ4PSIzIiBmaWxsPSIjODRCRTg0IiBjeT0iNzIyLjkxNDEiIGN4PSIzNzQxIi8+PHRleHQgeT0iNzI2LjI2MDciIHg9IjM3NTAiIHRleHRMZW5ndGg9IjIyMiIgbGVuZ3RoQWRqdXN0PSJzcGFjaW5nIiBmb250LXNpemU9IjE0IiBmb250LWZhbWlseT0ic2Fucy1zZXJpZiIgZmlsbD0iIzAwMDAwMCI+dm9pZCBwbGFjZUNhcmQoT2JqZWN0Q2FyZCxpbnQpPC90ZXh0PjxlbGxpcHNlIHN0eWxlPSJzdHJva2U6IzAzODA0ODtzdHJva2Utd2lkdGg6MS4wOyIgcnk9IjMiIHJ4PSIzIiBmaWxsPSIjODRCRTg0IiBjeT0iNzM5LjIxMDkiIGN4PSIzNzQxIi8+PHRleHQgeT0iNzQyLjU1NzYiIHg9IjM3NTAiIHRleHRMZW5ndGg9IjI3NiIgbGVuZ3RoQWRqdXN0PSJzcGFjaW5nIiBmb250LXNpemU9IjE0IiBmb250LWZhbWlseT0ic2Fucy1zZXJpZiIgZmlsbD0iIzAwMDAwMCI+aW50IGV2YWx1YXRlUGF0dGVybihQZXJzb25hbEdvYWxDYXJkKTwvdGV4dD48ZWxsaXBzZSBzdHlsZT0ic3Ryb2tlOiMwMzgwNDg7c3Ryb2tlLXdpZHRoOjEuMDsiIHJ5PSIzIiByeD0iMyIgZmlsbD0iIzg0QkU4NCIgY3k9Ijc1NS41MDc4IiBjeD0iMzc0MSIvPjx0ZXh0IHk9Ijc1OC44NTQ1IiB4PSIzNzUwIiB0ZXh0TGVuZ3RoPSIxMzkiIGxlbmd0aEFkanVzdD0ic3BhY2luZyIgZm9udC1zaXplPSIxNCIgZm9udC1mYW1pbHk9InNhbnMtc2VyaWYiIGZpbGw9IiMwMDAwMDAiPmludCBmaW5hbEV2YWx1YXRpb24oKTwvdGV4dD48ZWxsaXBzZSBzdHlsZT0ic3Ryb2tlOiMwMzgwNDg7c3Ryb2tlLXdpZHRoOjEuMDsiIHJ5PSIzIiByeD0iMyIgZmlsbD0iIzg0QkU4NCIgY3k9Ijc3MS44MDQ3IiBjeD0iMzc0MSIvPjx0ZXh0IHk9Ijc3NS4xNTE0IiB4PSIzNzUwIiB0ZXh0TGVuZ3RoPSIxMDciIGxlbmd0aEFkanVzdD0ic3BhY2luZyIgZm9udC1zaXplPSIxNCIgZm9udC1mYW1pbHk9InNhbnMtc2VyaWYiIGZpbGw9IiMwMDAwMDAiPmJvb2xlYW4gaXNGdWxsKCk8L3RleHQ+PGVsbGlwc2Ugc3R5bGU9InN0cm9rZTojMDM4MDQ4O3N0cm9rZS13aWR0aDoxLjA7IiByeT0iMyIgcng9IjMiIGZpbGw9IiM4NEJFODQiIGN5PSI3ODguMTAxNiIgY3g9IjM3NDEiLz48dGV4dCB5PSI3OTEuNDQ4MiIgeD0iMzc1MCIgdGV4dExlbmd0aD0iMjIwIiBsZW5ndGhBZGp1c3Q9InNwYWNpbmciIGZvbnQtc2l6ZT0iMTQiIGZvbnQtZmFtaWx5PSJzYW5zLXNlcmlmIiBmaWxsPSIjMDAwMDAwIj5pbnQgZW1wdHlTcGFjZXNJbkNvbHVtbihpbnQpPC90ZXh0PjxlbGxpcHNlIHN0eWxlPSJzdHJva2U6IzAzODA0ODtzdHJva2Utd2lkdGg6MS4wOyIgcnk9IjMiIHJ4PSIzIiBmaWxsPSIjODRCRTg0IiBjeT0iODA0LjM5ODQiIGN4PSIzNzQxIi8+PHRleHQgeT0iODA3Ljc0NTEiIHg9IjM3NTAiIHRleHRMZW5ndGg9IjExMyIgbGVuZ3RoQWRqdXN0PSJzcGFjaW5nIiBmb250LXNpemU9IjE0IiBmb250LWZhbWlseT0ic2Fucy1zZXJpZiIgZmlsbD0iIzAwMDAwMCI+U2hlbGYgZ2V0Q29weSgpPC90ZXh0PjwvZz48ZyBpZD0iZWxlbV9PYmplY3RDYXJkVHlwZSI+PHJlY3QgeT0iNTU1IiB4PSI0NTY2LjUiIHdpZHRoPSIyNDMiIHN0eWxlPSJzdHJva2U6I0E4MDAzNjtzdHJva2Utd2lkdGg6MS4wOyIgaWQ9Ik9iamVjdENhcmRUeXBlIiBoZWlnaHQ9IjE5NC42NzE5IiBmaWx0ZXI9InVybCgjZjV1b3Q4ZHl2ZGpybCkiIGZpbGw9IiNGRUZFQ0UiLz48ZWxsaXBzZSBzdHlsZT0ic3Ryb2tlOiNBODAwMzY7c3Ryb2tlLXdpZHRoOjEuMDsiIHJ5PSIxMSIgcng9IjExIiBmaWxsPSIjRUI5MzdGIiBjeT0iNTcxIiBjeD0iNDYyNC43NSIvPjxwYXRoIGZpbGw9IiMwMDAwMDAiIGQ9Ik00NjIzLjU0NjksNTcxLjg3NSBMNDYyNSw1NzEuODc1IEw0NjI1LDU3MS45ODQ0IEM0NjI1LDU3Mi4zOTA2IDQ2MjUuMDMxMyw1NzIuNTQ2OSA0NjI1LjEwOTQsNTcyLjcwMzEgQzQ2MjUuMjY1Niw1NzIuOTUzMSA0NjI1LjU0NjksNTczLjEwOTQgNDYyNS44NDM4LDU3My4xMDk0IEM0NjI2LjA5MzgsNTczLjEwOTQgNDYyNi4zNTk0LDU3Mi45Njg4IDQ2MjYuNTE1Niw1NzIuNzUgQzQ2MjYuNjQwNiw1NzIuNTkzOCA0NjI2LjY3MTksNTcyLjQzNzUgNDYyNi42NzE5LDU3MS45ODQ0IEw0NjI2LjY3MTksNTcwLjA2MjUgQzQ2MjYuNjcxOSw1NjkuOTA2MyA0NjI2LjY3MTksNTY5Ljg1OTQgNDYyNi42NTYzLDU2OS43MDMxIEM0NjI2LjU5MzgsNTY5LjIzNDQgNDYyNi4yODEzLDU2OC45MjE5IDQ2MjUuODI4MSw1NjguOTIxOSBDNDYyNS41NzgxLDU2OC45MjE5IDQ2MjUuMzEyNSw1NjkuMDYyNSA0NjI1LjE0MDYsNTY5LjI4MTMgQzQ2MjUuMDMxMyw1NjkuNDUzMSA0NjI1LDU2OS42MDk0IDQ2MjUsNTcwLjA2MjUgTDQ2MjUsNTcwLjE4NzUgTDQ2MjMuNTQ2OSw1NzAuMTg3NSBMNDYyMy41NDY5LDU2Ny43ODEzIEw0NjI3LjUzMTMsNTY3Ljc4MTMgTDQ2MjcuNTMxMyw1NjguNjQwNiBDNDYyNy41MzEzLDU2OS4wNDY5IDQ2MjcuNTYyNSw1NjkuMjE4OCA0NjI3LjY0MDYsNTY5LjM3NSBDNDYyNy44MTI1LDU2OS42MjUgNDYyOC4wOTM4LDU2OS43ODEzIDQ2MjguMzc1LDU2OS43ODEzIEM0NjI4LjY0MDYsNTY5Ljc4MTMgNDYyOC45MDYzLDU2OS42NDA2IDQ2MjkuMDc4MSw1NjkuNDIxOSBDNDYyOS4xODc1LDU2OS4yNSA0NjI5LjIxODgsNTY5LjEwOTQgNDYyOS4yMTg4LDU2OC42NDA2IEw0NjI5LjIxODgsNTY2LjA5MzggTDQ2MjEuNTkzOCw1NjYuMDkzOCBDNDYyMS4xNTYzLDU2Ni4wOTM4IDQ2MjEuMDMxMyw1NjYuMTA5NCA0NjIwLjg3NSw1NjYuMjAzMSBDNDYyMC42MjUsNTY2LjM1OTQgNDYyMC40Njg4LDU2Ni42NTYzIDQ2MjAuNDY4OCw1NjYuOTM3NSBDNDYyMC40Njg4LDU2Ny4yMTg4IDQ2MjAuNjA5NCw1NjcuNDY4OCA0NjIwLjgyODEsNTY3LjY0MDYgQzQ2MjAuOTg0NCw1NjcuNzUgNDYyMS4xNzE5LDU2Ny43ODEzIDQ2MjEuNTkzOCw1NjcuNzgxMyBMNDYyMS44NDM4LDU2Ny43ODEzIEw0NjIxLjg0MzgsNTc0LjI5NjkgTDQ2MjEuNTkzOCw1NzQuMjk2OSBDNDYyMS4xODc1LDU3NC4yOTY5IDQ2MjEuMDMxMyw1NzQuMzEyNSA0NjIwLjg3NSw1NzQuNDIxOSBDNDYyMC42MjUsNTc0LjU5MzggNDYyMC40Njg4LDU3NC44NTk0IDQ2MjAuNDY4OCw1NzUuMTU2MyBDNDYyMC40Njg4LDU3NS40MjE5IDQ2MjAuNjA5NCw1NzUuNjcxOSA0NjIwLjgyODEsNTc1LjgyODEgQzQ2MjAuOTY4OCw1NzUuOTUzMSA0NjIxLjIwMzEsNTc2IDQ2MjEuNTkzOCw1NzYgTDQ2MjkuNTkzOCw1NzYgTDQ2MjkuNTkzOCw1NzMuNDIxOSBDNDYyOS41OTM4LDU3Mi45ODQ0IDQ2MjkuNTYyNSw1NzIuODQzOCA0NjI5LjQ4NDQsNTcyLjY4NzUgQzQ2MjkuMzEyNSw1NzIuNDM3NSA0NjI5LjAzMTMsNTcyLjI4MTMgNDYyOC43NSw1NzIuMjgxMyBDNDYyOC40ODQ0LDU3Mi4yODEzIDQ2MjguMjE4OCw1NzIuMzkwNiA0NjI4LjA0NjksNTcyLjY0MDYgQzQ2MjcuOTM3NSw1NzIuNzk2OSA0NjI3LjkwNjMsNTcyLjkzNzUgNDYyNy45MDYzLDU3My40MjE5IEw0NjI3LjkwNjMsNTc0LjI5NjkgTDQ2MjMuNTQ2OSw1NzQuMjk2OSBMNDYyMy41NDY5LDU3MS44NzUgWiIvPjx0ZXh0IHk9IjU3NS44NDY3IiB4PSI0NjQ1LjI1IiB0ZXh0TGVuZ3RoPSIxMTgiIGxlbmd0aEFkanVzdD0ic3BhY2luZyIgZm9udC1zaXplPSIxNCIgZm9udC1mYW1pbHk9InNhbnMtc2VyaWYiIGZpbGw9IiMwMDAwMDAiPk9iamVjdENhcmRUeXBlPC90ZXh0PjxsaW5lIHkyPSI1ODciIHkxPSI1ODciIHgyPSI0ODA4LjUiIHgxPSI0NTY3LjUiIHN0eWxlPSJzdHJva2U6I0E4MDAzNjtzdHJva2Utd2lkdGg6MS4wOyIvPjxlbGxpcHNlIHN0eWxlPSJzdHJva2U6IzAzODA0ODtzdHJva2Utd2lkdGg6MS4wOyIgcnk9IjMiIHJ4PSIzIiBmaWxsPSJub25lIiBjeT0iNjAwLjY0ODQiIGN4PSI0NTc3LjUiLz48dGV4dCB5PSI2MDMuOTk1MSIgeD0iNDU4Ni41IiB0ZXh0TGVuZ3RoPSIzOCIgbGVuZ3RoQWRqdXN0PSJzcGFjaW5nIiBmb250LXNpemU9IjE0IiBmb250LWZhbWlseT0ic2Fucy1zZXJpZiIgZmlsbD0iIzAwMDAwMCI+Q0FUUzwvdGV4dD48ZWxsaXBzZSBzdHlsZT0ic3Ryb2tlOiMwMzgwNDg7c3Ryb2tlLXdpZHRoOjEuMDsiIHJ5PSIzIiByeD0iMyIgZmlsbD0ibm9uZSIgY3k9IjYxNi45NDUzIiBjeD0iNDU3Ny41Ii8+PHRleHQgeT0iNjIwLjI5MiIgeD0iNDU4Ni41IiB0ZXh0TGVuZ3RoPSI1MSIgbGVuZ3RoQWRqdXN0PSJzcGFjaW5nIiBmb250LXNpemU9IjE0IiBmb250LWZhbWlseT0ic2Fucy1zZXJpZiIgZmlsbD0iIzAwMDAwMCI+Qk9PS1M8L3RleHQ+PGVsbGlwc2Ugc3R5bGU9InN0cm9rZTojMDM4MDQ4O3N0cm9rZS13aWR0aDoxLjA7IiByeT0iMyIgcng9IjMiIGZpbGw9Im5vbmUiIGN5PSI2MzMuMjQyMiIgY3g9IjQ1NzcuNSIvPjx0ZXh0IHk9IjYzNi41ODg5IiB4PSI0NTg2LjUiIHRleHRMZW5ndGg9IjUxIiBsZW5ndGhBZGp1c3Q9InNwYWNpbmciIGZvbnQtc2l6ZT0iMTQiIGZvbnQtZmFtaWx5PSJzYW5zLXNlcmlmIiBmaWxsPSIjMDAwMDAwIj5HQU1FUzwvdGV4dD48ZWxsaXBzZSBzdHlsZT0ic3Ryb2tlOiMwMzgwNDg7c3Ryb2tlLXdpZHRoOjEuMDsiIHJ5PSIzIiByeD0iMyIgZmlsbD0ibm9uZSIgY3k9IjY0OS41MzkxIiBjeD0iNDU3Ny41Ii8+PHRleHQgeT0iNjUyLjg4NTciIHg9IjQ1ODYuNSIgdGV4dExlbmd0aD0iNTgiIGxlbmd0aEFkanVzdD0ic3BhY2luZyIgZm9udC1zaXplPSIxNCIgZm9udC1mYW1pbHk9InNhbnMtc2VyaWYiIGZpbGw9IiMwMDAwMDAiPkZSQU1FUzwvdGV4dD48ZWxsaXBzZSBzdHlsZT0ic3Ryb2tlOiMwMzgwNDg7c3Ryb2tlLXdpZHRoOjEuMDsiIHJ5PSIzIiByeD0iMyIgZmlsbD0ibm9uZSIgY3k9IjY2NS44MzU5IiBjeD0iNDU3Ny41Ii8+PHRleHQgeT0iNjY5LjE4MjYiIHg9IjQ1ODYuNSIgdGV4dExlbmd0aD0iNzEiIGxlbmd0aEFkanVzdD0ic3BhY2luZyIgZm9udC1zaXplPSIxNCIgZm9udC1mYW1pbHk9InNhbnMtc2VyaWYiIGZpbGw9IiMwMDAwMDAiPlRST1BISUVTPC90ZXh0PjxlbGxpcHNlIHN0eWxlPSJzdHJva2U6IzAzODA0ODtzdHJva2Utd2lkdGg6MS4wOyIgcnk9IjMiIHJ4PSIzIiBmaWxsPSJub25lIiBjeT0iNjgyLjEzMjgiIGN4PSI0NTc3LjUiLz48dGV4dCB5PSI2ODUuNDc5NSIgeD0iNDU4Ni41IiB0ZXh0TGVuZ3RoPSI1NSIgbGVuZ3RoQWRqdXN0PSJzcGFjaW5nIiBmb250LXNpemU9IjE0IiBmb250LWZhbWlseT0ic2Fucy1zZXJpZiIgZmlsbD0iIzAwMDAwMCI+UExBTlRTPC90ZXh0PjxyZWN0IHk9IjY5NS40Mjk3IiB4PSI0NTc0LjUiIHdpZHRoPSI2IiBzdHlsZT0ic3Ryb2tlOiNDODI5MzA7c3Ryb2tlLXdpZHRoOjEuMDsiIGhlaWdodD0iNiIgZmlsbD0ibm9uZSIvPjx0ZXh0IHk9IjcwMS43NzY0IiB4PSI0NTg2LjUiIHRleHRMZW5ndGg9IjQ4IiBsZW5ndGhBZGp1c3Q9InNwYWNpbmciIGZvbnQtc2l6ZT0iMTQiIGZvbnQtZmFtaWx5PSJzYW5zLXNlcmlmIiBmaWxsPSIjMDAwMDAwIj5pbnQgb3JkPC90ZXh0PjxsaW5lIHkyPSI3MDkuMDc4MSIgeTE9IjcwOS4wNzgxIiB4Mj0iNDgwOC41IiB4MT0iNDU2Ny41IiBzdHlsZT0ic3Ryb2tlOiNBODAwMzY7c3Ryb2tlLXdpZHRoOjEuMDsiLz48cG9seWdvbiBzdHlsZT0ic3Ryb2tlOiMxOTYzQTA7c3Ryb2tlLXdpZHRoOjEuMDsiIHBvaW50cz0iNDU3Ny41LDcxOC43MjY2LDQ1NzMuNSw3MjQuNzI2Niw0NTgxLjUsNzI0LjcyNjYiIGZpbGw9IiM0MTc3QUYiLz48dGV4dCB5PSI3MjYuMDczMiIgeD0iNDU4Ni41IiB0ZXh0TGVuZ3RoPSIyMTciIGxlbmd0aEFkanVzdD0ic3BhY2luZyIgZm9udC1zaXplPSIxNCIgZm9udC1mYW1pbHk9InNhbnMtc2VyaWYiIGZpbGw9IiMwMDAwMDAiPsKrQ3JlYXRlwrsgT2JqZWN0Q2FyZFR5cGUoaW50KTwvdGV4dD48ZWxsaXBzZSBzdHlsZT0ic3Ryb2tlOiMwMzgwNDg7c3Ryb2tlLXdpZHRoOjEuMDsiIHJ5PSIzIiByeD0iMyIgZmlsbD0iIzg0QkU4NCIgY3k9IjczOS4wMjM0IiBjeD0iNDU3Ny41Ii8+PHRleHQgeT0iNzQyLjM3MDEiIHg9IjQ1ODYuNSIgdGV4dExlbmd0aD0iODUiIGxlbmd0aEFkanVzdD0ic3BhY2luZyIgZm9udC1zaXplPSIxNCIgZm9udC1mYW1pbHk9InNhbnMtc2VyaWYiIGZpbGw9IiMwMDAwMDAiPmludCBnZXRPcmQoKTwvdGV4dD48L2c+PGcgaWQ9ImVsZW1fUGxheWVyIj48cmVjdCB5PSIxMDIxLjUiIHg9IjM1MTIuNSIgd2lkdGg9IjY2MSIgc3R5bGU9InN0cm9rZTojQTgwMDM2O3N0cm9rZS13aWR0aDoxLjA7IiBpZD0iUGxheWVyIiBoZWlnaHQ9IjQ4OC4wMTU2IiBmaWx0ZXI9InVybCgjZjV1b3Q4ZHl2ZGpybCkiIGZpbGw9IiNGRUZFQ0UiLz48ZWxsaXBzZSBzdHlsZT0ic3Ryb2tlOiNBODAwMzY7c3Ryb2tlLXdpZHRoOjEuMDsiIHJ5PSIxMSIgcng9IjExIiBmaWxsPSIjQUREMUIyIiBjeT0iMTAzNy41IiBjeD0iMzgxNi43NSIvPjxwYXRoIGZpbGw9IiMwMDAwMDAiIGQ9Ik0zODE5LjA5MzgsMTAzMy4xNzE5IEMzODE4LjE1NjMsMTAzMi43MzQ0IDM4MTcuNTYyNSwxMDMyLjU5MzggMzgxNi42ODc1LDEwMzIuNTkzOCBDMzgxNC4wNjI1LDEwMzIuNTkzOCAzODEyLjA2MjUsMTAzNC42NzE5IDM4MTIuMDYyNSwxMDM3LjM5MDYgTDM4MTIuMDYyNSwxMDM4LjUxNTYgQzM4MTIuMDYyNSwxMDQxLjA5MzggMzgxNC4xNzE5LDEwNDIuOTg0NCAzODE3LjA2MjUsMTA0Mi45ODQ0IEMzODE4LjI4MTMsMTA0Mi45ODQ0IDM4MTkuNDM3NSwxMDQyLjY4NzUgMzgyMC4xODc1LDEwNDIuMTQwNiBDMzgyMC43NjU2LDEwNDEuNzM0NCAzODIxLjA5MzgsMTA0MS4yODEzIDM4MjEuMDkzOCwxMDQwLjg5MDYgQzM4MjEuMDkzOCwxMDQwLjQzNzUgMzgyMC43MDMxLDEwNDAuMDQ2OSAzODIwLjIzNDQsMTA0MC4wNDY5IEMzODIwLjAxNTYsMTA0MC4wNDY5IDM4MTkuODEyNSwxMDQwLjEyNSAzODE5LjYyNSwxMDQwLjMxMjUgQzM4MTkuMTcxOSwxMDQwLjc5NjkgMzgxOS4xNzE5LDEwNDAuNzk2OSAzODE4Ljk4NDQsMTA0MC44OTA2IEMzODE4LjU2MjUsMTA0MS4xNTYzIDM4MTcuODc1LDEwNDEuMjgxMyAzODE3LjEwOTQsMTA0MS4yODEzIEMzODE1LjA2MjUsMTA0MS4yODEzIDM4MTMuNzY1NiwxMDQwLjE4NzUgMzgxMy43NjU2LDEwMzguNDg0NCBMMzgxMy43NjU2LDEwMzcuMzkwNiBDMzgxMy43NjU2LDEwMzUuNjA5NCAzODE1LjAxNTYsMTAzNC4yOTY5IDM4MTYuNzUsMTAzNC4yOTY5IEMzODE3LjMyODEsMTAzNC4yOTY5IDM4MTcuOTM3NSwxMDM0LjQ1MzEgMzgxOC40MDYzLDEwMzQuNzAzMSBDMzgxOC44OTA2LDEwMzQuOTg0NCAzODE5LjA2MjUsMTAzNS4yMDMxIDM4MTkuMTU2MywxMDM1LjYwOTQgQzM4MTkuMjE4OCwxMDM2LjAxNTYgMzgxOS4yNSwxMDM2LjE0MDYgMzgxOS4zOTA2LDEwMzYuMjY1NiBDMzgxOS41MzEzLDEwMzYuNDA2MyAzODE5Ljc2NTYsMTAzNi41MTU2IDM4MTkuOTg0NCwxMDM2LjUxNTYgQzM4MjAuMjUsMTAzNi41MTU2IDM4MjAuNTE1NiwxMDM2LjM3NSAzODIwLjY4NzUsMTAzNi4xNTYzIEMzODIwLjc5NjksMTAzNiAzODIwLjgyODEsMTAzNS44MTI1IDM4MjAuODI4MSwxMDM1LjM5MDYgTDM4MjAuODI4MSwxMDMzLjk2ODggQzM4MjAuODI4MSwxMDMzLjUzMTMgMzgyMC44MTI1LDEwMzMuNDA2MyAzODIwLjcxODgsMTAzMy4yNSBDMzgyMC41NjI1LDEwMzIuOTg0NCAzODIwLjI4MTMsMTAzMi44NDM4IDM4MTkuOTg0NCwxMDMyLjg0MzggQzM4MTkuNjg3NSwxMDMyLjg0MzggMzgxOS40ODQ0LDEwMzIuOTM3NSAzODE5LjI2NTYsMTAzMy4yNSBMMzgxOS4wOTM4LDEwMzMuMTcxOSBaIi8+PHRleHQgeT0iMTA0Mi4zNDY3IiB4PSIzODM3LjI1IiB0ZXh0TGVuZ3RoPSI0NCIgbGVuZ3RoQWRqdXN0PSJzcGFjaW5nIiBmb250LXNpemU9IjE0IiBmb250LWZhbWlseT0ic2Fucy1zZXJpZiIgZmlsbD0iIzAwMDAwMCI+UGxheWVyPC90ZXh0PjxsaW5lIHkyPSIxMDUzLjUiIHkxPSIxMDUzLjUiIHgyPSI0MTcyLjUiIHgxPSIzNTEzLjUiIHN0eWxlPSJzdHJva2U6I0E4MDAzNjtzdHJva2Utd2lkdGg6MS4wOyIvPjxyZWN0IHk9IjEwNjQuMTQ4NCIgeD0iMzUyMC41IiB3aWR0aD0iNiIgc3R5bGU9InN0cm9rZTojQzgyOTMwO3N0cm9rZS13aWR0aDoxLjA7IiBoZWlnaHQ9IjYiIGZpbGw9Im5vbmUiLz48dGV4dCB5PSIxMDcwLjQ5NTEiIHg9IjM1MzIuNSIgdGV4dExlbmd0aD0iMTE4IiBsZW5ndGhBZGp1c3Q9InNwYWNpbmciIGZvbnQtc2l6ZT0iMTQiIGZvbnQtZmFtaWx5PSJzYW5zLXNlcmlmIiBmaWxsPSIjMDAwMDAwIj5TdHJpbmcgbmlja25hbWU8L3RleHQ+PHJlY3QgeT0iMTA4MC40NDUzIiB4PSIzNTIwLjUiIHdpZHRoPSI2IiBzdHlsZT0ic3Ryb2tlOiNDODI5MzA7c3Ryb2tlLXdpZHRoOjEuMDsiIGhlaWdodD0iNiIgZmlsbD0ibm9uZSIvPjx0ZXh0IHk9IjEwODYuNzkyIiB4PSIzNTMyLjUiIHRleHRMZW5ndGg9IjIyMCIgbGVuZ3RoQWRqdXN0PSJzcGFjaW5nIiBmb250LXNpemU9IjE0IiBmb250LWZhbWlseT0ic2Fucy1zZXJpZiIgZmlsbD0iIzAwMDAwMCI+U3RhY2smbHQ7U2NvcmVDYXJkJmd0OyBzY29yZUNhcmRzPC90ZXh0PjxyZWN0IHk9IjEwOTYuNzQyMiIgeD0iMzUyMC41IiB3aWR0aD0iNiIgc3R5bGU9InN0cm9rZTojQzgyOTMwO3N0cm9rZS13aWR0aDoxLjA7IiBoZWlnaHQ9IjYiIGZpbGw9Im5vbmUiLz48dGV4dCB5PSIxMTAzLjA4ODkiIHg9IjM1MzIuNSIgdGV4dExlbmd0aD0iMzU2IiBsZW5ndGhBZGp1c3Q9InNwYWNpbmciIGZvbnQtc2l6ZT0iMTQiIGZvbnQtZmFtaWx5PSJzYW5zLXNlcmlmIiBmaWxsPSIjMDAwMDAwIj5NYXAmbHQ7U2NvcmVDYXJkLENvbW1vbkdvYWxDYXJkJmd0OyBsYXN0QWNoaWV2ZWQ8L3RleHQ+PHJlY3QgeT0iMTExMy4wMzkxIiB4PSIzNTIwLjUiIHdpZHRoPSI2IiBzdHlsZT0ic3Ryb2tlOiNDODI5MzA7c3Ryb2tlLXdpZHRoOjEuMDsiIGhlaWdodD0iNiIgZmlsbD0ibm9uZSIvPjx0ZXh0IHk9IjExMTkuMzg1NyIgeD0iMzUzMi41IiB0ZXh0TGVuZ3RoPSI4MyIgbGVuZ3RoQWRqdXN0PSJzcGFjaW5nIiBmb250LXNpemU9IjE0IiBmb250LWZhbWlseT0ic2Fucy1zZXJpZiIgZmlsbD0iIzAwMDAwMCI+aW50IHBvc2l0aW9uPC90ZXh0PjxyZWN0IHk9IjExMjkuMzM1OSIgeD0iMzUyMC41IiB3aWR0aD0iNiIgc3R5bGU9InN0cm9rZTojQzgyOTMwO3N0cm9rZS13aWR0aDoxLjA7IiBoZWlnaHQ9IjYiIGZpbGw9Im5vbmUiLz48dGV4dCB5PSIxMTM1LjY4MjYiIHg9IjM1MzIuNSIgdGV4dExlbmd0aD0iNjMiIGxlbmd0aEFkanVzdD0ic3BhY2luZyIgZm9udC1zaXplPSIxNCIgZm9udC1mYW1pbHk9InNhbnMtc2VyaWYiIGZpbGw9IiMwMDAwMDAiPmludCBzY29yZTwvdGV4dD48cmVjdCB5PSIxMTQ1LjYzMjgiIHg9IjM1MjAuNSIgd2lkdGg9IjYiIHN0eWxlPSJzdHJva2U6I0M4MjkzMDtzdHJva2Utd2lkdGg6MS4wOyIgaGVpZ2h0PSI2IiBmaWxsPSJub25lIi8+PHRleHQgeT0iMTE1MS45Nzk1IiB4PSIzNTMyLjUiIHRleHRMZW5ndGg9IjE5MyIgbGVuZ3RoQWRqdXN0PSJzcGFjaW5nIiBmb250LXNpemU9IjE0IiBmb250LWZhbWlseT0ic2Fucy1zZXJpZiIgZmlsbD0iIzAwMDAwMCI+Q29tbW9uR29hbENhcmQgY2dDYXJkMTwvdGV4dD48cmVjdCB5PSIxMTYxLjkyOTciIHg9IjM1MjAuNSIgd2lkdGg9IjYiIHN0eWxlPSJzdHJva2U6I0M4MjkzMDtzdHJva2Utd2lkdGg6MS4wOyIgaGVpZ2h0PSI2IiBmaWxsPSJub25lIi8+PHRleHQgeT0iMTE2OC4yNzY0IiB4PSIzNTMyLjUiIHRleHRMZW5ndGg9IjE5MiIgbGVuZ3RoQWRqdXN0PSJzcGFjaW5nIiBmb250LXNpemU9IjE0IiBmb250LWZhbWlseT0ic2Fucy1zZXJpZiIgZmlsbD0iIzAwMDAwMCI+Q29tbW9uR29hbENhcmQgY2dDYXJkMjwvdGV4dD48cmVjdCB5PSIxMTc4LjIyNjYiIHg9IjM1MjAuNSIgd2lkdGg9IjYiIHN0eWxlPSJzdHJva2U6I0M4MjkzMDtzdHJva2Utd2lkdGg6MS4wOyIgaGVpZ2h0PSI2IiBmaWxsPSJub25lIi8+PHRleHQgeT0iMTE4NC41NzMyIiB4PSIzNTMyLjUiIHRleHRMZW5ndGg9Ijc2IiBsZW5ndGhBZGp1c3Q9InNwYWNpbmciIGZvbnQtc2l6ZT0iMTQiIGZvbnQtZmFtaWx5PSJzYW5zLXNlcmlmIiBmaWxsPSIjMDAwMDAwIj5TaGVsZiBzaGVsZjwvdGV4dD48cmVjdCB5PSIxMTk0LjUyMzQiIHg9IjM1MjAuNSIgd2lkdGg9IjYiIHN0eWxlPSJzdHJva2U6I0M4MjkzMDtzdHJva2Utd2lkdGg6MS4wOyIgaGVpZ2h0PSI2IiBmaWxsPSJub25lIi8+PHRleHQgeT0iMTIwMC44NzAxIiB4PSIzNTMyLjUiIHRleHRMZW5ndGg9IjE4MiIgbGVuZ3RoQWRqdXN0PSJzcGFjaW5nIiBmb250LXNpemU9IjE0IiBmb250LWZhbWlseT0ic2Fucy1zZXJpZiIgZmlsbD0iIzAwMDAwMCI+UGVyc29uYWxHb2FsQ2FyZCBwZ0NhcmQ8L3RleHQ+PHJlY3QgeT0iMTIxMC44MjAzIiB4PSIzNTIwLjUiIHdpZHRoPSI2IiBzdHlsZT0ic3Ryb2tlOiNDODI5MzA7c3Ryb2tlLXdpZHRoOjEuMDsiIGhlaWdodD0iNiIgZmlsbD0ibm9uZSIvPjx0ZXh0IHk9IjEyMTcuMTY3IiB4PSIzNTMyLjUiIHRleHRMZW5ndGg9IjExNyIgbGVuZ3RoQWRqdXN0PSJzcGFjaW5nIiBmb250LXNpemU9IjE0IiBmb250LWZhbWlseT0ic2Fucy1zZXJpZiIgZmlsbD0iIzAwMDAwMCI+Ym9vbGVhbiBpbkdhbWU8L3RleHQ+PHJlY3QgeT0iMTIyNy4xMTcyIiB4PSIzNTIwLjUiIHdpZHRoPSI2IiBzdHlsZT0ic3Ryb2tlOiNDODI5MzA7c3Ryb2tlLXdpZHRoOjEuMDsiIGhlaWdodD0iNiIgZmlsbD0ibm9uZSIvPjx0ZXh0IHk9IjEyMzMuNDYzOSIgeD0iMzUzMi41IiB0ZXh0TGVuZ3RoPSIxNTYiIGxlbmd0aEFkanVzdD0ic3BhY2luZyIgZm9udC1zaXplPSIxNCIgZm9udC1mYW1pbHk9InNhbnMtc2VyaWYiIGZpbGw9IiMwMDAwMDAiPmJvb2xlYW4gYWNoaWV2ZWRDRzE8L3RleHQ+PGxpbmUgeTI9IjEyNDAuNzY1NiIgeTE9IjEyNDAuNzY1NiIgeDI9IjQxNzIuNSIgeDE9IjM1MTMuNSIgc3R5bGU9InN0cm9rZTojQTgwMDM2O3N0cm9rZS13aWR0aDoxLjA7Ii8+PHBvbHlnb24gc3R5bGU9InN0cm9rZTojMTk2M0EwO3N0cm9rZS13aWR0aDoxLjA7IiBwb2ludHM9IjM1MjMuNSwxMjUwLjQxNDEsMzUxOS41LDEyNTYuNDE0MSwzNTI3LjUsMTI1Ni40MTQxIiBmaWxsPSIjNDE3N0FGIi8+PHRleHQgeT0iMTI1Ny43NjA3IiB4PSIzNTMyLjUiIHRleHRMZW5ndGg9IjYzNSIgbGVuZ3RoQWRqdXN0PSJzcGFjaW5nIiBmb250LXNpemU9IjE0IiBmb250LWZhbWlseT0ic2Fucy1zZXJpZiIgZmlsbD0iIzAwMDAwMCI+wqtDcmVhdGXCuyBQbGF5ZXIoU3RyaW5nLFBlcnNvbmFsR29hbENhcmQsQ29tbW9uR29hbENhcmQsQ29tbW9uR29hbENhcmQsaW50LEJvYXJkKTwvdGV4dD48ZWxsaXBzZSBzdHlsZT0ic3Ryb2tlOiMwMzgwNDg7c3Ryb2tlLXdpZHRoOjEuMDsiIHJ5PSIzIiByeD0iMyIgZmlsbD0iIzg0QkU4NCIgY3k9IjEyNzAuNzEwOSIgY3g9IjM1MjMuNSIvPjx0ZXh0IHk9IjEyNzQuMDU3NiIgeD0iMzUzMi41IiB0ZXh0TGVuZ3RoPSIxNjciIGxlbmd0aEFkanVzdD0ic3BhY2luZyIgZm9udC1zaXplPSIxNCIgZm9udC1mYW1pbHk9InNhbnMtc2VyaWYiIGZpbGw9IiMwMDAwMDAiPsKrQ3JlYXRlwrsgUGxheWVyKFN0cmluZyk8L3RleHQ+PGVsbGlwc2Ugc3R5bGU9InN0cm9rZTojMDM4MDQ4O3N0cm9rZS13aWR0aDoxLjA7IiByeT0iMyIgcng9IjMiIGZpbGw9IiM4NEJFODQiIGN5PSIxMjg3LjAwNzgiIGN4PSIzNTIzLjUiLz48dGV4dCB5PSIxMjkwLjM1NDUiIHg9IjM1MzIuNSIgdGV4dExlbmd0aD0iNjMyIiBsZW5ndGhBZGp1c3Q9InNwYWNpbmciIGZvbnQtc2l6ZT0iMTQiIGZvbnQtZmFtaWx5PSJzYW5zLXNlcmlmIiBmaWxsPSIjMDAwMDAwIj52b2lkIHNldEdhbWVQYXJhbWV0ZXJzKFBlcnNvbmFsR29hbENhcmQsQ29tbW9uR29hbENhcmQsQ29tbW9uR29hbENhcmQsQm9hcmQpPC90ZXh0PjxlbGxpcHNlIHN0eWxlPSJzdHJva2U6IzAzODA0ODtzdHJva2Utd2lkdGg6MS4wOyIgcnk9IjMiIHJ4PSIzIiBmaWxsPSIjODRCRTg0IiBjeT0iMTMwMy4zMDQ3IiBjeD0iMzUyMy41Ii8+PHRleHQgeT0iMTMwNi42NTE0IiB4PSIzNTMyLjUiIHRleHRMZW5ndGg9IjE1NCIgbGVuZ3RoQWRqdXN0PSJzcGFjaW5nIiBmb250LXNpemU9IjE0IiBmb250LWZhbWlseT0ic2Fucy1zZXJpZiIgZmlsbD0iIzAwMDAwMCI+U3RyaW5nIGdldE5pY2tuYW1lKCk8L3RleHQ+PGVsbGlwc2Ugc3R5bGU9InN0cm9rZTojMDM4MDQ4O3N0cm9rZS13aWR0aDoxLjA7IiByeT0iMyIgcng9IjMiIGZpbGw9IiM4NEJFODQiIGN5PSIxMzE5LjYwMTYiIGN4PSIzNTIzLjUiLz48dGV4dCB5PSIxMzIyLjk0ODIiIHg9IjM1MzIuNSIgdGV4dExlbmd0aD0iMTE3IiBsZW5ndGhBZGp1c3Q9InNwYWNpbmciIGZvbnQtc2l6ZT0iMTQiIGZvbnQtZmFtaWx5PSJzYW5zLXNlcmlmIiBmaWxsPSIjMDAwMDAwIj5pbnQgZ2V0UG9zaXRpb24oKTwvdGV4dD48ZWxsaXBzZSBzdHlsZT0ic3Ryb2tlOiMwMzgwNDg7c3Ryb2tlLXdpZHRoOjEuMDsiIHJ5PSIzIiByeD0iMyIgZmlsbD0iIzg0QkU4NCIgY3k9IjEzMzUuODk4NCIgY3g9IjM1MjMuNSIvPjx0ZXh0IHk9IjEzMzkuMjQ1MSIgeD0iMzUzMi41IiB0ZXh0TGVuZ3RoPSIxNDUiIGxlbmd0aEFkanVzdD0ic3BhY2luZyIgZm9udC1zaXplPSIxNCIgZm9udC1mYW1pbHk9InNhbnMtc2VyaWYiIGZpbGw9IiMwMDAwMDAiPnZvaWQgc2V0UG9zaXRpb24oaW50KTwvdGV4dD48ZWxsaXBzZSBzdHlsZT0ic3Ryb2tlOiMwMzgwNDg7c3Ryb2tlLXdpZHRoOjEuMDsiIHJ5PSIzIiByeD0iMyIgZmlsbD0iIzg0QkU4NCIgY3k9IjEzNTIuMTk1MyIgY3g9IjM1MjMuNSIvPjx0ZXh0IHk9IjEzNTUuNTQyIiB4PSIzNTMyLjUiIHRleHRMZW5ndGg9IjEwMCIgbGVuZ3RoQWRqdXN0PSJzcGFjaW5nIiBmb250LXNpemU9IjE0IiBmb250LWZhbWlseT0ic2Fucy1zZXJpZiIgZmlsbD0iIzAwMDAwMCI+aW50IGdldFNjb3JlKCk8L3RleHQ+PGVsbGlwc2Ugc3R5bGU9InN0cm9rZTojMDM4MDQ4O3N0cm9rZS13aWR0aDoxLjA7IiByeT0iMyIgcng9IjMiIGZpbGw9IiM4NEJFODQiIGN5PSIxMzY4LjQ5MjIiIGN4PSIzNTIzLjUiLz48dGV4dCB5PSIxMzcxLjgzODkiIHg9IjM1MzIuNSIgdGV4dExlbmd0aD0iMTEzIiBsZW5ndGhBZGp1c3Q9InNwYWNpbmciIGZvbnQtc2l6ZT0iMTQiIGZvbnQtZmFtaWx5PSJzYW5zLXNlcmlmIiBmaWxsPSIjMDAwMDAwIj5TaGVsZiBnZXRTaGVsZigpPC90ZXh0PjxlbGxpcHNlIHN0eWxlPSJzdHJva2U6IzAzODA0ODtzdHJva2Utd2lkdGg6MS4wOyIgcnk9IjMiIHJ4PSIzIiBmaWxsPSIjODRCRTg0IiBjeT0iMTM4NC43ODkxIiBjeD0iMzUyMy41Ii8+PHRleHQgeT0iMTM4OC4xMzU3IiB4PSIzNTMyLjUiIHRleHRMZW5ndGg9IjI5MSIgbGVuZ3RoQWRqdXN0PSJzcGFjaW5nIiBmb250LXNpemU9IjE0IiBmb250LWZhbWlseT0ic2Fucy1zZXJpZiIgZmlsbD0iIzAwMDAwMCI+UGVyc29uYWxHb2FsQ2FyZCBnZXRQZXJzb25hbEdvYWxDYXJkKCk8L3RleHQ+PGVsbGlwc2Ugc3R5bGU9InN0cm9rZTojMDM4MDQ4O3N0cm9rZS13aWR0aDoxLjA7IiByeT0iMyIgcng9IjMiIGZpbGw9IiM4NEJFODQiIGN5PSIxNDAxLjA4NTkiIGN4PSIzNTIzLjUiLz48dGV4dCB5PSIxNDA0LjQzMjYiIHg9IjM1MzIuNSIgdGV4dExlbmd0aD0iMTM2IiBsZW5ndGhBZGp1c3Q9InNwYWNpbmciIGZvbnQtc2l6ZT0iMTQiIGZvbnQtZmFtaWx5PSJzYW5zLXNlcmlmIiBmaWxsPSIjMDAwMDAwIj52b2lkIHVwZGF0ZVNjb3JlKCk8L3RleHQ+PGVsbGlwc2Ugc3R5bGU9InN0cm9rZTojMDM4MDQ4O3N0cm9rZS13aWR0aDoxLjA7IiByeT0iMyIgcng9IjMiIGZpbGw9IiM4NEJFODQiIGN5PSIxNDE3LjM4MjgiIGN4PSIzNTIzLjUiLz48dGV4dCB5PSIxNDIwLjcyOTUiIHg9IjM1MzIuNSIgdGV4dExlbmd0aD0iMTM4IiBsZW5ndGhBZGp1c3Q9InNwYWNpbmciIGZvbnQtc2l6ZT0iMTQiIGZvbnQtZmFtaWx5PSJzYW5zLXNlcmlmIiBmaWxsPSIjMDAwMDAwIj5ib29sZWFuIGlzSW5HYW1lKCk8L3RleHQ+PGVsbGlwc2Ugc3R5bGU9InN0cm9rZTojMDM4MDQ4O3N0cm9rZS13aWR0aDoxLjA7IiByeT0iMyIgcng9IjMiIGZpbGw9IiM4NEJFODQiIGN5PSIxNDMzLjY3OTciIGN4PSIzNTIzLjUiLz48dGV4dCB5PSIxNDM3LjAyNjQiIHg9IjM1MzIuNSIgdGV4dExlbmd0aD0iMTQyIiBsZW5ndGhBZGp1c3Q9InNwYWNpbmciIGZvbnQtc2l6ZT0iMTQiIGZvbnQtZmFtaWx5PSJzYW5zLXNlcmlmIiBmaWxsPSIjMDAwMDAwIj52b2lkIHNldE91dE9mVHVybigpPC90ZXh0PjxlbGxpcHNlIHN0eWxlPSJzdHJva2U6IzAzODA0ODtzdHJva2Utd2lkdGg6MS4wOyIgcnk9IjMiIHJ4PSIzIiBmaWxsPSIjODRCRTg0IiBjeT0iMTQ0OS45NzY2IiBjeD0iMzUyMy41Ii8+PHRleHQgeT0iMTQ1My4zMjMyIiB4PSIzNTMyLjUiIHRleHRMZW5ndGg9IjEzNSIgbGVuZ3RoQWRqdXN0PSJzcGFjaW5nIiBmb250LXNpemU9IjE0IiBmb250LWZhbWlseT0ic2Fucy1zZXJpZiIgZmlsbD0iIzAwMDAwMCI+dm9pZCBmaXJzdFNoZWxmRnVsbCgpPC90ZXh0PjxlbGxpcHNlIHN0eWxlPSJzdHJva2U6IzAzODA0ODtzdHJva2Utd2lkdGg6MS4wOyIgcnk9IjMiIHJ4PSIzIiBmaWxsPSIjODRCRTg0IiBjeT0iMTQ2Ni4yNzM0IiBjeD0iMzUyMy41Ii8+PHRleHQgeT0iMTQ2OS42MjAxIiB4PSIzNTMyLjUiIHRleHRMZW5ndGg9IjQxNiIgbGVuZ3RoQWRqdXN0PSJzcGFjaW5nIiBmb250LXNpemU9IjE0IiBmb250LWZhbWlseT0ic2Fucy1zZXJpZiIgZmlsbD0iIzAwMDAwMCI+dm9pZCByZWZyZXNoRW50aXRpZXMoQ29tbW9uR29hbENhcmQsQ29tbW9uR29hbENhcmQpPC90ZXh0PjxlbGxpcHNlIHN0eWxlPSJzdHJva2U6IzAzODA0ODtzdHJva2Utd2lkdGg6MS4wOyIgcnk9IjMiIHJ4PSIzIiBmaWxsPSIjODRCRTg0IiBjeT0iMTQ4Mi41NzAzIiBjeD0iMzUyMy41Ii8+PHRleHQgeT0iMTQ4NS45MTciIHg9IjM1MzIuNSIgdGV4dExlbmd0aD0iMzk1IiBsZW5ndGhBZGp1c3Q9InNwYWNpbmciIGZvbnQtc2l6ZT0iMTQiIGZvbnQtZmFtaWx5PSJzYW5zLXNlcmlmIiBmaWxsPSIjMDAwMDAwIj5NYXAmbHQ7U2NvcmVDYXJkLENvbW1vbkdvYWxDYXJkJmd0OyBnZXRMYXN0QWNoaWV2ZWQoKTwvdGV4dD48ZWxsaXBzZSBzdHlsZT0ic3Ryb2tlOiMwMzgwNDg7c3Ryb2tlLXdpZHRoOjEuMDsiIHJ5PSIzIiByeD0iMyIgZmlsbD0iIzg0QkU4NCIgY3k9IjE0OTguODY3MiIgY3g9IjM1MjMuNSIvPjx0ZXh0IHk9IjE1MDIuMjEzOSIgeD0iMzUzMi41IiB0ZXh0TGVuZ3RoPSIyNTciIGxlbmd0aEFkanVzdD0ic3BhY2luZyIgZm9udC1zaXplPSIxNCIgZm9udC1mYW1pbHk9InNhbnMtc2VyaWYiIGZpbGw9IiMwMDAwMDAiPlN0YWNrJmx0O1Njb3JlQ2FyZCZndDsgZ2V0U2NvcmVDYXJkcygpPC90ZXh0PjwvZz48ZyBpZD0iZWxlbV9HYW1lIj48cmVjdCB5PSI5ODEiIHg9IjQyMDguNSIgd2lkdGg9IjYwMSIgc3R5bGU9InN0cm9rZTojQTgwMDM2O3N0cm9rZS13aWR0aDoxLjA7IiBpZD0iR2FtZSIgaGVpZ2h0PSI1NjkuNSIgZmlsdGVyPSJ1cmwoI2Y1dW90OGR5dmRqcmwpIiBmaWxsPSIjRkVGRUNFIi8+PGVsbGlwc2Ugc3R5bGU9InN0cm9rZTojQTgwMDM2O3N0cm9rZS13aWR0aDoxLjA7IiByeT0iMTEiIHJ4PSIxMSIgZmlsbD0iI0FERDFCMiIgY3k9Ijk5NyIgY3g9IjQ0ODMuNzUiLz48cGF0aCBmaWxsPSIjMDAwMDAwIiBkPSJNNDQ4Ni4wOTM4LDk5Mi42NzE5IEM0NDg1LjE1NjMsOTkyLjIzNDQgNDQ4NC41NjI1LDk5Mi4wOTM4IDQ0ODMuNjg3NSw5OTIuMDkzOCBDNDQ4MS4wNjI1LDk5Mi4wOTM4IDQ0NzkuMDYyNSw5OTQuMTcxOSA0NDc5LjA2MjUsOTk2Ljg5MDYgTDQ0NzkuMDYyNSw5OTguMDE1NiBDNDQ3OS4wNjI1LDEwMDAuNTkzOCA0NDgxLjE3MTksMTAwMi40ODQ0IDQ0ODQuMDYyNSwxMDAyLjQ4NDQgQzQ0ODUuMjgxMywxMDAyLjQ4NDQgNDQ4Ni40Mzc1LDEwMDIuMTg3NSA0NDg3LjE4NzUsMTAwMS42NDA2IEM0NDg3Ljc2NTYsMTAwMS4yMzQ0IDQ0ODguMDkzOCwxMDAwLjc4MTMgNDQ4OC4wOTM4LDEwMDAuMzkwNiBDNDQ4OC4wOTM4LDk5OS45Mzc1IDQ0ODcuNzAzMSw5OTkuNTQ2OSA0NDg3LjIzNDQsOTk5LjU0NjkgQzQ0ODcuMDE1Niw5OTkuNTQ2OSA0NDg2LjgxMjUsOTk5LjYyNSA0NDg2LjYyNSw5OTkuODEyNSBDNDQ4Ni4xNzE5LDEwMDAuMjk2OSA0NDg2LjE3MTksMTAwMC4yOTY5IDQ0ODUuOTg0NCwxMDAwLjM5MDYgQzQ0ODUuNTYyNSwxMDAwLjY1NjMgNDQ4NC44NzUsMTAwMC43ODEzIDQ0ODQuMTA5NCwxMDAwLjc4MTMgQzQ0ODIuMDYyNSwxMDAwLjc4MTMgNDQ4MC43NjU2LDk5OS42ODc1IDQ0ODAuNzY1Niw5OTcuOTg0NCBMNDQ4MC43NjU2LDk5Ni44OTA2IEM0NDgwLjc2NTYsOTk1LjEwOTQgNDQ4Mi4wMTU2LDk5My43OTY5IDQ0ODMuNzUsOTkzLjc5NjkgQzQ0ODQuMzI4MSw5OTMuNzk2OSA0NDg0LjkzNzUsOTkzLjk1MzEgNDQ4NS40MDYzLDk5NC4yMDMxIEM0NDg1Ljg5MDYsOTk0LjQ4NDQgNDQ4Ni4wNjI1LDk5NC43MDMxIDQ0ODYuMTU2Myw5OTUuMTA5NCBDNDQ4Ni4yMTg4LDk5NS41MTU2IDQ0ODYuMjUsOTk1LjY0MDYgNDQ4Ni4zOTA2LDk5NS43NjU2IEM0NDg2LjUzMTMsOTk1LjkwNjMgNDQ4Ni43NjU2LDk5Ni4wMTU2IDQ0ODYuOTg0NCw5OTYuMDE1NiBDNDQ4Ny4yNSw5OTYuMDE1NiA0NDg3LjUxNTYsOTk1Ljg3NSA0NDg3LjY4NzUsOTk1LjY1NjMgQzQ0ODcuNzk2OSw5OTUuNSA0NDg3LjgyODEsOTk1LjMxMjUgNDQ4Ny44MjgxLDk5NC44OTA2IEw0NDg3LjgyODEsOTkzLjQ2ODggQzQ0ODcuODI4MSw5OTMuMDMxMyA0NDg3LjgxMjUsOTkyLjkwNjMgNDQ4Ny43MTg4LDk5Mi43NSBDNDQ4Ny41NjI1LDk5Mi40ODQ0IDQ0ODcuMjgxMyw5OTIuMzQzOCA0NDg2Ljk4NDQsOTkyLjM0MzggQzQ0ODYuNjg3NSw5OTIuMzQzOCA0NDg2LjQ4NDQsOTkyLjQzNzUgNDQ4Ni4yNjU2LDk5Mi43NSBMNDQ4Ni4wOTM4LDk5Mi42NzE5IFoiLz48dGV4dCB5PSIxMDAxLjg0NjciIHg9IjQ1MDQuMjUiIHRleHRMZW5ndGg9IjQyIiBsZW5ndGhBZGp1c3Q9InNwYWNpbmciIGZvbnQtc2l6ZT0iMTQiIGZvbnQtZmFtaWx5PSJzYW5zLXNlcmlmIiBmaWxsPSIjMDAwMDAwIj5HYW1lPC90ZXh0PjxsaW5lIHkyPSIxMDEzIiB5MT0iMTAxMyIgeDI9IjQ4MDguNSIgeDE9IjQyMDkuNSIgc3R5bGU9InN0cm9rZTojQTgwMDM2O3N0cm9rZS13aWR0aDoxLjA7Ii8+PGVsbGlwc2Ugc3R5bGU9InN0cm9rZTojMDM4MDQ4O3N0cm9rZS13aWR0aDoxLjA7IiByeT0iMyIgcng9IjMiIGZpbGw9Im5vbmUiIGN5PSIxMDI2LjY0ODQiIGN4PSI0MjE5LjUiLz48dGV4dCB5PSIxMDI5Ljk5NTEiIHg9IjQyMjguNSIgdGV4dExlbmd0aD0iMTI3IiBsZW5ndGhBZGp1c3Q9InNwYWNpbmciIGZvbnQtc2l6ZT0iMTQiIGZvbnQtZmFtaWx5PSJzYW5zLXNlcmlmIiBmaWxsPSIjMDAwMDAwIj5pbnQgTUFYX1BMQVlFUlM8L3RleHQ+PHJlY3QgeT0iMTAzOS45NDUzIiB4PSI0MjE2LjUiIHdpZHRoPSI2IiBzdHlsZT0ic3Ryb2tlOiNDODI5MzA7c3Ryb2tlLXdpZHRoOjEuMDsiIGhlaWdodD0iNiIgZmlsbD0ibm9uZSIvPjx0ZXh0IHk9IjEwNDYuMjkyIiB4PSI0MjI4LjUiIHRleHRMZW5ndGg9IjExNSIgbGVuZ3RoQWRqdXN0PSJzcGFjaW5nIiBmb250LXNpemU9IjE0IiBmb250LWZhbWlseT0ic2Fucy1zZXJpZiIgZmlsbD0iIzAwMDAwMCI+U3RyaW5nIGlkZW50aWZpZXI8L3RleHQ+PHJlY3QgeT0iMTA1Ni4yNDIyIiB4PSI0MjE2LjUiIHdpZHRoPSI2IiBzdHlsZT0ic3Ryb2tlOiNDODI5MzA7c3Ryb2tlLXdpZHRoOjEuMDsiIGhlaWdodD0iNiIgZmlsbD0ibm9uZSIvPjx0ZXh0IHk9IjEwNjIuNTg4OSIgeD0iNDIyOC41IiB0ZXh0TGVuZ3RoPSIyMDkiIGxlbmd0aEFkanVzdD0ic3BhY2luZyIgZm9udC1zaXplPSIxNCIgZm9udC1mYW1pbHk9InNhbnMtc2VyaWYiIGZpbGw9IiMwMDAwMDAiPk1hcCZsdDtJbnRlZ2VyLFBsYXllciZndDsgcGxheWVyczwvdGV4dD48cmVjdCB5PSIxMDcyLjUzOTEiIHg9IjQyMTYuNSIgd2lkdGg9IjYiIHN0eWxlPSJzdHJva2U6I0M4MjkzMDtzdHJva2Utd2lkdGg6MS4wOyIgaGVpZ2h0PSI2IiBmaWxsPSJub25lIi8+PHRleHQgeT0iMTA3OC44ODU3IiB4PSI0MjI4LjUiIHRleHRMZW5ndGg9IjEwNSIgbGVuZ3RoQWRqdXN0PSJzcGFjaW5nIiBmb250LXNpemU9IjE0IiBmb250LWZhbWlseT0ic2Fucy1zZXJpZiIgZmlsbD0iIzAwMDAwMCI+aW50IG1heFBsYXllcnM8L3RleHQ+PHJlY3QgeT0iMTA4OC44MzU5IiB4PSI0MjE2LjUiIHdpZHRoPSI2IiBzdHlsZT0ic3Ryb2tlOiNDODI5MzA7c3Ryb2tlLXdpZHRoOjEuMDsiIGhlaWdodD0iNiIgZmlsbD0ibm9uZSIvPjx0ZXh0IHk9IjEwOTUuMTgyNiIgeD0iNDIyOC41IiB0ZXh0TGVuZ3RoPSIyODAiIGxlbmd0aEFkanVzdD0ic3BhY2luZyIgZm9udC1zaXplPSIxNCIgZm9udC1mYW1pbHk9InNhbnMtc2VyaWYiIGZpbGw9IiMwMDAwMDAiPkxpc3QmbHQ7UGVyc29uYWxHb2FsQ2FyZCZndDsgcGVyc29uYWxDYXJkczwvdGV4dD48cmVjdCB5PSIxMTA1LjEzMjgiIHg9IjQyMTYuNSIgd2lkdGg9IjYiIHN0eWxlPSJzdHJva2U6I0M4MjkzMDtzdHJva2Utd2lkdGg6MS4wOyIgaGVpZ2h0PSI2IiBmaWxsPSJub25lIi8+PHRleHQgeT0iMTExMS40Nzk1IiB4PSI0MjI4LjUiIHRleHRMZW5ndGg9IjE2OCIgbGVuZ3RoQWRqdXN0PSJzcGFjaW5nIiBmb250LXNpemU9IjE0IiBmb250LWZhbWlseT0ic2Fucy1zZXJpZiIgZmlsbD0iIzAwMDAwMCI+U2NvcmVib2FyZCBzY29yZWJvYXJkPC90ZXh0PjxyZWN0IHk9IjExMjEuNDI5NyIgeD0iNDIxNi41IiB3aWR0aD0iNiIgc3R5bGU9InN0cm9rZTojQzgyOTMwO3N0cm9rZS13aWR0aDoxLjA7IiBoZWlnaHQ9IjYiIGZpbGw9Im5vbmUiLz48dGV4dCB5PSIxMTI3Ljc3NjQiIHg9IjQyMjguNSIgdGV4dExlbmd0aD0iODgiIGxlbmd0aEFkanVzdD0ic3BhY2luZyIgZm9udC1zaXplPSIxNCIgZm9udC1mYW1pbHk9InNhbnMtc2VyaWYiIGZpbGw9IiMwMDAwMDAiPkJvYXJkIGJvYXJkPC90ZXh0PjxyZWN0IHk9IjExMzcuNzI2NiIgeD0iNDIxNi41IiB3aWR0aD0iNiIgc3R5bGU9InN0cm9rZTojQzgyOTMwO3N0cm9rZS13aWR0aDoxLjA7IiBoZWlnaHQ9IjYiIGZpbGw9Im5vbmUiLz48dGV4dCB5PSIxMTQ0LjA3MzIiIHg9IjQyMjguNSIgdGV4dExlbmd0aD0iMTEyIiBsZW5ndGhBZGp1c3Q9InNwYWNpbmciIGZvbnQtc2l6ZT0iMTQiIGZvbnQtZmFtaWx5PSJzYW5zLXNlcmlmIiBmaWxsPSIjMDAwMDAwIj5pbnQgcGxheWVyQ291bnQ8L3RleHQ+PHJlY3QgeT0iMTE1NC4wMjM0IiB4PSI0MjE2LjUiIHdpZHRoPSI2IiBzdHlsZT0ic3Ryb2tlOiNDODI5MzA7c3Ryb2tlLXdpZHRoOjEuMDsiIGhlaWdodD0iNiIgZmlsbD0ibm9uZSIvPjx0ZXh0IHk9IjExNjAuMzcwMSIgeD0iNDIyOC41IiB0ZXh0TGVuZ3RoPSIxOTMiIGxlbmd0aEFkanVzdD0ic3BhY2luZyIgZm9udC1zaXplPSIxNCIgZm9udC1mYW1pbHk9InNhbnMtc2VyaWYiIGZpbGw9IiMwMDAwMDAiPkNvbW1vbkdvYWxDYXJkIGNnQ2FyZDE8L3RleHQ+PHJlY3QgeT0iMTE3MC4zMjAzIiB4PSI0MjE2LjUiIHdpZHRoPSI2IiBzdHlsZT0ic3Ryb2tlOiNDODI5MzA7c3Ryb2tlLXdpZHRoOjEuMDsiIGhlaWdodD0iNiIgZmlsbD0ibm9uZSIvPjx0ZXh0IHk9IjExNzYuNjY3IiB4PSI0MjI4LjUiIHRleHRMZW5ndGg9IjE5MiIgbGVuZ3RoQWRqdXN0PSJzcGFjaW5nIiBmb250LXNpemU9IjE0IiBmb250LWZhbWlseT0ic2Fucy1zZXJpZiIgZmlsbD0iIzAwMDAwMCI+Q29tbW9uR29hbENhcmQgY2dDYXJkMjwvdGV4dD48cmVjdCB5PSIxMTg2LjYxNzIiIHg9IjQyMTYuNSIgd2lkdGg9IjYiIHN0eWxlPSJzdHJva2U6I0M4MjkzMDtzdHJva2Utd2lkdGg6MS4wOyIgaGVpZ2h0PSI2IiBmaWxsPSJub25lIi8+PHRleHQgeT0iMTE5Mi45NjM5IiB4PSI0MjI4LjUiIHRleHRMZW5ndGg9IjIyMSIgbGVuZ3RoQWRqdXN0PSJzcGFjaW5nIiBmb250LXNpemU9IjE0IiBmb250LWZhbWlseT0ic2Fucy1zZXJpZiIgZmlsbD0iIzAwMDAwMCI+TGlzdCZsdDtPYmplY3RDYXJkJmd0OyBvYmplY3RDYXJkczwvdGV4dD48cmVjdCB5PSIxMjAyLjkxNDEiIHg9IjQyMTYuNSIgd2lkdGg9IjYiIHN0eWxlPSJzdHJva2U6I0M4MjkzMDtzdHJva2Utd2lkdGg6MS4wOyIgaGVpZ2h0PSI2IiBmaWxsPSJub25lIi8+PHRleHQgeT0iMTIwOS4yNjA3IiB4PSI0MjI4LjUiIHRleHRMZW5ndGg9IjE0NyIgbGVuZ3RoQWRqdXN0PSJzcGFjaW5nIiBmb250LXNpemU9IjE0IiBmb250LWZhbWlseT0ic2Fucy1zZXJpZiIgZmlsbD0iIzAwMDAwMCI+Ym9vbGVhbiBnYW1lRW5kZWQ8L3RleHQ+PHJlY3QgeT0iMTIxOS4yMTA5IiB4PSI0MjE2LjUiIHdpZHRoPSI2IiBzdHlsZT0ic3Ryb2tlOiNDODI5MzA7c3Ryb2tlLXdpZHRoOjEuMDsiIGhlaWdodD0iNiIgZmlsbD0ibm9uZSIvPjx0ZXh0IHk9IjEyMjUuNTU3NiIgeD0iNDIyOC41IiB0ZXh0TGVuZ3RoPSIxMjkiIGxlbmd0aEFkanVzdD0ic3BhY2luZyIgZm9udC1zaXplPSIxNCIgZm9udC1mYW1pbHk9InNhbnMtc2VyaWYiIGZpbGw9IiMwMDAwMDAiPmJvb2xlYW4gcHJlcGFyZWQ8L3RleHQ+PGxpbmUgeTI9IjEyMzIuODU5NCIgeTE9IjEyMzIuODU5NCIgeDI9IjQ4MDguNSIgeDE9IjQyMDkuNSIgc3R5bGU9InN0cm9rZTojQTgwMDM2O3N0cm9rZS13aWR0aDoxLjA7Ii8+PGVsbGlwc2Ugc3R5bGU9InN0cm9rZTojMDM4MDQ4O3N0cm9rZS13aWR0aDoxLjA7IiByeT0iMyIgcng9IjMiIGZpbGw9IiM4NEJFODQiIGN5PSIxMjQ2LjUwNzgiIGN4PSI0MjE5LjUiLz48dGV4dCB5PSIxMjQ5Ljg1NDUiIHg9IjQyMjguNSIgdGV4dExlbmd0aD0iMTg5IiBsZW5ndGhBZGp1c3Q9InNwYWNpbmciIGZvbnQtc2l6ZT0iMTQiIGZvbnQtZmFtaWx5PSJzYW5zLXNlcmlmIiBmaWxsPSIjMDAwMDAwIj7Cq0NyZWF0ZcK7IEdhbWUoU3RyaW5nLGludCk8L3RleHQ+PGVsbGlwc2Ugc3R5bGU9InN0cm9rZTojMDM4MDQ4O3N0cm9rZS13aWR0aDoxLjA7IiByeT0iMyIgcng9IjMiIGZpbGw9IiM4NEJFODQiIGN5PSIxMjYyLjgwNDciIGN4PSI0MjE5LjUiLz48dGV4dCB5PSIxMjY2LjE1MTQiIHg9IjQyMjguNSIgdGV4dExlbmd0aD0iMTIzIiBsZW5ndGhBZGp1c3Q9InNwYWNpbmciIGZvbnQtc2l6ZT0iMTQiIGZvbnQtZmFtaWx5PSJzYW5zLXNlcmlmIiBmaWxsPSIjMDAwMDAwIj5Cb2FyZCBnZXRCb2FyZCgpPC90ZXh0PjxlbGxpcHNlIHN0eWxlPSJzdHJva2U6IzAzODA0ODtzdHJva2Utd2lkdGg6MS4wOyIgcnk9IjMiIHJ4PSIzIiBmaWxsPSIjODRCRTg0IiBjeT0iMTI3OS4xMDE2IiBjeD0iNDIxOS41Ii8+PHRleHQgeT0iMTI4Mi40NDgyIiB4PSI0MjI4LjUiIHRleHRMZW5ndGg9IjEzOCIgbGVuZ3RoQWRqdXN0PSJzcGFjaW5nIiBmb250LXNpemU9IjE0IiBmb250LWZhbWlseT0ic2Fucy1zZXJpZiIgZmlsbD0iIzAwMDAwMCI+aW50IGdldE1heFBsYXllcnMoKTwvdGV4dD48ZWxsaXBzZSBzdHlsZT0ic3Ryb2tlOiMwMzgwNDg7c3Ryb2tlLXdpZHRoOjEuMDsiIHJ5PSIzIiByeD0iMyIgZmlsbD0iIzg0QkU4NCIgY3k9IjEyOTUuMzk4NCIgY3g9IjQyMTkuNSIvPjx0ZXh0IHk9IjEyOTguNzQ1MSIgeD0iNDIyOC41IiB0ZXh0TGVuZ3RoPSIyNDMiIGxlbmd0aEFkanVzdD0ic3BhY2luZyIgZm9udC1zaXplPSIxNCIgZm9udC1mYW1pbHk9InNhbnMtc2VyaWYiIGZpbGw9IiMwMDAwMDAiPk1hcCZsdDtJbnRlZ2VyLFBsYXllciZndDsgZ2V0UGxheWVycygpPC90ZXh0PjxlbGxpcHNlIHN0eWxlPSJzdHJva2U6IzAzODA0ODtzdHJva2Utd2lkdGg6MS4wOyIgcnk9IjMiIHJ4PSIzIiBmaWxsPSIjODRCRTg0IiBjeT0iMTMxMS42OTUzIiBjeD0iNDIxOS41Ii8+PHRleHQgeT0iMTMxNS4wNDIiIHg9IjQyMjguNSIgdGV4dExlbmd0aD0iMTc1IiBsZW5ndGhBZGp1c3Q9InNwYWNpbmciIGZvbnQtc2l6ZT0iMTQiIGZvbnQtZmFtaWx5PSJzYW5zLXNlcmlmIiBmaWxsPSIjMDAwMDAwIj5QbGF5ZXIgbmV3UGxheWVyKFN0cmluZyk8L3RleHQ+PGVsbGlwc2Ugc3R5bGU9InN0cm9rZTojMDM4MDQ4O3N0cm9rZS13aWR0aDoxLjA7IiByeT0iMyIgcng9IjMiIGZpbGw9IiM4NEJFODQiIGN5PSIxMzI3Ljk5MjIiIGN4PSI0MjE5LjUiLz48dGV4dCB5PSIxMzMxLjMzODkiIHg9IjQyMjguNSIgdGV4dExlbmd0aD0iMjc5IiBsZW5ndGhBZGp1c3Q9InNwYWNpbmciIGZvbnQtc2l6ZT0iMTQiIGZvbnQtZmFtaWx5PSJzYW5zLXNlcmlmIiBmaWxsPSIjMDAwMDAwIj5QbGF5ZXIgZ2V0UGxheWVyRnJvbU5pY2tuYW1lKFN0cmluZyk8L3RleHQ+PGVsbGlwc2Ugc3R5bGU9InN0cm9rZTojMDM4MDQ4O3N0cm9rZS13aWR0aDoxLjA7IiByeT0iMyIgcng9IjMiIGZpbGw9IiM4NEJFODQiIGN5PSIxMzQ0LjI4OTEiIGN4PSI0MjE5LjUiLz48dGV4dCB5PSIxMzQ3LjYzNTciIHg9IjQyMjguNSIgdGV4dExlbmd0aD0iMzk3IiBsZW5ndGhBZGp1c3Q9InNwYWNpbmciIGZvbnQtc2l6ZT0iMTQiIGZvbnQtZmFtaWx5PSJzYW5zLXNlcmlmIiBmaWxsPSIjMDAwMDAwIj5TaGVsZkludGVyZmFjZSBnZXRTaGVsZkludGVyZmFjZUZyb21OaWNrbmFtZShTdHJpbmcpPC90ZXh0PjxlbGxpcHNlIHN0eWxlPSJzdHJva2U6IzAzODA0ODtzdHJva2Utd2lkdGg6MS4wOyIgcnk9IjMiIHJ4PSIzIiBmaWxsPSIjODRCRTg0IiBjeT0iMTM2MC41ODU5IiBjeD0iNDIxOS41Ii8+PHRleHQgeT0iMTM2My45MzI2IiB4PSI0MjI4LjUiIHRleHRMZW5ndGg9IjU3NSIgbGVuZ3RoQWRqdXN0PSJzcGFjaW5nIiBmb250LXNpemU9IjE0IiBmb250LWZhbWlseT0ic2Fucy1zZXJpZiIgZmlsbD0iIzAwMDAwMCI+UGVyc29uYWxHb2FsQ2FyZEludGVyZmFjZSBnZXRQZXJzb25hbEdvYWxDYXJkSW50ZXJmYWNlRnJvbU5pY2tuYW1lKFN0cmluZyk8L3RleHQ+PGVsbGlwc2Ugc3R5bGU9InN0cm9rZTojMDM4MDQ4O3N0cm9rZS13aWR0aDoxLjA7IiByeT0iMyIgcng9IjMiIGZpbGw9IiM4NEJFODQiIGN5PSIxMzc2Ljg4MjgiIGN4PSI0MjE5LjUiLz48dGV4dCB5PSIxMzgwLjIyOTUiIHg9IjQyMjguNSIgdGV4dExlbmd0aD0iNDIwIiBsZW5ndGhBZGp1c3Q9InNwYWNpbmciIGZvbnQtc2l6ZT0iMTQiIGZvbnQtZmFtaWx5PSJzYW5zLXNlcmlmIiBmaWxsPSIjMDAwMDAwIj5MaXN0Jmx0O0NvbW1vbkdvYWxDYXJkSW50ZXJmYWNlJmd0OyBnZXRDb21tb25Hb2FsQ2FyZHMoKTwvdGV4dD48ZWxsaXBzZSBzdHlsZT0ic3Ryb2tlOiMwMzgwNDg7c3Ryb2tlLXdpZHRoOjEuMDsiIHJ5PSIzIiByeD0iMyIgZmlsbD0iIzg0QkU4NCIgY3k9IjEzOTMuMTc5NyIgY3g9IjQyMTkuNSIvPjx0ZXh0IHk9IjEzOTYuNTI2NCIgeD0iNDIyOC41IiB0ZXh0TGVuZ3RoPSIyNjUiIGxlbmd0aEFkanVzdD0ic3BhY2luZyIgZm9udC1zaXplPSIxNCIgZm9udC1mYW1pbHk9InNhbnMtc2VyaWYiIGZpbGw9IiMwMDAwMDAiPlNoZWxmIGdldFNoZWxmRnJvbU5pY2tuYW1lKFN0cmluZyk8L3RleHQ+PGVsbGlwc2Ugc3R5bGU9InN0cm9rZTojMDM4MDQ4O3N0cm9rZS13aWR0aDoxLjA7IiByeT0iMyIgcng9IjMiIGZpbGw9IiM4NEJFODQiIGN5PSIxNDA5LjQ3NjYiIGN4PSI0MjE5LjUiLz48dGV4dCB5PSIxNDEyLjgyMzIiIHg9IjQyMjguNSIgdGV4dExlbmd0aD0iNDA5IiBsZW5ndGhBZGp1c3Q9InNwYWNpbmciIGZvbnQtc2l6ZT0iMTQiIGZvbnQtZmFtaWx5PSJzYW5zLXNlcmlmIiBmaWxsPSIjMDAwMDAwIj5TdGFjayZsdDtTY29yZUNhcmQmZ3Q7IGdldFNjb3JlQ2FyZHNGcm9tTmlja25hbWUoU3RyaW5nKTwvdGV4dD48ZWxsaXBzZSBzdHlsZT0ic3Ryb2tlOiMwMzgwNDg7c3Ryb2tlLXdpZHRoOjEuMDsiIHJ5PSIzIiByeD0iMyIgZmlsbD0iIzg0QkU4NCIgY3k9IjE0MjUuNzczNCIgY3g9IjQyMTkuNSIvPjx0ZXh0IHk9IjE0MjkuMTIwMSIgeD0iNDIyOC41IiB0ZXh0TGVuZ3RoPSIxODMiIGxlbmd0aEFkanVzdD0ic3BhY2luZyIgZm9udC1zaXplPSIxNCIgZm9udC1mYW1pbHk9InNhbnMtc2VyaWYiIGZpbGw9IiMwMDAwMDAiPkxpc3QmbHQ7U3RyaW5nJmd0OyBuaWNrbmFtZXMoKTwvdGV4dD48ZWxsaXBzZSBzdHlsZT0ic3Ryb2tlOiMwMzgwNDg7c3Ryb2tlLXdpZHRoOjEuMDsiIHJ5PSIzIiByeD0iMyIgZmlsbD0iIzg0QkU4NCIgY3k9IjE0NDIuMDcwMyIgY3g9IjQyMTkuNSIvPjx0ZXh0IHk9IjE0NDUuNDE3IiB4PSI0MjI4LjUiIHRleHRMZW5ndGg9IjE0NCIgbGVuZ3RoQWRqdXN0PSJzcGFjaW5nIiBmb250LXNpemU9IjE0IiBmb250LWZhbWlseT0ic2Fucy1zZXJpZiIgZmlsbD0iIzAwMDAwMCI+dm9pZCBwcmVwYXJlR2FtZSgpPC90ZXh0PjxlbGxpcHNlIHN0eWxlPSJzdHJva2U6IzAzODA0ODtzdHJva2Utd2lkdGg6MS4wOyIgcnk9IjMiIHJ4PSIzIiBmaWxsPSIjODRCRTg0IiBjeT0iMTQ1OC4zNjcyIiBjeD0iNDIxOS41Ii8+PHRleHQgeT0iMTQ2MS43MTM5IiB4PSI0MjI4LjUiIHRleHRMZW5ndGg9IjE0OSIgbGVuZ3RoQWRqdXN0PSJzcGFjaW5nIiBmb250LXNpemU9IjE0IiBmb250LWZhbWlseT0ic2Fucy1zZXJpZiIgZmlsbD0iIzAwMDAwMCI+Ym9vbGVhbiBpc1ByZXBhcmVkKCk8L3RleHQ+PGVsbGlwc2Ugc3R5bGU9InN0cm9rZTojMDM4MDQ4O3N0cm9rZS13aWR0aDoxLjA7IiByeT0iMyIgcng9IjMiIGZpbGw9IiM4NEJFODQiIGN5PSIxNDc0LjY2NDEiIGN4PSI0MjE5LjUiLz48dGV4dCB5PSIxNDc4LjAxMDciIHg9IjQyMjguNSIgdGV4dExlbmd0aD0iMjI4IiBsZW5ndGhBZGp1c3Q9InNwYWNpbmciIGZvbnQtc2l6ZT0iMTQiIGZvbnQtZmFtaWx5PSJzYW5zLXNlcmlmIiBmaWxsPSIjMDAwMDAwIj5ib29sZWFuIGNoZWNrRW5kR2FtZShQbGF5ZXIpPC90ZXh0PjxlbGxpcHNlIHN0eWxlPSJzdHJva2U6IzAzODA0ODtzdHJva2Utd2lkdGg6MS4wOyIgcnk9IjMiIHJ4PSIzIiBmaWxsPSIjODRCRTg0IiBjeT0iMTQ5MC45NjA5IiBjeD0iNDIxOS41Ii8+PHRleHQgeT0iMTQ5NC4zMDc2IiB4PSI0MjI4LjUiIHRleHRMZW5ndGg9IjE4NCIgbGVuZ3RoQWRqdXN0PSJzcGFjaW5nIiBmb250LXNpemU9IjE0IiBmb250LWZhbWlseT0ic2Fucy1zZXJpZiIgZmlsbD0iIzAwMDAwMCI+Ym9vbGVhbiBnYW1lQ29tcGxldGUoKTwvdGV4dD48ZWxsaXBzZSBzdHlsZT0ic3Ryb2tlOiMwMzgwNDg7c3Ryb2tlLXdpZHRoOjEuMDsiIHJ5PSIzIiByeD0iMyIgZmlsbD0iIzg0QkU4NCIgY3k9IjE1MDcuMjU3OCIgY3g9IjQyMTkuNSIvPjx0ZXh0IHk9IjE1MTAuNjA0NSIgeD0iNDIyOC41IiB0ZXh0TGVuZ3RoPSIyMDUiIGxlbmd0aEFkanVzdD0ic3BhY2luZyIgZm9udC1zaXplPSIxNCIgZm9udC1mYW1pbHk9InNhbnMtc2VyaWYiIGZpbGw9IiMwMDAwMDAiPlNjb3JlYm9hcmQgZ2V0U2NvcmVib2FyZCgpPC90ZXh0PjxlbGxpcHNlIHN0eWxlPSJzdHJva2U6IzAzODA0ODtzdHJva2Utd2lkdGg6MS4wOyIgcnk9IjMiIHJ4PSIzIiBmaWxsPSIjODRCRTg0IiBjeT0iMTUyMy41NTQ3IiBjeD0iNDIxOS41Ii8+PHRleHQgeT0iMTUyNi45MDE0IiB4PSI0MjI4LjUiIHRleHRMZW5ndGg9IjE3MCIgbGVuZ3RoQWRqdXN0PSJzcGFjaW5nIiBmb250LXNpemU9IjE0IiBmb250LWZhbWlseT0ic2Fucy1zZXJpZiIgZmlsbD0iIzAwMDAwMCI+Ym9vbGVhbiBpc0dhbWVFbmRlZCgpPC90ZXh0PjxlbGxpcHNlIHN0eWxlPSJzdHJva2U6IzAzODA0ODtzdHJva2Utd2lkdGg6MS4wOyIgcnk9IjMiIHJ4PSIzIiBmaWxsPSIjODRCRTg0IiBjeT0iMTUzOS44NTE2IiBjeD0iNDIxOS41Ii8+PHRleHQgeT0iMTU0My4xOTgyIiB4PSI0MjI4LjUiIHRleHRMZW5ndGg9IjE1MiIgbGVuZ3RoQWRqdXN0PSJzcGFjaW5nIiBmb250LXNpemU9IjE0IiBmb250LWZhbWlseT0ic2Fucy1zZXJpZiIgZmlsbD0iIzAwMDAwMCI+dm9pZCByZWZyZXNoRW50aXRpZXMoKTwvdGV4dD48L2c+PGcgaWQ9ImVsZW1fR2FtZUNvbnRyb2xsZXIiPjxyZWN0IHk9IjM4NCIgeD0iNjIzIiB3aWR0aD0iNDQ2IiBzdHlsZT0ic3Ryb2tlOiNBODAwMzY7c3Ryb2tlLXdpZHRoOjEuMDsiIGlkPSJHYW1lQ29udHJvbGxlciIgaGVpZ2h0PSI1MzYuOTA2MyIgZmlsdGVyPSJ1cmwoI2Y1dW90OGR5dmRqcmwpIiBmaWxsPSIjRkVGRUNFIi8+PGVsbGlwc2Ugc3R5bGU9InN0cm9rZTojQTgwMDM2O3N0cm9rZS13aWR0aDoxLjA7IiByeT0iMTEiIHJ4PSIxMSIgZmlsbD0iI0FERDFCMiIgY3k9IjQwMCIgY3g9Ijc4NC4yNSIvPjxwYXRoIGZpbGw9IiMwMDAwMDAiIGQ9Ik03ODYuNTkzOCwzOTUuNjcxOSBDNzg1LjY1NjMsMzk1LjIzNDQgNzg1LjA2MjUsMzk1LjA5MzggNzg0LjE4NzUsMzk1LjA5MzggQzc4MS41NjI1LDM5NS4wOTM4IDc3OS41NjI1LDM5Ny4xNzE5IDc3OS41NjI1LDM5OS44OTA2IEw3NzkuNTYyNSw0MDEuMDE1NiBDNzc5LjU2MjUsNDAzLjU5MzggNzgxLjY3MTksNDA1LjQ4NDQgNzg0LjU2MjUsNDA1LjQ4NDQgQzc4NS43ODEzLDQwNS40ODQ0IDc4Ni45Mzc1LDQwNS4xODc1IDc4Ny42ODc1LDQwNC42NDA2IEM3ODguMjY1Niw0MDQuMjM0NCA3ODguNTkzOCw0MDMuNzgxMyA3ODguNTkzOCw0MDMuMzkwNiBDNzg4LjU5MzgsNDAyLjkzNzUgNzg4LjIwMzEsNDAyLjU0NjkgNzg3LjczNDQsNDAyLjU0NjkgQzc4Ny41MTU2LDQwMi41NDY5IDc4Ny4zMTI1LDQwMi42MjUgNzg3LjEyNSw0MDIuODEyNSBDNzg2LjY3MTksNDAzLjI5NjkgNzg2LjY3MTksNDAzLjI5NjkgNzg2LjQ4NDQsNDAzLjM5MDYgQzc4Ni4wNjI1LDQwMy42NTYzIDc4NS4zNzUsNDAzLjc4MTMgNzg0LjYwOTQsNDAzLjc4MTMgQzc4Mi41NjI1LDQwMy43ODEzIDc4MS4yNjU2LDQwMi42ODc1IDc4MS4yNjU2LDQwMC45ODQ0IEw3ODEuMjY1NiwzOTkuODkwNiBDNzgxLjI2NTYsMzk4LjEwOTQgNzgyLjUxNTYsMzk2Ljc5NjkgNzg0LjI1LDM5Ni43OTY5IEM3ODQuODI4MSwzOTYuNzk2OSA3ODUuNDM3NSwzOTYuOTUzMSA3ODUuOTA2MywzOTcuMjAzMSBDNzg2LjM5MDYsMzk3LjQ4NDQgNzg2LjU2MjUsMzk3LjcwMzEgNzg2LjY1NjMsMzk4LjEwOTQgQzc4Ni43MTg4LDM5OC41MTU2IDc4Ni43NSwzOTguNjQwNiA3ODYuODkwNiwzOTguNzY1NiBDNzg3LjAzMTMsMzk4LjkwNjMgNzg3LjI2NTYsMzk5LjAxNTYgNzg3LjQ4NDQsMzk5LjAxNTYgQzc4Ny43NSwzOTkuMDE1NiA3ODguMDE1NiwzOTguODc1IDc4OC4xODc1LDM5OC42NTYzIEM3ODguMjk2OSwzOTguNSA3ODguMzI4MSwzOTguMzEyNSA3ODguMzI4MSwzOTcuODkwNiBMNzg4LjMyODEsMzk2LjQ2ODggQzc4OC4zMjgxLDM5Ni4wMzEzIDc4OC4zMTI1LDM5NS45MDYzIDc4OC4yMTg4LDM5NS43NSBDNzg4LjA2MjUsMzk1LjQ4NDQgNzg3Ljc4MTMsMzk1LjM0MzggNzg3LjQ4NDQsMzk1LjM0MzggQzc4Ny4xODc1LDM5NS4zNDM4IDc4Ni45ODQ0LDM5NS40Mzc1IDc4Ni43NjU2LDM5NS43NSBMNzg2LjU5MzgsMzk1LjY3MTkgWiIvPjx0ZXh0IHk9IjQwNC44NDY3IiB4PSI4MDQuNzUiIHRleHRMZW5ndGg9IjExNSIgbGVuZ3RoQWRqdXN0PSJzcGFjaW5nIiBmb250LXNpemU9IjE0IiBmb250LWZhbWlseT0ic2Fucy1zZXJpZiIgZmlsbD0iIzAwMDAwMCI+R2FtZUNvbnRyb2xsZXI8L3RleHQ+PGxpbmUgeTI9IjQxNiIgeTE9IjQxNiIgeDI9IjEwNjgiIHgxPSI2MjQiIHN0eWxlPSJzdHJva2U6I0E4MDAzNjtzdHJva2Utd2lkdGg6MS4wOyIvPjxyZWN0IHk9IjQyNi42NDg0IiB4PSI2MzEiIHdpZHRoPSI2IiBzdHlsZT0ic3Ryb2tlOiNDODI5MzA7c3Ryb2tlLXdpZHRoOjEuMDsiIGhlaWdodD0iNiIgZmlsbD0ibm9uZSIvPjx0ZXh0IHk9IjQzMi45OTUxIiB4PSI2NDMiIHRleHRMZW5ndGg9IjEzNyIgbGVuZ3RoQWRqdXN0PSJzcGFjaW5nIiBmb250LXNpemU9IjE0IiBmb250LWZhbWlseT0ic2Fucy1zZXJpZiIgZmlsbD0iIzAwMDAwMCI+TGlzdCZsdDtTdHJpbmcmZ3Q7IGxvYmJ5PC90ZXh0PjxyZWN0IHk9IjQ0Mi45NDUzIiB4PSI2MzEiIHdpZHRoPSI2IiBzdHlsZT0ic3Ryb2tlOiNDODI5MzA7c3Ryb2tlLXdpZHRoOjEuMDsiIGhlaWdodD0iNiIgZmlsbD0ibm9uZSIvPjx0ZXh0IHk9IjQ0OS4yOTIiIHg9IjY0MyIgdGV4dExlbmd0aD0iMTE1IiBsZW5ndGhBZGp1c3Q9InNwYWNpbmciIGZvbnQtc2l6ZT0iMTQiIGZvbnQtZmFtaWx5PSJzYW5zLXNlcmlmIiBmaWxsPSIjMDAwMDAwIj5TdHJpbmcgaWRlbnRpZmllcjwvdGV4dD48cmVjdCB5PSI0NTkuMjQyMiIgeD0iNjMxIiB3aWR0aD0iNiIgc3R5bGU9InN0cm9rZTojQzgyOTMwO3N0cm9rZS13aWR0aDoxLjA7IiBoZWlnaHQ9IjYiIGZpbGw9Im5vbmUiLz48dGV4dCB5PSI0NjUuNTg4OSIgeD0iNjQzIiB0ZXh0TGVuZ3RoPSI4NiIgbGVuZ3RoQWRqdXN0PSJzcGFjaW5nIiBmb250LXNpemU9IjE0IiBmb250LWZhbWlseT0ic2Fucy1zZXJpZiIgZmlsbD0iIzAwMDAwMCI+R2FtZSBnYW1lPC90ZXh0PjxyZWN0IHk9IjQ3NS41MzkxIiB4PSI2MzEiIHdpZHRoPSI2IiBzdHlsZT0ic3Ryb2tlOiNDODI5MzA7c3Ryb2tlLXdpZHRoOjEuMDsiIGhlaWdodD0iNiIgZmlsbD0ibm9uZSIvPjx0ZXh0IHk9IjQ4MS44ODU3IiB4PSI2NDMiIHRleHRMZW5ndGg9IjEzNiIgbGVuZ3RoQWRqdXN0PSJzcGFjaW5nIiBmb250LXNpemU9IjE0IiBmb250LWZhbWlseT0ic2Fucy1zZXJpZiIgZmlsbD0iIzAwMDAwMCI+UGxheWVyIGFjdGl2ZVBsYXllcjwvdGV4dD48cmVjdCB5PSI0OTEuODM1OSIgeD0iNjMxIiB3aWR0aD0iNiIgc3R5bGU9InN0cm9rZTojQzgyOTMwO3N0cm9rZS13aWR0aDoxLjA7IiBoZWlnaHQ9IjYiIGZpbGw9Im5vbmUiLz48dGV4dCB5PSI0OTguMTgyNiIgeD0iNjQzIiB0ZXh0TGVuZ3RoPSIxMDUiIGxlbmd0aEFkanVzdD0ic3BhY2luZyIgZm9udC1zaXplPSIxNCIgZm9udC1mYW1pbHk9InNhbnMtc2VyaWYiIGZpbGw9IiMwMDAwMDAiPmludCBtYXhQbGF5ZXJzPC90ZXh0PjxyZWN0IHk9IjUwOC4xMzI4IiB4PSI2MzEiIHdpZHRoPSI2IiBzdHlsZT0ic3Ryb2tlOiNDODI5MzA7c3Ryb2tlLXdpZHRoOjEuMDsiIGhlaWdodD0iNiIgZmlsbD0ibm9uZSIvPjx0ZXh0IHk9IjUxNC40Nzk1IiB4PSI2NDMiIHRleHRMZW5ndGg9IjEzMiIgbGVuZ3RoQWRqdXN0PSJzcGFjaW5nIiBmb250LXNpemU9IjE0IiBmb250LWZhbWlseT0ic2Fucy1zZXJpZiIgZmlsbD0iIzAwMDAwMCI+Ym9vbGVhbiByZWZyZXNoZWQ8L3RleHQ+PHJlY3QgeT0iNTI0LjQyOTciIHg9IjYzMSIgd2lkdGg9IjYiIHN0eWxlPSJzdHJva2U6I0M4MjkzMDtzdHJva2Utd2lkdGg6MS4wOyIgaGVpZ2h0PSI2IiBmaWxsPSJub25lIi8+PHRleHQgeT0iNTMwLjc3NjQiIHg9IjY0MyIgdGV4dExlbmd0aD0iMzcwIiBsZW5ndGhBZGp1c3Q9InNwYWNpbmciIGZvbnQtc2l6ZT0iMTQiIGZvbnQtZmFtaWx5PSJzYW5zLXNlcmlmIiBmaWxsPSIjMDAwMDAwIj5NYXAmbHQ7U2NvcmVDYXJkLENvbW1vbkdvYWxDYXJkJmd0OyBsYXN0VHVyblNjb3JlczwvdGV4dD48bGluZSB5Mj0iNTM4LjA3ODEiIHkxPSI1MzguMDc4MSIgeDI9IjEwNjgiIHgxPSI2MjQiIHN0eWxlPSJzdHJva2U6I0E4MDAzNjtzdHJva2Utd2lkdGg6MS4wOyIvPjxlbGxpcHNlIHN0eWxlPSJzdHJva2U6IzAzODA0ODtzdHJva2Utd2lkdGg6MS4wOyIgcnk9IjMiIHJ4PSIzIiBmaWxsPSIjODRCRTg0IiBjeT0iNTUxLjcyNjYiIGN4PSI2MzQiLz48dGV4dCB5PSI1NTUuMDczMiIgeD0iNjQzIiB0ZXh0TGVuZ3RoPSIyMzgiIGxlbmd0aEFkanVzdD0ic3BhY2luZyIgZm9udC1zaXplPSIxNCIgZm9udC1mYW1pbHk9InNhbnMtc2VyaWYiIGZpbGw9IiMwMDAwMDAiPsKrQ3JlYXRlwrsgR2FtZUNvbnRyb2xsZXIoU3RyaW5nKTwvdGV4dD48ZWxsaXBzZSBzdHlsZT0ic3Ryb2tlOiMwMzgwNDg7c3Ryb2tlLXdpZHRoOjEuMDsiIHJ5PSIzIiByeD0iMyIgZmlsbD0iIzg0QkU4NCIgY3k9IjU2OC4wMjM0IiBjeD0iNjM0Ii8+PHRleHQgeT0iNTcxLjM3MDEiIHg9IjY0MyIgdGV4dExlbmd0aD0iMTUwIiBsZW5ndGhBZGp1c3Q9InNwYWNpbmciIGZvbnQtc2l6ZT0iMTQiIGZvbnQtZmFtaWx5PSJzYW5zLXNlcmlmIiBmaWxsPSIjMDAwMDAwIj5TdHJpbmcgZ2V0SWRlbnRpZmllcigpPC90ZXh0PjxlbGxpcHNlIHN0eWxlPSJzdHJva2U6IzAzODA0ODtzdHJva2Utd2lkdGg6MS4wOyIgcnk9IjMiIHJ4PSIzIiBmaWxsPSIjODRCRTg0IiBjeT0iNTg0LjMyMDMiIGN4PSI2MzQiLz48dGV4dCB5PSI1ODcuNjY3IiB4PSI2NDMiIHRleHRMZW5ndGg9IjIzNCIgbGVuZ3RoQWRqdXN0PSJzcGFjaW5nIiBmb250LXNpemU9IjE0IiBmb250LWZhbWlseT0ic2Fucy1zZXJpZiIgZmlsbD0iIzAwMDAwMCI+Ym9vbGVhbiBhY2NlcHRQbGF5ZXIoU3RyaW5nLGludCk8L3RleHQ+PGVsbGlwc2Ugc3R5bGU9InN0cm9rZTojMDM4MDQ4O3N0cm9rZS13aWR0aDoxLjA7IiByeT0iMyIgcng9IjMiIGZpbGw9IiM4NEJFODQiIGN5PSI2MDAuNjE3MiIgY3g9IjYzNCIvPjx0ZXh0IHk9IjYwMy45NjM5IiB4PSI2NDMiIHRleHRMZW5ndGg9IjE3NiIgbGVuZ3RoQWRqdXN0PSJzcGFjaW5nIiBmb250LXNpemU9IjE0IiBmb250LWZhbWlseT0ic2Fucy1zZXJpZiIgZmlsbD0iIzAwMDAwMCI+TGlzdCZsdDtTdHJpbmcmZ3Q7IGdldExvYmJ5KCk8L3RleHQ+PGVsbGlwc2Ugc3R5bGU9InN0cm9rZTojMDM4MDQ4O3N0cm9rZS13aWR0aDoxLjA7IiByeT0iMyIgcng9IjMiIGZpbGw9IiM4NEJFODQiIGN5PSI2MTYuOTE0MSIgY3g9IjYzNCIvPjx0ZXh0IHk9IjYyMC4yNjA3IiB4PSI2NDMiIHRleHRMZW5ndGg9IjEzOCIgbGVuZ3RoQWRqdXN0PSJzcGFjaW5nIiBmb250LXNpemU9IjE0IiBmb250LWZhbWlseT0ic2Fucy1zZXJpZiIgZmlsbD0iIzAwMDAwMCI+aW50IGdldE1heFBsYXllcnMoKTwvdGV4dD48ZWxsaXBzZSBzdHlsZT0ic3Ryb2tlOiMwMzgwNDg7c3Ryb2tlLXdpZHRoOjEuMDsiIHJ5PSIzIiByeD0iMyIgZmlsbD0iIzg0QkU4NCIgY3k9IjYzMy4yMTA5IiBjeD0iNjM0Ii8+PHRleHQgeT0iNjM2LjU1NzYiIHg9IjY0MyIgdGV4dExlbmd0aD0iMTkxIiBsZW5ndGhBZGp1c3Q9InNwYWNpbmciIGZvbnQtc2l6ZT0iMTQiIGZvbnQtZmFtaWx5PSJzYW5zLXNlcmlmIiBmaWxsPSIjMDAwMDAwIj5ib29sZWFuIGlzR2FtZVByZXBhcmVkKCk8L3RleHQ+PGVsbGlwc2Ugc3R5bGU9InN0cm9rZTojMDM4MDQ4O3N0cm9rZS13aWR0aDoxLjA7IiByeT0iMyIgcng9IjMiIGZpbGw9IiM4NEJFODQiIGN5PSI2NDkuNTA3OCIgY3g9IjYzNCIvPjx0ZXh0IHk9IjY1Mi44NTQ1IiB4PSI2NDMiIHRleHRMZW5ndGg9IjIzMSIgbGVuZ3RoQWRqdXN0PSJzcGFjaW5nIiBmb250LXNpemU9IjE0IiBmb250LWZhbWlseT0ic2Fucy1zZXJpZiIgZmlsbD0iIzAwMDAwMCI+Qm9hcmRJbnRlcmZhY2UgZ2V0R2FtZUJvYXJkKCk8L3RleHQ+PGVsbGlwc2Ugc3R5bGU9InN0cm9rZTojMDM4MDQ4O3N0cm9rZS13aWR0aDoxLjA7IiByeT0iMyIgcng9IjMiIGZpbGw9IiM4NEJFODQiIGN5PSI2NjUuODA0NyIgY3g9IjYzNCIvPjx0ZXh0IHk9IjY2OS4xNTE0IiB4PSI2NDMiIHRleHRMZW5ndGg9IjIyMyIgbGVuZ3RoQWRqdXN0PSJzcGFjaW5nIiBmb250LXNpemU9IjE0IiBmb250LWZhbWlseT0ic2Fucy1zZXJpZiIgZmlsbD0iIzAwMDAwMCI+U2hlbGZJbnRlcmZhY2UgZ2V0U2hlbGYoU3RyaW5nKTwvdGV4dD48ZWxsaXBzZSBzdHlsZT0ic3Ryb2tlOiMwMzgwNDg7c3Ryb2tlLXdpZHRoOjEuMDsiIHJ5PSIzIiByeD0iMyIgZmlsbD0iIzg0QkU4NCIgY3k9IjY4Mi4xMDE2IiBjeD0iNjM0Ii8+PHRleHQgeT0iNjg1LjQ0ODIiIHg9IjY0MyIgdGV4dExlbmd0aD0iNDAxIiBsZW5ndGhBZGp1c3Q9InNwYWNpbmciIGZvbnQtc2l6ZT0iMTQiIGZvbnQtZmFtaWx5PSJzYW5zLXNlcmlmIiBmaWxsPSIjMDAwMDAwIj5QZXJzb25hbEdvYWxDYXJkSW50ZXJmYWNlIGdldFBlcnNvbmFsR29hbENhcmQoU3RyaW5nKTwvdGV4dD48ZWxsaXBzZSBzdHlsZT0ic3Ryb2tlOiMwMzgwNDg7c3Ryb2tlLXdpZHRoOjEuMDsiIHJ5PSIzIiByeD0iMyIgZmlsbD0iIzg0QkU4NCIgY3k9IjY5OC4zOTg0IiBjeD0iNjM0Ii8+PHRleHQgeT0iNzAxLjc0NTEiIHg9IjY0MyIgdGV4dExlbmd0aD0iNDIwIiBsZW5ndGhBZGp1c3Q9InNwYWNpbmciIGZvbnQtc2l6ZT0iMTQiIGZvbnQtZmFtaWx5PSJzYW5zLXNlcmlmIiBmaWxsPSIjMDAwMDAwIj5MaXN0Jmx0O0NvbW1vbkdvYWxDYXJkSW50ZXJmYWNlJmd0OyBnZXRDb21tb25Hb2FsQ2FyZHMoKTwvdGV4dD48ZWxsaXBzZSBzdHlsZT0ic3Ryb2tlOiMwMzgwNDg7c3Ryb2tlLXdpZHRoOjEuMDsiIHJ5PSIzIiByeD0iMyIgZmlsbD0iIzg0QkU4NCIgY3k9IjcxNC42OTUzIiBjeD0iNjM0Ii8+PHRleHQgeT0iNzE4LjA0MiIgeD0iNjQzIiB0ZXh0TGVuZ3RoPSI0MDkiIGxlbmd0aEFkanVzdD0ic3BhY2luZyIgZm9udC1zaXplPSIxNCIgZm9udC1mYW1pbHk9InNhbnMtc2VyaWYiIGZpbGw9IiMwMDAwMDAiPlN0YWNrJmx0O1Njb3JlQ2FyZCZndDsgZ2V0U2NvcmVDYXJkc0Zyb21OaWNrbmFtZShTdHJpbmcpPC90ZXh0PjxlbGxpcHNlIHN0eWxlPSJzdHJva2U6IzAzODA0ODtzdHJva2Utd2lkdGg6MS4wOyIgcnk9IjMiIHJ4PSIzIiBmaWxsPSIjODRCRTg0IiBjeT0iNzMwLjk5MjIiIGN4PSI2MzQiLz48dGV4dCB5PSI3MzQuMzM4OSIgeD0iNjQzIiB0ZXh0TGVuZ3RoPSIxODMiIGxlbmd0aEFkanVzdD0ic3BhY2luZyIgZm9udC1zaXplPSIxNCIgZm9udC1mYW1pbHk9InNhbnMtc2VyaWYiIGZpbGw9IiMwMDAwMDAiPkxpc3QmbHQ7U3RyaW5nJmd0OyBuaWNrbmFtZXMoKTwvdGV4dD48ZWxsaXBzZSBzdHlsZT0ic3Ryb2tlOiMwMzgwNDg7c3Ryb2tlLXdpZHRoOjEuMDsiIHJ5PSIzIiByeD0iMyIgZmlsbD0iIzg0QkU4NCIgY3k9Ijc0Ny4yODkxIiBjeD0iNjM0Ii8+PHRleHQgeT0iNzUwLjYzNTciIHg9IjY0MyIgdGV4dExlbmd0aD0iMjA1IiBsZW5ndGhBZGp1c3Q9InNwYWNpbmciIGZvbnQtc2l6ZT0iMTQiIGZvbnQtZmFtaWx5PSJzYW5zLXNlcmlmIiBmaWxsPSIjMDAwMDAwIj5TY29yZWJvYXJkIGdldFNjb3JlYm9hcmQoKTwvdGV4dD48ZWxsaXBzZSBzdHlsZT0ic3Ryb2tlOiMwMzgwNDg7c3Ryb2tlLXdpZHRoOjEuMDsiIHJ5PSIzIiByeD0iMyIgZmlsbD0iIzg0QkU4NCIgY3k9Ijc2My41ODU5IiBjeD0iNjM0Ii8+PHRleHQgeT0iNzY2LjkzMjYiIHg9IjY0MyIgdGV4dExlbmd0aD0iNDE1IiBsZW5ndGhBZGp1c3Q9InNwYWNpbmciIGZvbnQtc2l6ZT0iMTQiIGZvbnQtZmFtaWx5PSJzYW5zLXNlcmlmIiBmaWxsPSIjMDAwMDAwIj5Nb3ZlSW50ZXJtZWRpYXRlSW50ZXJmYWNlIGdldE1vdmVJbnRlcm1lZGlhdGUoU3RyaW5nKTwvdGV4dD48ZWxsaXBzZSBzdHlsZT0ic3Ryb2tlOiMwMzgwNDg7c3Ryb2tlLXdpZHRoOjEuMDsiIHJ5PSIzIiByeD0iMyIgZmlsbD0iIzg0QkU4NCIgY3k9Ijc3OS44ODI4IiBjeD0iNjM0Ii8+PHRleHQgeT0iNzgzLjIyOTUiIHg9IjY0MyIgdGV4dExlbmd0aD0iMTczIiBsZW5ndGhBZGp1c3Q9InNwYWNpbmciIGZvbnQtc2l6ZT0iMTQiIGZvbnQtZmFtaWx5PSJzYW5zLXNlcmlmIiBmaWxsPSIjMDAwMDAwIj5QbGF5ZXIgZ2V0QWN0aXZlUGxheWVyKCk8L3RleHQ+PHJlY3QgeT0iNzkzLjE3OTciIHg9IjYzMSIgd2lkdGg9IjYiIHN0eWxlPSJzdHJva2U6I0M4MjkzMDtzdHJva2Utd2lkdGg6MS4wOyIgaGVpZ2h0PSI2IiBmaWxsPSIjRjI0RDVDIi8+PHRleHQgeT0iNzk5LjUyNjQiIHg9IjY0MyIgdGV4dExlbmd0aD0iMTIxIiBsZW5ndGhBZGp1c3Q9InNwYWNpbmciIGZvbnQtc2l6ZT0iMTQiIGZvbnQtZmFtaWx5PSJzYW5zLXNlcmlmIiBmaWxsPSIjMDAwMDAwIj52b2lkIG5leHRQbGF5ZXIoKTwvdGV4dD48ZWxsaXBzZSBzdHlsZT0ic3Ryb2tlOiMwMzgwNDg7c3Ryb2tlLXdpZHRoOjEuMDsiIHJ5PSIzIiByeD0iMyIgZmlsbD0iIzg0QkU4NCIgY3k9IjgxMi40NzY2IiBjeD0iNjM0Ii8+PHRleHQgeT0iODE1LjgyMzIiIHg9IjY0MyIgdGV4dExlbmd0aD0iNDA5IiBsZW5ndGhBZGp1c3Q9InNwYWNpbmciIGZvbnQtc2l6ZT0iMTQiIGZvbnQtZmFtaWx5PSJzYW5zLXNlcmlmIiBmaWxsPSIjMDAwMDAwIj5NYXAmbHQ7U2NvcmVDYXJkLENvbW1vbkdvYWxDYXJkJmd0OyBnZXRMYXN0VHVyblNjb3JlcygpPC90ZXh0PjxlbGxpcHNlIHN0eWxlPSJzdHJva2U6IzAzODA0ODtzdHJva2Utd2lkdGg6MS4wOyIgcnk9IjMiIHJ4PSIzIiBmaWxsPSIjODRCRTg0IiBjeT0iODI4Ljc3MzQiIGN4PSI2MzQiLz48dGV4dCB5PSI4MzIuMTIwMSIgeD0iNjQzIiB0ZXh0TGVuZ3RoPSIxNTAiIGxlbmd0aEFkanVzdD0ic3BhY2luZyIgZm9udC1zaXplPSIxNCIgZm9udC1mYW1pbHk9InNhbnMtc2VyaWYiIGZpbGw9IiMwMDAwMDAiPmJvb2xlYW4gbWFrZShNb3ZlKTwvdGV4dD48ZWxsaXBzZSBzdHlsZT0ic3Ryb2tlOiMwMzgwNDg7c3Ryb2tlLXdpZHRoOjEuMDsiIHJ5PSIzIiByeD0iMyIgZmlsbD0iIzg0QkU4NCIgY3k9Ijg0NS4wNzAzIiBjeD0iNjM0Ii8+PHRleHQgeT0iODQ4LjQxNyIgeD0iNjQzIiB0ZXh0TGVuZ3RoPSIxNzAiIGxlbmd0aEFkanVzdD0ic3BhY2luZyIgZm9udC1zaXplPSIxNCIgZm9udC1mYW1pbHk9InNhbnMtc2VyaWYiIGZpbGw9IiMwMDAwMDAiPmJvb2xlYW4gaXNHYW1lRW5kZWQoKTwvdGV4dD48ZWxsaXBzZSBzdHlsZT0ic3Ryb2tlOiMwMzgwNDg7c3Ryb2tlLXdpZHRoOjEuMDsiIHJ5PSIzIiByeD0iMyIgZmlsbD0iIzg0QkU4NCIgY3k9Ijg2MS4zNjcyIiBjeD0iNjM0Ii8+PHRleHQgeT0iODY0LjcxMzkiIHg9IjY0MyIgdGV4dExlbmd0aD0iMTk3IiBsZW5ndGhBZGp1c3Q9InNwYWNpbmciIGZvbnQtc2l6ZT0iMTQiIGZvbnQtZmFtaWx5PSJzYW5zLXNlcmlmIiBmaWxsPSIjMDAwMDAwIj5ib29sZWFuIGlzR2FtZUNvbXBsZXRlKCk8L3RleHQ+PGVsbGlwc2Ugc3R5bGU9InN0cm9rZTojMDM4MDQ4O3N0cm9rZS13aWR0aDoxLjA7IiByeT0iMyIgcng9IjMiIGZpbGw9IiM4NEJFODQiIGN5PSI4NzcuNjY0MSIgY3g9IjYzNCIvPjx0ZXh0IHk9Ijg4MS4wMTA3IiB4PSI2NDMiIHRleHRMZW5ndGg9IjI2MCIgbGVuZ3RoQWRqdXN0PSJzcGFjaW5nIiBmb250LXNpemU9IjE0IiBmb250LWZhbWlseT0ic2Fucy1zZXJpZiIgZmlsbD0iIzAwMDAwMCI+UGxheWVyIGdldFBsYXllckJ5Tmlja25hbWUoU3RyaW5nKTwvdGV4dD48ZWxsaXBzZSBzdHlsZT0ic3Ryb2tlOiMwMzgwNDg7c3Ryb2tlLXdpZHRoOjEuMDsiIHJ5PSIzIiByeD0iMyIgZmlsbD0iIzg0QkU4NCIgY3k9Ijg5My45NjA5IiBjeD0iNjM0Ii8+PHRleHQgeT0iODk3LjMwNzYiIHg9IjY0MyIgdGV4dExlbmd0aD0iMTUyIiBsZW5ndGhBZGp1c3Q9InNwYWNpbmciIGZvbnQtc2l6ZT0iMTQiIGZvbnQtZmFtaWx5PSJzYW5zLXNlcmlmIiBmaWxsPSIjMDAwMDAwIj52b2lkIHJlZnJlc2hFbnRpdGllcygpPC90ZXh0PjxlbGxpcHNlIHN0eWxlPSJzdHJva2U6IzAzODA0ODtzdHJva2Utd2lkdGg6MS4wOyIgcnk9IjMiIHJ4PSIzIiBmaWxsPSIjODRCRTg0IiBjeT0iOTEwLjI1NzgiIGN4PSI2MzQiLz48dGV4dCB5PSI5MTMuNjA0NSIgeD0iNjQzIiB0ZXh0TGVuZ3RoPSIyMTMiIGxlbmd0aEFkanVzdD0ic3BhY2luZyIgZm9udC1zaXplPSIxNCIgZm9udC1mYW1pbHk9InNhbnMtc2VyaWYiIGZpbGw9IiMwMDAwMDAiPmJvb2xlYW4gcmVFbnRlckdhbWUoU3RyaW5nKTwvdGV4dD48L2c+PGcgaWQ9ImVsZW1fTW92ZSI+PHJlY3QgeT0iNTM5IiB4PSIxMjgiIHdpZHRoPSI0NjAiIHN0eWxlPSJzdHJva2U6I0E4MDAzNjtzdHJva2Utd2lkdGg6MS4wOyIgaWQ9Ik1vdmUiIGhlaWdodD0iMjI3LjI2NTYiIGZpbHRlcj0idXJsKCNmNXVvdDhkeXZkanJsKSIgZmlsbD0iI0ZFRkVDRSIvPjxlbGxpcHNlIHN0eWxlPSJzdHJva2U6I0E4MDAzNjtzdHJva2Utd2lkdGg6MS4wOyIgcnk9IjExIiByeD0iMTEiIGZpbGw9IiNBREQxQjIiIGN5PSI1NTUiIGN4PSIzMzQuNzUiLz48cGF0aCBmaWxsPSIjMDAwMDAwIiBkPSJNMzM3LjA5MzgsNTUwLjY3MTkgQzMzNi4xNTYzLDU1MC4yMzQ0IDMzNS41NjI1LDU1MC4wOTM4IDMzNC42ODc1LDU1MC4wOTM4IEMzMzIuMDYyNSw1NTAuMDkzOCAzMzAuMDYyNSw1NTIuMTcxOSAzMzAuMDYyNSw1NTQuODkwNiBMMzMwLjA2MjUsNTU2LjAxNTYgQzMzMC4wNjI1LDU1OC41OTM4IDMzMi4xNzE5LDU2MC40ODQ0IDMzNS4wNjI1LDU2MC40ODQ0IEMzMzYuMjgxMyw1NjAuNDg0NCAzMzcuNDM3NSw1NjAuMTg3NSAzMzguMTg3NSw1NTkuNjQwNiBDMzM4Ljc2NTYsNTU5LjIzNDQgMzM5LjA5MzgsNTU4Ljc4MTMgMzM5LjA5MzgsNTU4LjM5MDYgQzMzOS4wOTM4LDU1Ny45Mzc1IDMzOC43MDMxLDU1Ny41NDY5IDMzOC4yMzQ0LDU1Ny41NDY5IEMzMzguMDE1Niw1NTcuNTQ2OSAzMzcuODEyNSw1NTcuNjI1IDMzNy42MjUsNTU3LjgxMjUgQzMzNy4xNzE5LDU1OC4yOTY5IDMzNy4xNzE5LDU1OC4yOTY5IDMzNi45ODQ0LDU1OC4zOTA2IEMzMzYuNTYyNSw1NTguNjU2MyAzMzUuODc1LDU1OC43ODEzIDMzNS4xMDk0LDU1OC43ODEzIEMzMzMuMDYyNSw1NTguNzgxMyAzMzEuNzY1Niw1NTcuNjg3NSAzMzEuNzY1Niw1NTUuOTg0NCBMMzMxLjc2NTYsNTU0Ljg5MDYgQzMzMS43NjU2LDU1My4xMDk0IDMzMy4wMTU2LDU1MS43OTY5IDMzNC43NSw1NTEuNzk2OSBDMzM1LjMyODEsNTUxLjc5NjkgMzM1LjkzNzUsNTUxLjk1MzEgMzM2LjQwNjMsNTUyLjIwMzEgQzMzNi44OTA2LDU1Mi40ODQ0IDMzNy4wNjI1LDU1Mi43MDMxIDMzNy4xNTYzLDU1My4xMDk0IEMzMzcuMjE4OCw1NTMuNTE1NiAzMzcuMjUsNTUzLjY0MDYgMzM3LjM5MDYsNTUzLjc2NTYgQzMzNy41MzEzLDU1My45MDYzIDMzNy43NjU2LDU1NC4wMTU2IDMzNy45ODQ0LDU1NC4wMTU2IEMzMzguMjUsNTU0LjAxNTYgMzM4LjUxNTYsNTUzLjg3NSAzMzguNjg3NSw1NTMuNjU2MyBDMzM4Ljc5NjksNTUzLjUgMzM4LjgyODEsNTUzLjMxMjUgMzM4LjgyODEsNTUyLjg5MDYgTDMzOC44MjgxLDU1MS40Njg4IEMzMzguODI4MSw1NTEuMDMxMyAzMzguODEyNSw1NTAuOTA2MyAzMzguNzE4OCw1NTAuNzUgQzMzOC41NjI1LDU1MC40ODQ0IDMzOC4yODEzLDU1MC4zNDM4IDMzNy45ODQ0LDU1MC4zNDM4IEMzMzcuNjg3NSw1NTAuMzQzOCAzMzcuNDg0NCw1NTAuNDM3NSAzMzcuMjY1Niw1NTAuNzUgTDMzNy4wOTM4LDU1MC42NzE5IFoiLz48dGV4dCB5PSI1NTkuODQ2NyIgeD0iMzU1LjI1IiB0ZXh0TGVuZ3RoPSIzOCIgbGVuZ3RoQWRqdXN0PSJzcGFjaW5nIiBmb250LXNpemU9IjE0IiBmb250LWZhbWlseT0ic2Fucy1zZXJpZiIgZmlsbD0iIzAwMDAwMCI+TW92ZTwvdGV4dD48bGluZSB5Mj0iNTcxIiB5MT0iNTcxIiB4Mj0iNTg3IiB4MT0iMTI5IiBzdHlsZT0ic3Ryb2tlOiNBODAwMzY7c3Ryb2tlLXdpZHRoOjEuMDsiLz48cmVjdCB5PSI1ODEuNjQ4NCIgeD0iMTM2IiB3aWR0aD0iNiIgc3R5bGU9InN0cm9rZTojQzgyOTMwO3N0cm9rZS13aWR0aDoxLjA7IiBoZWlnaHQ9IjYiIGZpbGw9Im5vbmUiLz48dGV4dCB5PSI1ODcuOTk1MSIgeD0iMTQ4IiB0ZXh0TGVuZ3RoPSI3NiIgbGVuZ3RoQWRqdXN0PSJzcGFjaW5nIiBmb250LXNpemU9IjE0IiBmb250LWZhbWlseT0ic2Fucy1zZXJpZiIgZmlsbD0iIzAwMDAwMCI+aW50IGNvbHVtbjwvdGV4dD48cmVjdCB5PSI1OTcuOTQ1MyIgeD0iMTM2IiB3aWR0aD0iNiIgc3R5bGU9InN0cm9rZTojQzgyOTMwO3N0cm9rZS13aWR0aDoxLjA7IiBoZWlnaHQ9IjYiIGZpbGw9Im5vbmUiLz48dGV4dCB5PSI2MDQuMjkyIiB4PSIxNDgiIHRleHRMZW5ndGg9IjIzMSIgbGVuZ3RoQWRqdXN0PSJzcGFjaW5nIiBmb250LXNpemU9IjE0IiBmb250LWZhbWlseT0ic2Fucy1zZXJpZiIgZmlsbD0iIzAwMDAwMCI+TGlzdCZsdDtPYmplY3RDYXJkJmd0OyBvcmRlcmVkQ2FyZHM8L3RleHQ+PHJlY3QgeT0iNjE0LjI0MjIiIHg9IjEzNiIgd2lkdGg9IjYiIHN0eWxlPSJzdHJva2U6I0M4MjkzMDtzdHJva2Utd2lkdGg6MS4wOyIgaGVpZ2h0PSI2IiBmaWxsPSJub25lIi8+PHRleHQgeT0iNjIwLjU4ODkiIHg9IjE0OCIgdGV4dExlbmd0aD0iMTEzIiBsZW5ndGhBZGp1c3Q9InNwYWNpbmciIGZvbnQtc2l6ZT0iMTQiIGZvbnQtZmFtaWx5PSJzYW5zLXNlcmlmIiBmaWxsPSIjMDAwMDAwIj5MaXN0Jmx0O0ludGVnZXImZ3Q7IHg8L3RleHQ+PHJlY3QgeT0iNjMwLjUzOTEiIHg9IjEzNiIgd2lkdGg9IjYiIHN0eWxlPSJzdHJva2U6I0M4MjkzMDtzdHJva2Utd2lkdGg6MS4wOyIgaGVpZ2h0PSI2IiBmaWxsPSJub25lIi8+PHRleHQgeT0iNjM2Ljg4NTciIHg9IjE0OCIgdGV4dExlbmd0aD0iMTEzIiBsZW5ndGhBZGp1c3Q9InNwYWNpbmciIGZvbnQtc2l6ZT0iMTQiIGZvbnQtZmFtaWx5PSJzYW5zLXNlcmlmIiBmaWxsPSIjMDAwMDAwIj5MaXN0Jmx0O0ludGVnZXImZ3Q7IHk8L3RleHQ+PHJlY3QgeT0iNjQ2LjgzNTkiIHg9IjEzNiIgd2lkdGg9IjYiIHN0eWxlPSJzdHJva2U6I0M4MjkzMDtzdHJva2Utd2lkdGg6MS4wOyIgaGVpZ2h0PSI2IiBmaWxsPSJub25lIi8+PHRleHQgeT0iNjUzLjE4MjYiIHg9IjE0OCIgdGV4dExlbmd0aD0iODgiIGxlbmd0aEFkanVzdD0ic3BhY2luZyIgZm9udC1zaXplPSIxNCIgZm9udC1mYW1pbHk9InNhbnMtc2VyaWYiIGZpbGw9IiMwMDAwMDAiPkJvYXJkIGJvYXJkPC90ZXh0PjxyZWN0IHk9IjY2My4xMzI4IiB4PSIxMzYiIHdpZHRoPSI2IiBzdHlsZT0ic3Ryb2tlOiNDODI5MzA7c3Ryb2tlLXdpZHRoOjEuMDsiIGhlaWdodD0iNiIgZmlsbD0ibm9uZSIvPjx0ZXh0IHk9IjY2OS40Nzk1IiB4PSIxNDgiIHRleHRMZW5ndGg9Ijc2IiBsZW5ndGhBZGp1c3Q9InNwYWNpbmciIGZvbnQtc2l6ZT0iMTQiIGZvbnQtZmFtaWx5PSJzYW5zLXNlcmlmIiBmaWxsPSIjMDAwMDAwIj5TaGVsZiBzaGVsZjwvdGV4dD48bGluZSB5Mj0iNjc2Ljc4MTMiIHkxPSI2NzYuNzgxMyIgeDI9IjU4NyIgeDE9IjEyOSIgc3R5bGU9InN0cm9rZTojQTgwMDM2O3N0cm9rZS13aWR0aDoxLjA7Ii8+PGVsbGlwc2Ugc3R5bGU9InN0cm9rZTojMDM4MDQ4O3N0cm9rZS13aWR0aDoxLjA7IiByeT0iMyIgcng9IjMiIGZpbGw9IiM4NEJFODQiIGN5PSI2OTAuNDI5NyIgY3g9IjEzOSIvPjx0ZXh0IHk9IjY5My43NzY0IiB4PSIxNDgiIHRleHRMZW5ndGg9IjQzNCIgbGVuZ3RoQWRqdXN0PSJzcGFjaW5nIiBmb250LXNpemU9IjE0IiBmb250LWZhbWlseT0ic2Fucy1zZXJpZiIgZmlsbD0iIzAwMDAwMCI+wqtDcmVhdGXCuyBNb3ZlKGludCxMaXN0Jmx0O0ludGVnZXImZ3Q7LExpc3QmbHQ7SW50ZWdlciZndDssQm9hcmQsU2hlbGYpPC90ZXh0PjxlbGxpcHNlIHN0eWxlPSJzdHJva2U6IzAzODA0ODtzdHJva2Utd2lkdGg6MS4wOyIgcnk9IjMiIHJ4PSIzIiBmaWxsPSIjODRCRTg0IiBjeT0iNzA2LjcyNjYiIGN4PSIxMzkiLz48dGV4dCB5PSI3MTAuMDczMiIgeD0iMTQ4IiB0ZXh0TGVuZ3RoPSIyNTciIGxlbmd0aEFkanVzdD0ic3BhY2luZyIgZm9udC1zaXplPSIxNCIgZm9udC1mYW1pbHk9InNhbnMtc2VyaWYiIGZpbGw9IiMwMDAwMDAiPnZvaWQgc2V0Qm9hcmRBbmRTaGVsZihCb2FyZCxTaGVsZik8L3RleHQ+PGVsbGlwc2Ugc3R5bGU9InN0cm9rZTojMDM4MDQ4O3N0cm9rZS13aWR0aDoxLjA7IiByeT0iMyIgcng9IjMiIGZpbGw9IiM4NEJFODQiIGN5PSI3MjMuMDIzNCIgY3g9IjEzOSIvPjx0ZXh0IHk9IjcyNi4zNzAxIiB4PSIxNDgiIHRleHRMZW5ndGg9IjEwNSIgbGVuZ3RoQWRqdXN0PSJzcGFjaW5nIiBmb250LXNpemU9IjE0IiBmb250LWZhbWlseT0ic2Fucy1zZXJpZiIgZmlsbD0iIzAwMDAwMCI+Ym9vbGVhbiB0YWtlKCk8L3RleHQ+PGVsbGlwc2Ugc3R5bGU9InN0cm9rZTojMDM4MDQ4O3N0cm9rZS13aWR0aDoxLjA7IiByeT0iMyIgcng9IjMiIGZpbGw9IiM4NEJFODQiIGN5PSI3MzkuMzIwMyIgY3g9IjEzOSIvPjx0ZXh0IHk9Ijc0Mi42NjciIHg9IjE0OCIgdGV4dExlbmd0aD0iMTQxIiBsZW5ndGhBZGp1c3Q9InNwYWNpbmciIGZvbnQtc2l6ZT0iMTQiIGZvbnQtZmFtaWx5PSJzYW5zLXNlcmlmIiBmaWxsPSIjMDAwMDAwIj52b2lkIHJlc3RvcmVUYWtlbigpPC90ZXh0PjxlbGxpcHNlIHN0eWxlPSJzdHJva2U6IzAzODA0ODtzdHJva2Utd2lkdGg6MS4wOyIgcnk9IjMiIHJ4PSIzIiBmaWxsPSIjODRCRTg0IiBjeT0iNzU1LjYxNzIiIGN4PSIxMzkiLz48dGV4dCB5PSI3NTguOTYzOSIgeD0iMTQ4IiB0ZXh0TGVuZ3RoPSIxMTEiIGxlbmd0aEFkanVzdD0ic3BhY2luZyIgZm9udC1zaXplPSIxNCIgZm9udC1mYW1pbHk9InNhbnMtc2VyaWYiIGZpbGw9IiMwMDAwMDAiPmJvb2xlYW4gcGxhY2UoKTwvdGV4dD48L2c+PGcgaWQ9ImVsZW1fUGVyc29uYWxHb2FsQ2FyZEludGVyZmFjZSI+PHJlY3QgeT0iMTcwIiB4PSIyOTUzIiB3aWR0aD0iMjI0IiBzdHlsZT0ic3Ryb2tlOiNBODAwMzY7c3Ryb2tlLXdpZHRoOjEuMDsiIGlkPSJQZXJzb25hbEdvYWxDYXJkSW50ZXJmYWNlIiBoZWlnaHQ9IjQ4IiBmaWx0ZXI9InVybCgjZjV1b3Q4ZHl2ZGpybCkiIGZpbGw9IiNGRUZFQ0UiLz48ZWxsaXBzZSBzdHlsZT0ic3Ryb2tlOiNBODAwMzY7c3Ryb2tlLXdpZHRoOjEuMDsiIHJ5PSIxMSIgcng9IjExIiBmaWxsPSIjQUREMUIyIiBjeT0iMTg2IiBjeD0iMjk2OCIvPjxwYXRoIGZpbGw9IiMwMDAwMDAiIGQ9Ik0yOTcwLjM0MzgsMTgxLjY3MTkgQzI5NjkuNDA2MywxODEuMjM0NCAyOTY4LjgxMjUsMTgxLjA5MzggMjk2Ny45Mzc1LDE4MS4wOTM4IEMyOTY1LjMxMjUsMTgxLjA5MzggMjk2My4zMTI1LDE4My4xNzE5IDI5NjMuMzEyNSwxODUuODkwNiBMMjk2My4zMTI1LDE4Ny4wMTU2IEMyOTYzLjMxMjUsMTg5LjU5MzggMjk2NS40MjE5LDE5MS40ODQ0IDI5NjguMzEyNSwxOTEuNDg0NCBDMjk2OS41MzEzLDE5MS40ODQ0IDI5NzAuNjg3NSwxOTEuMTg3NSAyOTcxLjQzNzUsMTkwLjY0MDYgQzI5NzIuMDE1NiwxOTAuMjM0NCAyOTcyLjM0MzgsMTg5Ljc4MTMgMjk3Mi4zNDM4LDE4OS4zOTA2IEMyOTcyLjM0MzgsMTg4LjkzNzUgMjk3MS45NTMxLDE4OC41NDY5IDI5NzEuNDg0NCwxODguNTQ2OSBDMjk3MS4yNjU2LDE4OC41NDY5IDI5NzEuMDYyNSwxODguNjI1IDI5NzAuODc1LDE4OC44MTI1IEMyOTcwLjQyMTksMTg5LjI5NjkgMjk3MC40MjE5LDE4OS4yOTY5IDI5NzAuMjM0NCwxODkuMzkwNiBDMjk2OS44MTI1LDE4OS42NTYzIDI5NjkuMTI1LDE4OS43ODEzIDI5NjguMzU5NCwxODkuNzgxMyBDMjk2Ni4zMTI1LDE4OS43ODEzIDI5NjUuMDE1NiwxODguNjg3NSAyOTY1LjAxNTYsMTg2Ljk4NDQgTDI5NjUuMDE1NiwxODUuODkwNiBDMjk2NS4wMTU2LDE4NC4xMDk0IDI5NjYuMjY1NiwxODIuNzk2OSAyOTY4LDE4Mi43OTY5IEMyOTY4LjU3ODEsMTgyLjc5NjkgMjk2OS4xODc1LDE4Mi45NTMxIDI5NjkuNjU2MywxODMuMjAzMSBDMjk3MC4xNDA2LDE4My40ODQ0IDI5NzAuMzEyNSwxODMuNzAzMSAyOTcwLjQwNjMsMTg0LjEwOTQgQzI5NzAuNDY4OCwxODQuNTE1NiAyOTcwLjUsMTg0LjY0MDYgMjk3MC42NDA2LDE4NC43NjU2IEMyOTcwLjc4MTMsMTg0LjkwNjMgMjk3MS4wMTU2LDE4NS4wMTU2IDI5NzEuMjM0NCwxODUuMDE1NiBDMjk3MS41LDE4NS4wMTU2IDI5NzEuNzY1NiwxODQuODc1IDI5NzEuOTM3NSwxODQuNjU2MyBDMjk3Mi4wNDY5LDE4NC41IDI5NzIuMDc4MSwxODQuMzEyNSAyOTcyLjA3ODEsMTgzLjg5MDYgTDI5NzIuMDc4MSwxODIuNDY4OCBDMjk3Mi4wNzgxLDE4Mi4wMzEzIDI5NzIuMDYyNSwxODEuOTA2MyAyOTcxLjk2ODgsMTgxLjc1IEMyOTcxLjgxMjUsMTgxLjQ4NDQgMjk3MS41MzEzLDE4MS4zNDM4IDI5NzEuMjM0NCwxODEuMzQzOCBDMjk3MC45Mzc1LDE4MS4zNDM4IDI5NzAuNzM0NCwxODEuNDM3NSAyOTcwLjUxNTYsMTgxLjc1IEwyOTcwLjM0MzgsMTgxLjY3MTkgWiIvPjx0ZXh0IHk9IjE5MC44NDY3IiB4PSIyOTgyIiB0ZXh0TGVuZ3RoPSIxOTIiIGxlbmd0aEFkanVzdD0ic3BhY2luZyIgZm9udC1zaXplPSIxNCIgZm9udC1mYW1pbHk9InNhbnMtc2VyaWYiIGZpbGw9IiMwMDAwMDAiPlBlcnNvbmFsR29hbENhcmRJbnRlcmZhY2U8L3RleHQ+PGxpbmUgeTI9IjIwMiIgeTE9IjIwMiIgeDI9IjMxNzYiIHgxPSIyOTU0IiBzdHlsZT0ic3Ryb2tlOiNBODAwMzY7c3Ryb2tlLXdpZHRoOjEuMDsiLz48bGluZSB5Mj0iMjEwIiB5MT0iMjEwIiB4Mj0iMzE3NiIgeDE9IjI5NTQiIHN0eWxlPSJzdHJva2U6I0E4MDAzNjtzdHJva2Utd2lkdGg6MS4wOyIvPjwvZz48ZyBpZD0iZWxlbV9PYmplY3RDYXJkSW50ZXJmYWNlIj48cmVjdCB5PSIxNzAiIHg9IjE4NzYiIHdpZHRoPSIxODAiIHN0eWxlPSJzdHJva2U6I0E4MDAzNjtzdHJva2Utd2lkdGg6MS4wOyIgaWQ9Ik9iamVjdENhcmRJbnRlcmZhY2UiIGhlaWdodD0iNDgiIGZpbHRlcj0idXJsKCNmNXVvdDhkeXZkanJsKSIgZmlsbD0iI0ZFRkVDRSIvPjxlbGxpcHNlIHN0eWxlPSJzdHJva2U6I0E4MDAzNjtzdHJva2Utd2lkdGg6MS4wOyIgcnk9IjExIiByeD0iMTEiIGZpbGw9IiNBREQxQjIiIGN5PSIxODYiIGN4PSIxODkxIi8+PHBhdGggZmlsbD0iIzAwMDAwMCIgZD0iTTE4OTMuMzQzOCwxODEuNjcxOSBDMTg5Mi40MDYzLDE4MS4yMzQ0IDE4OTEuODEyNSwxODEuMDkzOCAxODkwLjkzNzUsMTgxLjA5MzggQzE4ODguMzEyNSwxODEuMDkzOCAxODg2LjMxMjUsMTgzLjE3MTkgMTg4Ni4zMTI1LDE4NS44OTA2IEwxODg2LjMxMjUsMTg3LjAxNTYgQzE4ODYuMzEyNSwxODkuNTkzOCAxODg4LjQyMTksMTkxLjQ4NDQgMTg5MS4zMTI1LDE5MS40ODQ0IEMxODkyLjUzMTMsMTkxLjQ4NDQgMTg5My42ODc1LDE5MS4xODc1IDE4OTQuNDM3NSwxOTAuNjQwNiBDMTg5NS4wMTU2LDE5MC4yMzQ0IDE4OTUuMzQzOCwxODkuNzgxMyAxODk1LjM0MzgsMTg5LjM5MDYgQzE4OTUuMzQzOCwxODguOTM3NSAxODk0Ljk1MzEsMTg4LjU0NjkgMTg5NC40ODQ0LDE4OC41NDY5IEMxODk0LjI2NTYsMTg4LjU0NjkgMTg5NC4wNjI1LDE4OC42MjUgMTg5My44NzUsMTg4LjgxMjUgQzE4OTMuNDIxOSwxODkuMjk2OSAxODkzLjQyMTksMTg5LjI5NjkgMTg5My4yMzQ0LDE4OS4zOTA2IEMxODkyLjgxMjUsMTg5LjY1NjMgMTg5Mi4xMjUsMTg5Ljc4MTMgMTg5MS4zNTk0LDE4OS43ODEzIEMxODg5LjMxMjUsMTg5Ljc4MTMgMTg4OC4wMTU2LDE4OC42ODc1IDE4ODguMDE1NiwxODYuOTg0NCBMMTg4OC4wMTU2LDE4NS44OTA2IEMxODg4LjAxNTYsMTg0LjEwOTQgMTg4OS4yNjU2LDE4Mi43OTY5IDE4OTEsMTgyLjc5NjkgQzE4OTEuNTc4MSwxODIuNzk2OSAxODkyLjE4NzUsMTgyLjk1MzEgMTg5Mi42NTYzLDE4My4yMDMxIEMxODkzLjE0MDYsMTgzLjQ4NDQgMTg5My4zMTI1LDE4My43MDMxIDE4OTMuNDA2MywxODQuMTA5NCBDMTg5My40Njg4LDE4NC41MTU2IDE4OTMuNSwxODQuNjQwNiAxODkzLjY0MDYsMTg0Ljc2NTYgQzE4OTMuNzgxMywxODQuOTA2MyAxODk0LjAxNTYsMTg1LjAxNTYgMTg5NC4yMzQ0LDE4NS4wMTU2IEMxODk0LjUsMTg1LjAxNTYgMTg5NC43NjU2LDE4NC44NzUgMTg5NC45Mzc1LDE4NC42NTYzIEMxODk1LjA0NjksMTg0LjUgMTg5NS4wNzgxLDE4NC4zMTI1IDE4OTUuMDc4MSwxODMuODkwNiBMMTg5NS4wNzgxLDE4Mi40Njg4IEMxODk1LjA3ODEsMTgyLjAzMTMgMTg5NS4wNjI1LDE4MS45MDYzIDE4OTQuOTY4OCwxODEuNzUgQzE4OTQuODEyNSwxODEuNDg0NCAxODk0LjUzMTMsMTgxLjM0MzggMTg5NC4yMzQ0LDE4MS4zNDM4IEMxODkzLjkzNzUsMTgxLjM0MzggMTg5My43MzQ0LDE4MS40Mzc1IDE4OTMuNTE1NiwxODEuNzUgTDE4OTMuMzQzOCwxODEuNjcxOSBaIi8+PHRleHQgeT0iMTkwLjg0NjciIHg9IjE5MDUiIHRleHRMZW5ndGg9IjE0OCIgbGVuZ3RoQWRqdXN0PSJzcGFjaW5nIiBmb250LXNpemU9IjE0IiBmb250LWZhbWlseT0ic2Fucy1zZXJpZiIgZmlsbD0iIzAwMDAwMCI+T2JqZWN0Q2FyZEludGVyZmFjZTwvdGV4dD48bGluZSB5Mj0iMjAyIiB5MT0iMjAyIiB4Mj0iMjA1NSIgeDE9IjE4NzciIHN0eWxlPSJzdHJva2U6I0E4MDAzNjtzdHJva2Utd2lkdGg6MS4wOyIvPjxsaW5lIHkyPSIyMTAiIHkxPSIyMTAiIHgyPSIyMDU1IiB4MT0iMTg3NyIgc3R5bGU9InN0cm9rZTojQTgwMDM2O3N0cm9rZS13aWR0aDoxLjA7Ii8+PC9nPjxnIGlkPSJlbGVtX1Njb3JlQ2FyZEludGVyZmFjZSI+PHJlY3QgeT0iMTcwIiB4PSIyNzQ2IiB3aWR0aD0iMTcyIiBzdHlsZT0ic3Ryb2tlOiNBODAwMzY7c3Ryb2tlLXdpZHRoOjEuMDsiIGlkPSJTY29yZUNhcmRJbnRlcmZhY2UiIGhlaWdodD0iNDgiIGZpbHRlcj0idXJsKCNmNXVvdDhkeXZkanJsKSIgZmlsbD0iI0ZFRkVDRSIvPjxlbGxpcHNlIHN0eWxlPSJzdHJva2U6I0E4MDAzNjtzdHJva2Utd2lkdGg6MS4wOyIgcnk9IjExIiByeD0iMTEiIGZpbGw9IiNBREQxQjIiIGN5PSIxODYiIGN4PSIyNzYxIi8+PHBhdGggZmlsbD0iIzAwMDAwMCIgZD0iTTI3NjMuMzQzOCwxODEuNjcxOSBDMjc2Mi40MDYzLDE4MS4yMzQ0IDI3NjEuODEyNSwxODEuMDkzOCAyNzYwLjkzNzUsMTgxLjA5MzggQzI3NTguMzEyNSwxODEuMDkzOCAyNzU2LjMxMjUsMTgzLjE3MTkgMjc1Ni4zMTI1LDE4NS44OTA2IEwyNzU2LjMxMjUsMTg3LjAxNTYgQzI3NTYuMzEyNSwxODkuNTkzOCAyNzU4LjQyMTksMTkxLjQ4NDQgMjc2MS4zMTI1LDE5MS40ODQ0IEMyNzYyLjUzMTMsMTkxLjQ4NDQgMjc2My42ODc1LDE5MS4xODc1IDI3NjQuNDM3NSwxOTAuNjQwNiBDMjc2NS4wMTU2LDE5MC4yMzQ0IDI3NjUuMzQzOCwxODkuNzgxMyAyNzY1LjM0MzgsMTg5LjM5MDYgQzI3NjUuMzQzOCwxODguOTM3NSAyNzY0Ljk1MzEsMTg4LjU0NjkgMjc2NC40ODQ0LDE4OC41NDY5IEMyNzY0LjI2NTYsMTg4LjU0NjkgMjc2NC4wNjI1LDE4OC42MjUgMjc2My44NzUsMTg4LjgxMjUgQzI3NjMuNDIxOSwxODkuMjk2OSAyNzYzLjQyMTksMTg5LjI5NjkgMjc2My4yMzQ0LDE4OS4zOTA2IEMyNzYyLjgxMjUsMTg5LjY1NjMgMjc2Mi4xMjUsMTg5Ljc4MTMgMjc2MS4zNTk0LDE4OS43ODEzIEMyNzU5LjMxMjUsMTg5Ljc4MTMgMjc1OC4wMTU2LDE4OC42ODc1IDI3NTguMDE1NiwxODYuOTg0NCBMMjc1OC4wMTU2LDE4NS44OTA2IEMyNzU4LjAxNTYsMTg0LjEwOTQgMjc1OS4yNjU2LDE4Mi43OTY5IDI3NjEsMTgyLjc5NjkgQzI3NjEuNTc4MSwxODIuNzk2OSAyNzYyLjE4NzUsMTgyLjk1MzEgMjc2Mi42NTYzLDE4My4yMDMxIEMyNzYzLjE0MDYsMTgzLjQ4NDQgMjc2My4zMTI1LDE4My43MDMxIDI3NjMuNDA2MywxODQuMTA5NCBDMjc2My40Njg4LDE4NC41MTU2IDI3NjMuNSwxODQuNjQwNiAyNzYzLjY0MDYsMTg0Ljc2NTYgQzI3NjMuNzgxMywxODQuOTA2MyAyNzY0LjAxNTYsMTg1LjAxNTYgMjc2NC4yMzQ0LDE4NS4wMTU2IEMyNzY0LjUsMTg1LjAxNTYgMjc2NC43NjU2LDE4NC44NzUgMjc2NC45Mzc1LDE4NC42NTYzIEMyNzY1LjA0NjksMTg0LjUgMjc2NS4wNzgxLDE4NC4zMTI1IDI3NjUuMDc4MSwxODMuODkwNiBMMjc2NS4wNzgxLDE4Mi40Njg4IEMyNzY1LjA3ODEsMTgyLjAzMTMgMjc2NS4wNjI1LDE4MS45MDYzIDI3NjQuOTY4OCwxODEuNzUgQzI3NjQuODEyNSwxODEuNDg0NCAyNzY0LjUzMTMsMTgxLjM0MzggMjc2NC4yMzQ0LDE4MS4zNDM4IEMyNzYzLjkzNzUsMTgxLjM0MzggMjc2My43MzQ0LDE4MS40Mzc1IDI3NjMuNTE1NiwxODEuNzUgTDI3NjMuMzQzOCwxODEuNjcxOSBaIi8+PHRleHQgeT0iMTkwLjg0NjciIHg9IjI3NzUiIHRleHRMZW5ndGg9IjE0MCIgbGVuZ3RoQWRqdXN0PSJzcGFjaW5nIiBmb250LXNpemU9IjE0IiBmb250LWZhbWlseT0ic2Fucy1zZXJpZiIgZmlsbD0iIzAwMDAwMCI+U2NvcmVDYXJkSW50ZXJmYWNlPC90ZXh0PjxsaW5lIHkyPSIyMDIiIHkxPSIyMDIiIHgyPSIyOTE3IiB4MT0iMjc0NyIgc3R5bGU9InN0cm9rZTojQTgwMDM2O3N0cm9rZS13aWR0aDoxLjA7Ii8+PGxpbmUgeTI9IjIxMCIgeTE9IjIxMCIgeDI9IjI5MTciIHgxPSIyNzQ3IiBzdHlsZT0ic3Ryb2tlOiNBODAwMzY7c3Ryb2tlLXdpZHRoOjEuMDsiLz48L2c+PGcgaWQ9ImVsZW1fQm9hcmRJbnRlcmZhY2UiPjxyZWN0IHk9IjE3MCIgeD0iMjU3MSIgd2lkdGg9IjE0MCIgc3R5bGU9InN0cm9rZTojQTgwMDM2O3N0cm9rZS13aWR0aDoxLjA7IiBpZD0iQm9hcmRJbnRlcmZhY2UiIGhlaWdodD0iNDgiIGZpbHRlcj0idXJsKCNmNXVvdDhkeXZkanJsKSIgZmlsbD0iI0ZFRkVDRSIvPjxlbGxpcHNlIHN0eWxlPSJzdHJva2U6I0E4MDAzNjtzdHJva2Utd2lkdGg6MS4wOyIgcnk9IjExIiByeD0iMTEiIGZpbGw9IiNBREQxQjIiIGN5PSIxODYiIGN4PSIyNTg2Ii8+PHBhdGggZmlsbD0iIzAwMDAwMCIgZD0iTTI1ODguMzQzOCwxODEuNjcxOSBDMjU4Ny40MDYzLDE4MS4yMzQ0IDI1ODYuODEyNSwxODEuMDkzOCAyNTg1LjkzNzUsMTgxLjA5MzggQzI1ODMuMzEyNSwxODEuMDkzOCAyNTgxLjMxMjUsMTgzLjE3MTkgMjU4MS4zMTI1LDE4NS44OTA2IEwyNTgxLjMxMjUsMTg3LjAxNTYgQzI1ODEuMzEyNSwxODkuNTkzOCAyNTgzLjQyMTksMTkxLjQ4NDQgMjU4Ni4zMTI1LDE5MS40ODQ0IEMyNTg3LjUzMTMsMTkxLjQ4NDQgMjU4OC42ODc1LDE5MS4xODc1IDI1ODkuNDM3NSwxOTAuNjQwNiBDMjU5MC4wMTU2LDE5MC4yMzQ0IDI1OTAuMzQzOCwxODkuNzgxMyAyNTkwLjM0MzgsMTg5LjM5MDYgQzI1OTAuMzQzOCwxODguOTM3NSAyNTg5Ljk1MzEsMTg4LjU0NjkgMjU4OS40ODQ0LDE4OC41NDY5IEMyNTg5LjI2NTYsMTg4LjU0NjkgMjU4OS4wNjI1LDE4OC42MjUgMjU4OC44NzUsMTg4LjgxMjUgQzI1ODguNDIxOSwxODkuMjk2OSAyNTg4LjQyMTksMTg5LjI5NjkgMjU4OC4yMzQ0LDE4OS4zOTA2IEMyNTg3LjgxMjUsMTg5LjY1NjMgMjU4Ny4xMjUsMTg5Ljc4MTMgMjU4Ni4zNTk0LDE4OS43ODEzIEMyNTg0LjMxMjUsMTg5Ljc4MTMgMjU4My4wMTU2LDE4OC42ODc1IDI1ODMuMDE1NiwxODYuOTg0NCBMMjU4My4wMTU2LDE4NS44OTA2IEMyNTgzLjAxNTYsMTg0LjEwOTQgMjU4NC4yNjU2LDE4Mi43OTY5IDI1ODYsMTgyLjc5NjkgQzI1ODYuNTc4MSwxODIuNzk2OSAyNTg3LjE4NzUsMTgyLjk1MzEgMjU4Ny42NTYzLDE4My4yMDMxIEMyNTg4LjE0MDYsMTgzLjQ4NDQgMjU4OC4zMTI1LDE4My43MDMxIDI1ODguNDA2MywxODQuMTA5NCBDMjU4OC40Njg4LDE4NC41MTU2IDI1ODguNSwxODQuNjQwNiAyNTg4LjY0MDYsMTg0Ljc2NTYgQzI1ODguNzgxMywxODQuOTA2MyAyNTg5LjAxNTYsMTg1LjAxNTYgMjU4OS4yMzQ0LDE4NS4wMTU2IEMyNTg5LjUsMTg1LjAxNTYgMjU4OS43NjU2LDE4NC44NzUgMjU4OS45Mzc1LDE4NC42NTYzIEMyNTkwLjA0NjksMTg0LjUgMjU5MC4wNzgxLDE4NC4zMTI1IDI1OTAuMDc4MSwxODMuODkwNiBMMjU5MC4wNzgxLDE4Mi40Njg4IEMyNTkwLjA3ODEsMTgyLjAzMTMgMjU5MC4wNjI1LDE4MS45MDYzIDI1ODkuOTY4OCwxODEuNzUgQzI1ODkuODEyNSwxODEuNDg0NCAyNTg5LjUzMTMsMTgxLjM0MzggMjU4OS4yMzQ0LDE4MS4zNDM4IEMyNTg4LjkzNzUsMTgxLjM0MzggMjU4OC43MzQ0LDE4MS40Mzc1IDI1ODguNTE1NiwxODEuNzUgTDI1ODguMzQzOCwxODEuNjcxOSBaIi8+PHRleHQgeT0iMTkwLjg0NjciIHg9IjI2MDAiIHRleHRMZW5ndGg9IjEwOCIgbGVuZ3RoQWRqdXN0PSJzcGFjaW5nIiBmb250LXNpemU9IjE0IiBmb250LWZhbWlseT0ic2Fucy1zZXJpZiIgZmlsbD0iIzAwMDAwMCI+Qm9hcmRJbnRlcmZhY2U8L3RleHQ+PGxpbmUgeTI9IjIwMiIgeTE9IjIwMiIgeDI9IjI3MTAiIHgxPSIyNTcyIiBzdHlsZT0ic3Ryb2tlOiNBODAwMzY7c3Ryb2tlLXdpZHRoOjEuMDsiLz48bGluZSB5Mj0iMjEwIiB5MT0iMjEwIiB4Mj0iMjcxMCIgeDE9IjI1NzIiIHN0eWxlPSJzdHJva2U6I0E4MDAzNjtzdHJva2Utd2lkdGg6MS4wOyIvPjwvZz48ZyBpZD0iZWxlbV9TY29yZUJvYXJkSW50ZXJmYWNlIj48cmVjdCB5PSIxNzAiIHg9IjIzNTQuNSIgd2lkdGg9IjE4MSIgc3R5bGU9InN0cm9rZTojQTgwMDM2O3N0cm9rZS13aWR0aDoxLjA7IiBpZD0iU2NvcmVCb2FyZEludGVyZmFjZSIgaGVpZ2h0PSI0OCIgZmlsdGVyPSJ1cmwoI2Y1dW90OGR5dmRqcmwpIiBmaWxsPSIjRkVGRUNFIi8+PGVsbGlwc2Ugc3R5bGU9InN0cm9rZTojQTgwMDM2O3N0cm9rZS13aWR0aDoxLjA7IiByeT0iMTEiIHJ4PSIxMSIgZmlsbD0iI0FERDFCMiIgY3k9IjE4NiIgY3g9IjIzNjkuNSIvPjxwYXRoIGZpbGw9IiMwMDAwMDAiIGQ9Ik0yMzcxLjg0MzgsMTgxLjY3MTkgQzIzNzAuOTA2MywxODEuMjM0NCAyMzcwLjMxMjUsMTgxLjA5MzggMjM2OS40Mzc1LDE4MS4wOTM4IEMyMzY2LjgxMjUsMTgxLjA5MzggMjM2NC44MTI1LDE4My4xNzE5IDIzNjQuODEyNSwxODUuODkwNiBMMjM2NC44MTI1LDE4Ny4wMTU2IEMyMzY0LjgxMjUsMTg5LjU5MzggMjM2Ni45MjE5LDE5MS40ODQ0IDIzNjkuODEyNSwxOTEuNDg0NCBDMjM3MS4wMzEzLDE5MS40ODQ0IDIzNzIuMTg3NSwxOTEuMTg3NSAyMzcyLjkzNzUsMTkwLjY0MDYgQzIzNzMuNTE1NiwxOTAuMjM0NCAyMzczLjg0MzgsMTg5Ljc4MTMgMjM3My44NDM4LDE4OS4zOTA2IEMyMzczLjg0MzgsMTg4LjkzNzUgMjM3My40NTMxLDE4OC41NDY5IDIzNzIuOTg0NCwxODguNTQ2OSBDMjM3Mi43NjU2LDE4OC41NDY5IDIzNzIuNTYyNSwxODguNjI1IDIzNzIuMzc1LDE4OC44MTI1IEMyMzcxLjkyMTksMTg5LjI5NjkgMjM3MS45MjE5LDE4OS4yOTY5IDIzNzEuNzM0NCwxODkuMzkwNiBDMjM3MS4zMTI1LDE4OS42NTYzIDIzNzAuNjI1LDE4OS43ODEzIDIzNjkuODU5NCwxODkuNzgxMyBDMjM2Ny44MTI1LDE4OS43ODEzIDIzNjYuNTE1NiwxODguNjg3NSAyMzY2LjUxNTYsMTg2Ljk4NDQgTDIzNjYuNTE1NiwxODUuODkwNiBDMjM2Ni41MTU2LDE4NC4xMDk0IDIzNjcuNzY1NiwxODIuNzk2OSAyMzY5LjUsMTgyLjc5NjkgQzIzNzAuMDc4MSwxODIuNzk2OSAyMzcwLjY4NzUsMTgyLjk1MzEgMjM3MS4xNTYzLDE4My4yMDMxIEMyMzcxLjY0MDYsMTgzLjQ4NDQgMjM3MS44MTI1LDE4My43MDMxIDIzNzEuOTA2MywxODQuMTA5NCBDMjM3MS45Njg4LDE4NC41MTU2IDIzNzIsMTg0LjY0MDYgMjM3Mi4xNDA2LDE4NC43NjU2IEMyMzcyLjI4MTMsMTg0LjkwNjMgMjM3Mi41MTU2LDE4NS4wMTU2IDIzNzIuNzM0NCwxODUuMDE1NiBDMjM3MywxODUuMDE1NiAyMzczLjI2NTYsMTg0Ljg3NSAyMzczLjQzNzUsMTg0LjY1NjMgQzIzNzMuNTQ2OSwxODQuNSAyMzczLjU3ODEsMTg0LjMxMjUgMjM3My41NzgxLDE4My44OTA2IEwyMzczLjU3ODEsMTgyLjQ2ODggQzIzNzMuNTc4MSwxODIuMDMxMyAyMzczLjU2MjUsMTgxLjkwNjMgMjM3My40Njg4LDE4MS43NSBDMjM3My4zMTI1LDE4MS40ODQ0IDIzNzMuMDMxMywxODEuMzQzOCAyMzcyLjczNDQsMTgxLjM0MzggQzIzNzIuNDM3NSwxODEuMzQzOCAyMzcyLjIzNDQsMTgxLjQzNzUgMjM3Mi4wMTU2LDE4MS43NSBMMjM3MS44NDM4LDE4MS42NzE5IFoiLz48dGV4dCB5PSIxOTAuODQ2NyIgeD0iMjM4My41IiB0ZXh0TGVuZ3RoPSIxNDkiIGxlbmd0aEFkanVzdD0ic3BhY2luZyIgZm9udC1zaXplPSIxNCIgZm9udC1mYW1pbHk9InNhbnMtc2VyaWYiIGZpbGw9IiMwMDAwMDAiPlNjb3JlQm9hcmRJbnRlcmZhY2U8L3RleHQ+PGxpbmUgeTI9IjIwMiIgeTE9IjIwMiIgeDI9IjI1MzQuNSIgeDE9IjIzNTUuNSIgc3R5bGU9InN0cm9rZTojQTgwMDM2O3N0cm9rZS13aWR0aDoxLjA7Ii8+PGxpbmUgeTI9IjIxMCIgeTE9IjIxMCIgeDI9IjI1MzQuNSIgeDE9IjIzNTUuNSIgc3R5bGU9InN0cm9rZTojQTgwMDM2O3N0cm9rZS13aWR0aDoxLjA7Ii8+PC9nPjxnIGlkPSJlbGVtX0NvbW1vbkdvYWxDYXJkSW50ZXJmYWNlIj48cmVjdCB5PSIxNzAiIHg9IjIwOTEiIHdpZHRoPSIyMjgiIHN0eWxlPSJzdHJva2U6I0E4MDAzNjtzdHJva2Utd2lkdGg6MS4wOyIgaWQ9IkNvbW1vbkdvYWxDYXJkSW50ZXJmYWNlIiBoZWlnaHQ9IjQ4IiBmaWx0ZXI9InVybCgjZjV1b3Q4ZHl2ZGpybCkiIGZpbGw9IiNGRUZFQ0UiLz48ZWxsaXBzZSBzdHlsZT0ic3Ryb2tlOiNBODAwMzY7c3Ryb2tlLXdpZHRoOjEuMDsiIHJ5PSIxMSIgcng9IjExIiBmaWxsPSIjQUREMUIyIiBjeT0iMTg2IiBjeD0iMjEwNiIvPjxwYXRoIGZpbGw9IiMwMDAwMDAiIGQ9Ik0yMTA4LjM0MzgsMTgxLjY3MTkgQzIxMDcuNDA2MywxODEuMjM0NCAyMTA2LjgxMjUsMTgxLjA5MzggMjEwNS45Mzc1LDE4MS4wOTM4IEMyMTAzLjMxMjUsMTgxLjA5MzggMjEwMS4zMTI1LDE4My4xNzE5IDIxMDEuMzEyNSwxODUuODkwNiBMMjEwMS4zMTI1LDE4Ny4wMTU2IEMyMTAxLjMxMjUsMTg5LjU5MzggMjEwMy40MjE5LDE5MS40ODQ0IDIxMDYuMzEyNSwxOTEuNDg0NCBDMjEwNy41MzEzLDE5MS40ODQ0IDIxMDguNjg3NSwxOTEuMTg3NSAyMTA5LjQzNzUsMTkwLjY0MDYgQzIxMTAuMDE1NiwxOTAuMjM0NCAyMTEwLjM0MzgsMTg5Ljc4MTMgMjExMC4zNDM4LDE4OS4zOTA2IEMyMTEwLjM0MzgsMTg4LjkzNzUgMjEwOS45NTMxLDE4OC41NDY5IDIxMDkuNDg0NCwxODguNTQ2OSBDMjEwOS4yNjU2LDE4OC41NDY5IDIxMDkuMDYyNSwxODguNjI1IDIxMDguODc1LDE4OC44MTI1IEMyMTA4LjQyMTksMTg5LjI5NjkgMjEwOC40MjE5LDE4OS4yOTY5IDIxMDguMjM0NCwxODkuMzkwNiBDMjEwNy44MTI1LDE4OS42NTYzIDIxMDcuMTI1LDE4OS43ODEzIDIxMDYuMzU5NCwxODkuNzgxMyBDMjEwNC4zMTI1LDE4OS43ODEzIDIxMDMuMDE1NiwxODguNjg3NSAyMTAzLjAxNTYsMTg2Ljk4NDQgTDIxMDMuMDE1NiwxODUuODkwNiBDMjEwMy4wMTU2LDE4NC4xMDk0IDIxMDQuMjY1NiwxODIuNzk2OSAyMTA2LDE4Mi43OTY5IEMyMTA2LjU3ODEsMTgyLjc5NjkgMjEwNy4xODc1LDE4Mi45NTMxIDIxMDcuNjU2MywxODMuMjAzMSBDMjEwOC4xNDA2LDE4My40ODQ0IDIxMDguMzEyNSwxODMuNzAzMSAyMTA4LjQwNjMsMTg0LjEwOTQgQzIxMDguNDY4OCwxODQuNTE1NiAyMTA4LjUsMTg0LjY0MDYgMjEwOC42NDA2LDE4NC43NjU2IEMyMTA4Ljc4MTMsMTg0LjkwNjMgMjEwOS4wMTU2LDE4NS4wMTU2IDIxMDkuMjM0NCwxODUuMDE1NiBDMjEwOS41LDE4NS4wMTU2IDIxMDkuNzY1NiwxODQuODc1IDIxMDkuOTM3NSwxODQuNjU2MyBDMjExMC4wNDY5LDE4NC41IDIxMTAuMDc4MSwxODQuMzEyNSAyMTEwLjA3ODEsMTgzLjg5MDYgTDIxMTAuMDc4MSwxODIuNDY4OCBDMjExMC4wNzgxLDE4Mi4wMzEzIDIxMTAuMDYyNSwxODEuOTA2MyAyMTA5Ljk2ODgsMTgxLjc1IEMyMTA5LjgxMjUsMTgxLjQ4NDQgMjEwOS41MzEzLDE4MS4zNDM4IDIxMDkuMjM0NCwxODEuMzQzOCBDMjEwOC45Mzc1LDE4MS4zNDM4IDIxMDguNzM0NCwxODEuNDM3NSAyMTA4LjUxNTYsMTgxLjc1IEwyMTA4LjM0MzgsMTgxLjY3MTkgWiIvPjx0ZXh0IHk9IjE5MC44NDY3IiB4PSIyMTIwIiB0ZXh0TGVuZ3RoPSIxOTYiIGxlbmd0aEFkanVzdD0ic3BhY2luZyIgZm9udC1zaXplPSIxNCIgZm9udC1mYW1pbHk9InNhbnMtc2VyaWYiIGZpbGw9IiMwMDAwMDAiPkNvbW1vbkdvYWxDYXJkSW50ZXJmYWNlPC90ZXh0PjxsaW5lIHkyPSIyMDIiIHkxPSIyMDIiIHgyPSIyMzE4IiB4MT0iMjA5MiIgc3R5bGU9InN0cm9rZTojQTgwMDM2O3N0cm9rZS13aWR0aDoxLjA7Ii8+PGxpbmUgeTI9IjIxMCIgeTE9IjIxMCIgeDI9IjIzMTgiIHgxPSIyMDkyIiBzdHlsZT0ic3Ryb2tlOiNBODAwMzY7c3Ryb2tlLXdpZHRoOjEuMDsiLz48L2c+PGcgaWQ9ImVsZW1fU2hlbGZJbnRlcmZhY2UiPjxyZWN0IHk9IjE3MCIgeD0iMzIxMi41IiB3aWR0aD0iMTM1IiBzdHlsZT0ic3Ryb2tlOiNBODAwMzY7c3Ryb2tlLXdpZHRoOjEuMDsiIGlkPSJTaGVsZkludGVyZmFjZSIgaGVpZ2h0PSI0OCIgZmlsdGVyPSJ1cmwoI2Y1dW90OGR5dmRqcmwpIiBmaWxsPSIjRkVGRUNFIi8+PGVsbGlwc2Ugc3R5bGU9InN0cm9rZTojQTgwMDM2O3N0cm9rZS13aWR0aDoxLjA7IiByeT0iMTEiIHJ4PSIxMSIgZmlsbD0iI0FERDFCMiIgY3k9IjE4NiIgY3g9IjMyMjcuNSIvPjxwYXRoIGZpbGw9IiMwMDAwMDAiIGQ9Ik0zMjI5Ljg0MzgsMTgxLjY3MTkgQzMyMjguOTA2MywxODEuMjM0NCAzMjI4LjMxMjUsMTgxLjA5MzggMzIyNy40Mzc1LDE4MS4wOTM4IEMzMjI0LjgxMjUsMTgxLjA5MzggMzIyMi44MTI1LDE4My4xNzE5IDMyMjIuODEyNSwxODUuODkwNiBMMzIyMi44MTI1LDE4Ny4wMTU2IEMzMjIyLjgxMjUsMTg5LjU5MzggMzIyNC45MjE5LDE5MS40ODQ0IDMyMjcuODEyNSwxOTEuNDg0NCBDMzIyOS4wMzEzLDE5MS40ODQ0IDMyMzAuMTg3NSwxOTEuMTg3NSAzMjMwLjkzNzUsMTkwLjY0MDYgQzMyMzEuNTE1NiwxOTAuMjM0NCAzMjMxLjg0MzgsMTg5Ljc4MTMgMzIzMS44NDM4LDE4OS4zOTA2IEMzMjMxLjg0MzgsMTg4LjkzNzUgMzIzMS40NTMxLDE4OC41NDY5IDMyMzAuOTg0NCwxODguNTQ2OSBDMzIzMC43NjU2LDE4OC41NDY5IDMyMzAuNTYyNSwxODguNjI1IDMyMzAuMzc1LDE4OC44MTI1IEMzMjI5LjkyMTksMTg5LjI5NjkgMzIyOS45MjE5LDE4OS4yOTY5IDMyMjkuNzM0NCwxODkuMzkwNiBDMzIyOS4zMTI1LDE4OS42NTYzIDMyMjguNjI1LDE4OS43ODEzIDMyMjcuODU5NCwxODkuNzgxMyBDMzIyNS44MTI1LDE4OS43ODEzIDMyMjQuNTE1NiwxODguNjg3NSAzMjI0LjUxNTYsMTg2Ljk4NDQgTDMyMjQuNTE1NiwxODUuODkwNiBDMzIyNC41MTU2LDE4NC4xMDk0IDMyMjUuNzY1NiwxODIuNzk2OSAzMjI3LjUsMTgyLjc5NjkgQzMyMjguMDc4MSwxODIuNzk2OSAzMjI4LjY4NzUsMTgyLjk1MzEgMzIyOS4xNTYzLDE4My4yMDMxIEMzMjI5LjY0MDYsMTgzLjQ4NDQgMzIyOS44MTI1LDE4My43MDMxIDMyMjkuOTA2MywxODQuMTA5NCBDMzIyOS45Njg4LDE4NC41MTU2IDMyMzAsMTg0LjY0MDYgMzIzMC4xNDA2LDE4NC43NjU2IEMzMjMwLjI4MTMsMTg0LjkwNjMgMzIzMC41MTU2LDE4NS4wMTU2IDMyMzAuNzM0NCwxODUuMDE1NiBDMzIzMSwxODUuMDE1NiAzMjMxLjI2NTYsMTg0Ljg3NSAzMjMxLjQzNzUsMTg0LjY1NjMgQzMyMzEuNTQ2OSwxODQuNSAzMjMxLjU3ODEsMTg0LjMxMjUgMzIzMS41NzgxLDE4My44OTA2IEwzMjMxLjU3ODEsMTgyLjQ2ODggQzMyMzEuNTc4MSwxODIuMDMxMyAzMjMxLjU2MjUsMTgxLjkwNjMgMzIzMS40Njg4LDE4MS43NSBDMzIzMS4zMTI1LDE4MS40ODQ0IDMyMzEuMDMxMywxODEuMzQzOCAzMjMwLjczNDQsMTgxLjM0MzggQzMyMzAuNDM3NSwxODEuMzQzOCAzMjMwLjIzNDQsMTgxLjQzNzUgMzIzMC4wMTU2LDE4MS43NSBMMzIyOS44NDM4LDE4MS42NzE5IFoiLz48dGV4dCB5PSIxOTAuODQ2NyIgeD0iMzI0MS41IiB0ZXh0TGVuZ3RoPSIxMDMiIGxlbmd0aEFkanVzdD0ic3BhY2luZyIgZm9udC1zaXplPSIxNCIgZm9udC1mYW1pbHk9InNhbnMtc2VyaWYiIGZpbGw9IiMwMDAwMDAiPlNoZWxmSW50ZXJmYWNlPC90ZXh0PjxsaW5lIHkyPSIyMDIiIHkxPSIyMDIiIHgyPSIzMzQ2LjUiIHgxPSIzMjEzLjUiIHN0eWxlPSJzdHJva2U6I0E4MDAzNjtzdHJva2Utd2lkdGg6MS4wOyIvPjxsaW5lIHkyPSIyMTAiIHkxPSIyMTAiIHgyPSIzMzQ2LjUiIHgxPSIzMjEzLjUiIHN0eWxlPSJzdHJva2U6I0E4MDAzNjtzdHJva2Utd2lkdGg6MS4wOyIvPjwvZz48ZyBpZD0iZWxlbV9VbmljYXN0UmVtb3RlT2JqZWN0Ij48cmVjdCB5PSIxNzAiIHg9IjUwMTAuNSIgd2lkdGg9IjE5MSIgc3R5bGU9InN0cm9rZTojQTgwMDM2O3N0cm9rZS13aWR0aDoxLjA7IiBpZD0iVW5pY2FzdFJlbW90ZU9iamVjdCIgaGVpZ2h0PSI0OCIgZmlsdGVyPSJ1cmwoI2Y1dW90OGR5dmRqcmwpIiBmaWxsPSIjRkVGRUNFIi8+PGVsbGlwc2Ugc3R5bGU9InN0cm9rZTojQTgwMDM2O3N0cm9rZS13aWR0aDoxLjA7IiByeT0iMTEiIHJ4PSIxMSIgZmlsbD0iI0FERDFCMiIgY3k9IjE4NiIgY3g9IjUwMjUuNSIvPjxwYXRoIGZpbGw9IiMwMDAwMDAiIGQ9Ik01MDI3Ljg0MzgsMTgxLjY3MTkgQzUwMjYuOTA2MywxODEuMjM0NCA1MDI2LjMxMjUsMTgxLjA5MzggNTAyNS40Mzc1LDE4MS4wOTM4IEM1MDIyLjgxMjUsMTgxLjA5MzggNTAyMC44MTI1LDE4My4xNzE5IDUwMjAuODEyNSwxODUuODkwNiBMNTAyMC44MTI1LDE4Ny4wMTU2IEM1MDIwLjgxMjUsMTg5LjU5MzggNTAyMi45MjE5LDE5MS40ODQ0IDUwMjUuODEyNSwxOTEuNDg0NCBDNTAyNy4wMzEzLDE5MS40ODQ0IDUwMjguMTg3NSwxOTEuMTg3NSA1MDI4LjkzNzUsMTkwLjY0MDYgQzUwMjkuNTE1NiwxOTAuMjM0NCA1MDI5Ljg0MzgsMTg5Ljc4MTMgNTAyOS44NDM4LDE4OS4zOTA2IEM1MDI5Ljg0MzgsMTg4LjkzNzUgNTAyOS40NTMxLDE4OC41NDY5IDUwMjguOTg0NCwxODguNTQ2OSBDNTAyOC43NjU2LDE4OC41NDY5IDUwMjguNTYyNSwxODguNjI1IDUwMjguMzc1LDE4OC44MTI1IEM1MDI3LjkyMTksMTg5LjI5NjkgNTAyNy45MjE5LDE4OS4yOTY5IDUwMjcuNzM0NCwxODkuMzkwNiBDNTAyNy4zMTI1LDE4OS42NTYzIDUwMjYuNjI1LDE4OS43ODEzIDUwMjUuODU5NCwxODkuNzgxMyBDNTAyMy44MTI1LDE4OS43ODEzIDUwMjIuNTE1NiwxODguNjg3NSA1MDIyLjUxNTYsMTg2Ljk4NDQgTDUwMjIuNTE1NiwxODUuODkwNiBDNTAyMi41MTU2LDE4NC4xMDk0IDUwMjMuNzY1NiwxODIuNzk2OSA1MDI1LjUsMTgyLjc5NjkgQzUwMjYuMDc4MSwxODIuNzk2OSA1MDI2LjY4NzUsMTgyLjk1MzEgNTAyNy4xNTYzLDE4My4yMDMxIEM1MDI3LjY0MDYsMTgzLjQ4NDQgNTAyNy44MTI1LDE4My43MDMxIDUwMjcuOTA2MywxODQuMTA5NCBDNTAyNy45Njg4LDE4NC41MTU2IDUwMjgsMTg0LjY0MDYgNTAyOC4xNDA2LDE4NC43NjU2IEM1MDI4LjI4MTMsMTg0LjkwNjMgNTAyOC41MTU2LDE4NS4wMTU2IDUwMjguNzM0NCwxODUuMDE1NiBDNTAyOSwxODUuMDE1NiA1MDI5LjI2NTYsMTg0Ljg3NSA1MDI5LjQzNzUsMTg0LjY1NjMgQzUwMjkuNTQ2OSwxODQuNSA1MDI5LjU3ODEsMTg0LjMxMjUgNTAyOS41NzgxLDE4My44OTA2IEw1MDI5LjU3ODEsMTgyLjQ2ODggQzUwMjkuNTc4MSwxODIuMDMxMyA1MDI5LjU2MjUsMTgxLjkwNjMgNTAyOS40Njg4LDE4MS43NSBDNTAyOS4zMTI1LDE4MS40ODQ0IDUwMjkuMDMxMywxODEuMzQzOCA1MDI4LjczNDQsMTgxLjM0MzggQzUwMjguNDM3NSwxODEuMzQzOCA1MDI4LjIzNDQsMTgxLjQzNzUgNTAyOC4wMTU2LDE4MS43NSBMNTAyNy44NDM4LDE4MS42NzE5IFoiLz48dGV4dCB5PSIxOTAuODQ2NyIgeD0iNTAzOS41IiB0ZXh0TGVuZ3RoPSIxNTkiIGxlbmd0aEFkanVzdD0ic3BhY2luZyIgZm9udC1zaXplPSIxNCIgZm9udC1mYW1pbHk9InNhbnMtc2VyaWYiIGZpbGw9IiMwMDAwMDAiPlVuaWNhc3RSZW1vdGVPYmplY3Q8L3RleHQ+PGxpbmUgeTI9IjIwMiIgeTE9IjIwMiIgeDI9IjUyMDAuNSIgeDE9IjUwMTEuNSIgc3R5bGU9InN0cm9rZTojQTgwMDM2O3N0cm9rZS13aWR0aDoxLjA7Ii8+PGxpbmUgeTI9IjIxMCIgeTE9IjIxMCIgeDI9IjUyMDAuNSIgeDE9IjUwMTEuNSIgc3R5bGU9InN0cm9rZTojQTgwMDM2O3N0cm9rZS13aWR0aDoxLjA7Ii8+PC9nPjxnIGlkPSJsaW5rX1BlcnNvbmFsR29hbENhcmRJbnRlcmZhY2VfUGVyc29uYWxHb2FsQ2FyZCI+PHBhdGggc3R5bGU9InN0cm9rZTojQTgwMDM2O3N0cm9rZS13aWR0aDoxLjA7c3Ryb2tlLWRhc2hhcnJheTo3LjAsNy4wOyIgaWQ9IlBlcnNvbmFsR29hbENhcmRJbnRlcmZhY2UtYmFja3RvLVBlcnNvbmFsR29hbENhcmQiIGZpbGw9Im5vbmUiIGQ9Ik0zMTE3LjYzLDIyOS42OCBDMzE0My44NywyNDguMjkgMzE3NS4yMSwyNzIuNTkgMzIwMCwyOTggQzMyNzEuNTYsMzcxLjM3IDMzMzguOTYsNDY1Ljg4IDMzODYuNjIsNTM4LjcyIi8+PHBvbHlnb24gc3R5bGU9InN0cm9rZTojQTgwMDM2O3N0cm9rZS13aWR0aDoxLjA7IiBwb2ludHM9IjMxMTMuMjksMjM1LjE5LDMxMDAuODMsMjE4LjA1LDMxMjEuMjYsMjIzLjY4LDMxMTMuMjksMjM1LjE5IiBmaWxsPSJub25lIi8+PC9nPjxnIGlkPSJsaW5rX1VuaWNhc3RSZW1vdGVPYmplY3RfUGVyc29uYWxHb2FsQ2FyZCI+PHBhdGggc3R5bGU9InN0cm9rZTojQTgwMDM2O3N0cm9rZS13aWR0aDoxLjA7IiBpZD0iVW5pY2FzdFJlbW90ZU9iamVjdC1iYWNrdG8tUGVyc29uYWxHb2FsQ2FyZCIgZmlsbD0ibm9uZSIgZD0iTTQ5ODkuODcsMTk4IEM0Njc1LjIsMjA2Ljg5IDM4MjIuMzEsMjM2LjQ2IDM3MTIsMjk4IEMzNjE2LjU1LDM1MS4yNSAzNTQ3LjM4LDQ1Ni43MyAzNTA1LjE5LDUzOC42NyIvPjxwb2x5Z29uIHN0eWxlPSJzdHJva2U6I0E4MDAzNjtzdHJva2Utd2lkdGg6MS4wOyIgcG9pbnRzPSI0OTkwLjA3LDE5MC45OSw1MDEwLjI1LDE5Ny40Myw0OTkwLjQ2LDIwNC45OCw0OTkwLjA3LDE5MC45OSIgZmlsbD0ibm9uZSIvPjwvZz48ZyBpZD0ibGlua19PYmplY3RDYXJkSW50ZXJmYWNlX09iamVjdENhcmQiPjxwYXRoIHN0eWxlPSJzdHJva2U6I0E4MDAzNjtzdHJva2Utd2lkdGg6MS4wO3N0cm9rZS1kYXNoYXJyYXk6Ny4wLDcuMDsiIGlkPSJPYmplY3RDYXJkSW50ZXJmYWNlLWJhY2t0by1PYmplY3RDYXJkIiBmaWxsPSJub25lIiBkPSJNMTg1NS43NSwyMDYuMDkgQzE3MjYuMDksMjIxLjA1IDE1MjAuNzksMjUxLjMyIDE0NjAsMjk4IEMxMzc3LjQ4LDM2MS4zNiAxMzMwLjk1LDQ3My44MiAxMzA2Ljc0LDU1NC45Ii8+PHBvbHlnb24gc3R5bGU9InN0cm9rZTojQTgwMDM2O3N0cm9rZS13aWR0aDoxLjA7IiBwb2ludHM9IjE4NTUuMjIsMTk5LjExLDE4NzUuODgsMjAzLjgyLDE4NTYuNzksMjEzLjAyLDE4NTUuMjIsMTk5LjExIiBmaWxsPSJub25lIi8+PC9nPjxnIGlkPSJsaW5rX1Njb3JlQ2FyZEludGVyZmFjZV9TY29yZUNhcmQiPjxwYXRoIHN0eWxlPSJzdHJva2U6I0E4MDAzNjtzdHJva2Utd2lkdGg6MS4wO3N0cm9rZS1kYXNoYXJyYXk6Ny4wLDcuMDsiIGlkPSJTY29yZUNhcmRJbnRlcmZhY2UtYmFja3RvLVNjb3JlQ2FyZCIgZmlsbD0ibm9uZSIgZD0iTTI4NjQuNDgsMjMyLjkgQzI4ODMuMjUsMjUyLjU4IDI5MDguMzcsMjc1LjQ5IDI5MzUsMjkwIEMyOTQ3LjUsMjk2LjgxIDI5NTUuNjEsMjg4LjI4IDI5NjYsMjk4IEMzMDUwLjQsMzc2LjkyIDMwNzMuOTgsNTE3Ljk4IDMwODAuNTMsNTk1LjkyIi8+PHBvbHlnb24gc3R5bGU9InN0cm9rZTojQTgwMDM2O3N0cm9rZS13aWR0aDoxLjA7IiBwb2ludHM9IjI4NTkuMjEsMjM3LjUxLDI4NTAuODksMjE4LjAyLDI4NjkuNTUsMjI4LjA2LDI4NTkuMjEsMjM3LjUxIiBmaWxsPSJub25lIi8+PC9nPjxnIGlkPSJsaW5rX1VuaWNhc3RSZW1vdGVPYmplY3RfU2NvcmVDYXJkIj48cGF0aCBzdHlsZT0ic3Ryb2tlOiNBODAwMzY7c3Ryb2tlLXdpZHRoOjEuMDsiIGlkPSJVbmljYXN0UmVtb3RlT2JqZWN0LWJhY2t0by1TY29yZUNhcmQiIGZpbGw9Im5vbmUiIGQ9Ik00OTkwLjA0LDIwMS41NSBDNDcxMC40LDIxNy4zMSAzOTc2LjY4LDI1OC4zNSAzMzY0LDI5MCBDMzM0NS43OCwyOTAuOTQgMzIxNC41MiwyODYuOTYgMzIwMCwyOTggQzMxMDcuMTEsMzY4LjYxIDMwODcuMDQsNTE1LjM5IDMwODMuMjksNTk1LjgyIi8+PHBvbHlnb24gc3R5bGU9InN0cm9rZTojQTgwMDM2O3N0cm9rZS13aWR0aDoxLjA7IiBwb2ludHM9IjQ5ODkuODEsMTk0LjU2LDUwMTAuMTcsMjAwLjQyLDQ5OTAuNiwyMDguNTMsNDk4OS44MSwxOTQuNTYiIGZpbGw9Im5vbmUiLz48L2c+PGcgaWQ9ImxpbmtfQm9hcmRJbnRlcmZhY2VfQm9hcmQiPjxwYXRoIHN0eWxlPSJzdHJva2U6I0E4MDAzNjtzdHJva2Utd2lkdGg6MS4wO3N0cm9rZS1kYXNoYXJyYXk6Ny4wLDcuMDsiIGlkPSJCb2FyZEludGVyZmFjZS1iYWNrdG8tQm9hcmQiIGZpbGw9Im5vbmUiIGQ9Ik0yNjQxLDIzOC40OSBDMjY0MSwyNzguOTkgMjY0MSwzNDIuODIgMjY0MSw0MDguMyIvPjxwb2x5Z29uIHN0eWxlPSJzdHJva2U6I0E4MDAzNjtzdHJva2Utd2lkdGg6MS4wOyIgcG9pbnRzPSIyNjM0LDIzOC4yNywyNjQxLDIxOC4yNywyNjQ4LDIzOC4yNywyNjM0LDIzOC4yNyIgZmlsbD0ibm9uZSIvPjwvZz48ZyBpZD0ibGlua19VbmljYXN0UmVtb3RlT2JqZWN0X0JvYXJkIj48cGF0aCBzdHlsZT0ic3Ryb2tlOiNBODAwMzY7c3Ryb2tlLXdpZHRoOjEuMDsiIGlkPSJVbmljYXN0UmVtb3RlT2JqZWN0LWJhY2t0by1Cb2FyZCIgZmlsbD0ibm9uZSIgZD0iTTQ5OTAuMDksMjAyLjcgQzQ3MTAuNTYsMjIwLjk4IDM5NzcuMDgsMjY3LjEzIDMzNjQsMjkwIEMzMzQxLjksMjkwLjgyIDI5ODYuMTYsMjg4LjkxIDI5NjYsMjk4IEMyOTA5LjU3LDMyMy40NSAyODU4LjU0LDM2My44OCAyODE0LjUyLDQwOC40NSIvPjxwb2x5Z29uIHN0eWxlPSJzdHJva2U6I0E4MDAzNjtzdHJva2Utd2lkdGg6MS4wOyIgcG9pbnRzPSI0OTg5LjgsMTk1LjcxLDUwMTAuMjIsMjAxLjM4LDQ5OTAuNzIsMjA5LjY4LDQ5ODkuOCwxOTUuNzEiIGZpbGw9Im5vbmUiLz48L2c+PGcgaWQ9ImxpbmtfU2NvcmVCb2FyZEludGVyZmFjZV9TY29yZWJvYXJkIj48cGF0aCBzdHlsZT0ic3Ryb2tlOiNBODAwMzY7c3Ryb2tlLXdpZHRoOjEuMDtzdHJva2UtZGFzaGFycmF5OjcuMCw3LjA7IiBpZD0iU2NvcmVCb2FyZEludGVyZmFjZS1iYWNrdG8tU2NvcmVib2FyZCIgZmlsbD0ibm9uZSIgZD0iTTI0MDguNiwyMzIuMjggQzIzODguNSwyNTEuMzcgMjM2Mi4zMiwyNzMuOTEgMjMzNiwyOTAgQzIzMjcuODMsMjk0Ljk5IDIzMjMuMTMsMjkxLjYxIDIzMTYsMjk4IEMyMjIwLjY3LDM4My41MyAyMTY1LjE4LDUyOS4wNiAyMTQxLjU2LDYwMy45MiIvPjxwb2x5Z29uIHN0eWxlPSJzdHJva2U6I0E4MDAzNjtzdHJva2Utd2lkdGg6MS4wOyIgcG9pbnRzPSIyNDAzLjc5LDIyNy4xOSwyNDIyLjk5LDIxOC4yMiwyNDEzLjU4LDIzNy4yLDI0MDMuNzksMjI3LjE5IiBmaWxsPSJub25lIi8+PC9nPjxnIGlkPSJsaW5rX1VuaWNhc3RSZW1vdGVPYmplY3RfU2NvcmVib2FyZCI+PHBhdGggc3R5bGU9InN0cm9rZTojQTgwMDM2O3N0cm9rZS13aWR0aDoxLjA7IiBpZD0iVW5pY2FzdFJlbW90ZU9iamVjdC1iYWNrdG8tU2NvcmVib2FyZCIgZmlsbD0ibm9uZSIgZD0iTTQ5OTAuMTEsMjAzLjIgQzQ3MTAuNjIsMjIyLjU3IDM5NzcuMjEsMjcwLjk1IDMzNjQsMjkwIEMzMzQ5LjQ1LDI5MC40NSAyMzI4LjQ1LDI5MC40NiAyMzE2LDI5OCBDMjIwNC4zOSwzNjUuNjQgMjE1NS4zNyw1MjQuMiAyMTM3LjE2LDYwMy45NCIvPjxwb2x5Z29uIHN0eWxlPSJzdHJva2U6I0E4MDAzNjtzdHJva2Utd2lkdGg6MS4wOyIgcG9pbnRzPSI0OTg5Ljc5LDE5Ni4yMSw1MDEwLjIzLDIwMS44LDQ5OTAuNzcsMjEwLjE3LDQ5ODkuNzksMTk2LjIxIiBmaWxsPSJub25lIi8+PC9nPjxnIGlkPSJsaW5rX0NvbW1vbkdvYWxDYXJkSW50ZXJmYWNlX0NvbW1vbkdvYWxDYXJkIj48cGF0aCBzdHlsZT0ic3Ryb2tlOiNBODAwMzY7c3Ryb2tlLXdpZHRoOjEuMDtzdHJva2UtZGFzaGFycmF5OjcuMCw3LjA7IiBpZD0iQ29tbW9uR29hbENhcmRJbnRlcmZhY2UtYmFja3RvLUNvbW1vbkdvYWxDYXJkIiBmaWxsPSJub25lIiBkPSJNMjE2Ni40OSwyMzEuNzUgQzIxNDEuODIsMjUyLjg1IDIxMDcuOTYsMjc3LjU2IDIwNzMsMjkwIEMyMDQ1LjExLDI5OS45MyAxOTY1Ljc0LDI4My4zNiAxOTQwLDI5OCBDMTg1OC43NiwzNDQuMjIgMTc5OS4zNSw0MzAuNTcgMTc1OS45Niw1MDYuMzYiLz48cG9seWdvbiBzdHlsZT0ic3Ryb2tlOiNBODAwMzY7c3Ryb2tlLXdpZHRoOjEuMDsiIHBvaW50cz0iMjE2Mi4wNiwyMjYuMzIsMjE4MS42NSwyMTguMjQsMjE3MS4zNywyMzYuNzcsMjE2Mi4wNiwyMjYuMzIiIGZpbGw9Im5vbmUiLz48L2c+PGcgaWQ9ImxpbmtfVW5pY2FzdFJlbW90ZU9iamVjdF9Db21tb25Hb2FsQ2FyZCI+PHBhdGggc3R5bGU9InN0cm9rZTojQTgwMDM2O3N0cm9rZS13aWR0aDoxLjA7IiBpZD0iVW5pY2FzdFJlbW90ZU9iamVjdC1iYWNrdG8tQ29tbW9uR29hbENhcmQiIGZpbGw9Im5vbmUiIGQ9Ik00OTkwLjExLDIwMy4yOCBDNDcxMC42MiwyMjIuODMgMzk3Ny4yMiwyNzEuNTcgMzM2NCwyOTAgQzMzNDQuMjMsMjkwLjU5IDE5NTcuNDUsMjg4LjY5IDE5NDAsMjk4IEMxODU2Ljg4LDM0Mi4zNCAxNzk3LjE2LDQyOS42OCAxNzU4LjA5LDUwNi40NSIvPjxwb2x5Z29uIHN0eWxlPSJzdHJva2U6I0E4MDAzNjtzdHJva2Utd2lkdGg6MS4wOyIgcG9pbnRzPSI0OTg5Ljc5LDE5Ni4yOSw1MDEwLjIzLDIwMS44Nyw0OTkwLjc3LDIxMC4yNSw0OTg5Ljc5LDE5Ni4yOSIgZmlsbD0ibm9uZSIvPjwvZz48ZyBpZD0ibGlua19TY29yZUNhcmRfRW5kR2FtZUNhcmQiPjxwYXRoIHN0eWxlPSJzdHJva2U6I0E4MDAzNjtzdHJva2Utd2lkdGg6MS4wOyIgaWQ9IlNjb3JlQ2FyZC1iYWNrdG8tRW5kR2FtZUNhcmQiIGZpbGw9Im5vbmUiIGQ9Ik0zMDgzLDcyOS40NzQgQzMwODMsODY0LjQ2NCAzMDgzLDExNDAuNjQxIDMwODMsMTIzMy4zNiIvPjxwb2x5Z29uIHN0eWxlPSJzdHJva2U6I0E4MDAzNjtzdHJva2Utd2lkdGg6MS4wOyIgcG9pbnRzPSIzMDc2LDcyOS4wNzEsMzA4Myw3MDkuMDcxLDMwOTAsNzI5LjA3MSwzMDc2LDcyOS4wNzEiIGZpbGw9Im5vbmUiLz48L2c+PGcgaWQ9ImxpbmtfU2hlbGZJbnRlcmZhY2VfU2hlbGYiPjxwYXRoIHN0eWxlPSJzdHJva2U6I0E4MDAzNjtzdHJva2Utd2lkdGg6MS4wO3N0cm9rZS1kYXNoYXJyYXk6Ny4wLDcuMDsiIGlkPSJTaGVsZkludGVyZmFjZS1iYWNrdG8tU2hlbGYiIGZpbGw9Im5vbmUiIGQ9Ik0zMzY3LjkyLDIwNy4xNCBDMzQ3OC4xNiwyMjMuODMgMzY1OS4xNCwyNTYuNTcgMzcxMiwyOTggQzM3NzMuNjcsMzQ2LjMzIDM4MTYuNDMsNDIxLjI5IDM4NDQuOTMsNDg5Ljc3Ii8+PHBvbHlnb24gc3R5bGU9InN0cm9rZTojQTgwMDM2O3N0cm9rZS13aWR0aDoxLjA7IiBwb2ludHM9IjMzNjYuNjIsMjE0LjAyLDMzNDcuODcsMjA0LjE2LDMzNjguNjgsMjAwLjE3LDMzNjYuNjIsMjE0LjAyIiBmaWxsPSJub25lIi8+PC9nPjxnIGlkPSJsaW5rX1VuaWNhc3RSZW1vdGVPYmplY3RfU2hlbGYiPjxwYXRoIHN0eWxlPSJzdHJva2U6I0E4MDAzNjtzdHJva2Utd2lkdGg6MS4wOyIgaWQ9IlVuaWNhc3RSZW1vdGVPYmplY3QtYmFja3RvLVNoZWxmIiBmaWxsPSJub25lIiBkPSJNNDk5MC4yOSwyMDAuMzggQzQ3MzcuMDUsMjEzLjAyIDQxNTAuMjgsMjQ3LjQ1IDQwNzYsMjk4IEM0MDA5Ljk0LDM0Mi45NSAzOTY2LjQxLDQxOS41MiAzOTM4LjU0LDQ4OS45MyIvPjxwb2x5Z29uIHN0eWxlPSJzdHJva2U6I0E4MDAzNjtzdHJva2Utd2lkdGg6MS4wOyIgcG9pbnRzPSI0OTkwLjE2LDE5My4zNyw1MDEwLjQ4LDE5OS4zOCw0OTkwLjg1LDIwNy4zNiw0OTkwLjE2LDE5My4zNyIgZmlsbD0ibm9uZSIvPjwvZz48L2c+PC9zdmc+;" vertex="1" parent="1">
          <mxGeometry x="7" y="326" width="1640" height="517.97" as="geometry" />
        </mxCell>
      </root>
    </mxGraphModel>
  </diagram>
</mxfile>
